<svg width="25" height="25" viewBox="0 0 25 25" fill="none" xmlns="http://www.w3.org/2000/svg">
<path d="M18.3036 8.99194C18.3698 9.06134 18.4217 9.1431 18.4564 9.23256C18.491 9.32202 18.5077 9.41743 18.5054 9.51333C18.5032 9.60923 18.4821 9.70376 18.4433 9.7915C18.4046 9.87925 18.3489 9.9585 18.2795 10.0247L11.137 16.8426C11.0011 16.9723 10.8205 17.0447 10.6327 17.0447C10.4448 17.0447 10.2642 16.9723 10.1283 16.8426L6.55699 13.4337C6.41924 13.2994 6.34005 13.1161 6.33659 12.9238C6.33314 12.7314 6.40571 12.5455 6.53855 12.4063C6.67138 12.2671 6.85376 12.186 7.04607 12.1805C7.23838 12.175 7.42509 12.2456 7.56567 12.3769L10.6327 15.3045L17.2708 8.96796C17.4109 8.83422 17.5985 8.76162 17.7921 8.76611C17.9858 8.77061 18.1697 8.85184 18.3035 8.99194H18.3036ZM24.8366 12.4183C24.8366 14.8744 24.1083 17.2754 22.7437 19.3175C21.3792 21.3597 19.4397 22.9514 17.1706 23.8913C14.9014 24.8312 12.4045 25.0771 9.99561 24.598C7.5867 24.1188 5.37397 22.9361 3.63724 21.1994C1.90051 19.4626 0.717782 17.2499 0.23862 14.841C-0.240543 12.4321 0.00538044 9.93517 0.945292 7.66602C1.8852 5.39687 3.47689 3.4574 5.51907 2.09286C7.56124 0.72832 9.96219 0 12.4183 0C15.7107 0.00370576 18.8672 1.31325 21.1953 3.64133C23.5233 5.96941 24.8329 9.1259 24.8366 12.4183ZM23.3756 12.4183C23.3756 10.2511 22.733 8.13266 21.529 6.33074C20.325 4.52881 18.6137 3.12439 16.6115 2.29505C14.6093 1.46572 12.4061 1.24873 10.2806 1.67152C8.15512 2.09431 6.20271 3.13789 4.67031 4.6703C3.1379 6.20271 2.09431 8.15512 1.67152 10.2806C1.24873 12.4061 1.46572 14.6093 2.29506 16.6115C3.12439 18.6137 4.52882 20.325 6.33074 21.529C8.13266 22.733 10.2511 23.3756 12.4183 23.3756C15.3234 23.3723 18.1085 22.2168 20.1627 20.1627C22.2169 18.1085 23.3723 15.3233 23.3756 12.4183Z" fill="#212121"/>
</svg>
