<svg width="32" height="30" viewBox="0 0 32 30" fill="none" xmlns="http://www.w3.org/2000/svg">
<path d="M23.4337 28.8337L29.175 1.425M25.7751 25.6501L30.8751 1C30.8751 1 21.9501 2.7 21.9501 6.10001C21.9501 8.22502 25.3501 9.50002 24.0751 10.775C22.8001 12.05 18.125 13.325 18.125 16.725C18.125 18.85 19.519 20.431 18.125 21.8251C16.85 23.1001 15.575 22.432 13.45 21.8251C11.07 21.1451 6.22501 20.55 4.52501 20.975C2.825 21.4001 1.125 22.2501 1.125 24.8001C1.125 26.2026 1.975 27.7751 4.10001 28.2001C6.22501 28.6251 8.77502 26.5001 12.175 26.5001C15.575 26.5001 19.825 29.0501 22.3751 29.0501C24.9251 29.0501 25.7751 25.6501 25.7751 25.6501Z" stroke="#212121" stroke-linejoin="round"/>
</svg>
