<svg width="69" height="30" viewBox="0 0 69 30" fill="none" xmlns="http://www.w3.org/2000/svg">
<path d="M0.131836 10.3223H2.97363C3.03874 10.8952 3.34147 11.3607 3.88184 11.7188C4.42871 12.0703 5.09603 12.2461 5.88379 12.2461C6.66504 12.2461 7.2998 12.0801 7.78809 11.748C8.28288 11.4095 8.53027 10.9798 8.53027 10.459C8.53027 10.0033 8.34798 9.63542 7.9834 9.35547C7.61881 9.07552 7.01009 8.84115 6.15723 8.65234L4.32129 8.25195C1.73665 7.69857 0.444336 6.38672 0.444336 4.31641C0.444336 3.02734 0.945638 1.98568 1.94824 1.19141C2.95736 0.397135 4.25293 0 5.83496 0C7.46256 0 8.76139 0.38737 9.73145 1.16211C10.7015 1.93034 11.1995 2.95573 11.2256 4.23828H8.46191C8.41634 3.64583 8.15267 3.18034 7.6709 2.8418C7.19564 2.49674 6.58691 2.32422 5.84473 2.32422C5.11556 2.32422 4.52637 2.48372 4.07715 2.80273C3.63444 3.12174 3.41309 3.54167 3.41309 4.0625C3.41309 4.49219 3.59212 4.84049 3.9502 5.10742C4.31478 5.37435 4.90397 5.60221 5.71777 5.79102L7.42676 6.15234C8.83952 6.45182 9.86816 6.92057 10.5127 7.55859C11.1572 8.1901 11.4795 9.04297 11.4795 10.1172C11.4795 11.4844 10.9652 12.5716 9.93652 13.3789C8.90788 14.1797 7.5179 14.5801 5.7666 14.5801C4.06738 14.5801 2.71322 14.2025 1.7041 13.4473C0.701497 12.6855 0.177409 11.6439 0.131836 10.3223Z" fill="#212121"/>
<path d="M17.4451 14.3359H14.4959V0.244141H17.4451V14.3359Z" fill="#212121"/>
<path d="M35.9107 14.3359H33.2838V4.82422H33.2057L29.3775 14.1992H27.5221L23.6939 4.82422H23.6158V14.3359H20.9889V0.244141H24.4068L28.4107 10.2344H28.4889L32.4928 0.244141H35.9107V14.3359Z" fill="#212121"/>
<path d="M40.8412 1.96289C42.0652 0.654297 43.7221 0 45.8119 0C47.9018 0 49.5554 0.654297 50.7729 1.96289C51.9968 3.27148 52.6088 5.04883 52.6088 7.29492C52.6088 9.5345 51.9968 11.3086 50.7729 12.6172C49.5489 13.9258 47.8952 14.5801 45.8119 14.5801C43.7221 14.5801 42.0652 13.9258 40.8412 12.6172C39.6238 11.3086 39.015 9.5345 39.015 7.29492C39.015 5.04883 39.6238 3.27148 40.8412 1.96289ZM48.5658 3.76953C47.8822 2.89714 46.9643 2.46094 45.8119 2.46094C44.6596 2.46094 43.7383 2.89714 43.0482 3.76953C42.3646 4.64193 42.0229 5.81706 42.0229 7.29492C42.0229 8.76628 42.3646 9.93815 43.0482 10.8105C43.7318 11.6764 44.6531 12.1094 45.8119 12.1094C46.9643 12.1094 47.8822 11.6764 48.5658 10.8105C49.2494 9.93815 49.5912 8.76628 49.5912 7.29492C49.5912 5.81706 49.2494 4.64193 48.5658 3.76953Z" fill="#212121"/>
<path d="M58.5354 14.3359H55.7131V0.244141H58.174L64.7561 9.42383H64.8342V0.244141H67.6564V14.3359H65.215L58.6232 5.10742H58.5354V14.3359Z" fill="#212121"/>
<path d="M4.66895 29.5068C3.22884 29.5068 2.08952 29.0534 1.25098 28.1465C0.416992 27.235 0 25.9863 0 24.4004C0 22.819 0.419271 21.5749 1.25781 20.668C2.09635 19.7565 3.2334 19.3008 4.66895 19.3008C5.4528 19.3008 6.16374 19.4557 6.80176 19.7656C7.44434 20.0755 7.95931 20.513 8.34668 21.0781C8.73405 21.6432 8.9528 22.2881 9.00293 23.0127H6.99316C6.89746 22.4066 6.63542 21.9212 6.20703 21.5566C5.7832 21.1921 5.27051 21.0098 4.66895 21.0098C3.88965 21.0098 3.26758 21.3151 2.80273 21.9258C2.33789 22.5365 2.10547 23.359 2.10547 24.3936C2.10547 25.4463 2.33561 26.278 2.7959 26.8887C3.25618 27.4948 3.88281 27.7979 4.67578 27.7979C5.28646 27.7979 5.79915 27.6292 6.21387 27.292C6.62858 26.9548 6.89062 26.4945 7 25.9111H9.00977C8.89583 27.0094 8.44694 27.8844 7.66309 28.5361C6.87923 29.1833 5.88119 29.5068 4.66895 29.5068Z" fill="#212121"/>
<path d="M16.2663 29.3359L15.5143 26.9434H12.0485L11.2965 29.3359H9.17738L12.6022 19.4717H15.0289L18.4606 29.3359H16.2663ZM13.7575 21.3584L12.4928 25.3984H15.07L13.8053 21.3584H13.7575Z" fill="#212121"/>
<path d="M21.3968 21.085V24.2295H23.1741C23.6936 24.2295 24.097 24.0905 24.3841 23.8125C24.6757 23.5345 24.8216 23.1494 24.8216 22.6572C24.8216 22.1787 24.6712 21.7982 24.3704 21.5156C24.0696 21.2285 23.664 21.085 23.1536 21.085H21.3968ZM21.3968 25.7266V29.3359H19.3323V19.4717H23.3723C24.498 19.4717 25.373 19.752 25.9973 20.3125C26.6262 20.8685 26.9407 21.6364 26.9407 22.6162C26.9407 23.2588 26.7812 23.833 26.4622 24.3389C26.1477 24.8402 25.7102 25.2002 25.1497 25.4189L27.2278 29.3359H24.8899L23.0511 25.7266H21.3968Z" fill="#212121"/>
<path d="M35.1578 29.5068C33.7177 29.5068 32.5783 29.0534 31.7398 28.1465C30.9058 27.235 30.4888 25.9863 30.4888 24.4004C30.4888 22.819 30.9081 21.5749 31.7466 20.668C32.5852 19.7565 33.7222 19.3008 35.1578 19.3008C35.9416 19.3008 36.6526 19.4557 37.2906 19.7656C37.9332 20.0755 38.4481 20.513 38.8355 21.0781C39.2229 21.6432 39.4416 22.2881 39.4918 23.0127H37.482C37.3863 22.4066 37.1242 21.9212 36.6959 21.5566C36.272 21.1921 35.7593 21.0098 35.1578 21.0098C34.3785 21.0098 33.7564 21.3151 33.2916 21.9258C32.8267 22.5365 32.5943 23.359 32.5943 24.3936C32.5943 25.4463 32.8244 26.278 33.2847 26.8887C33.745 27.4948 34.3716 27.7979 35.1646 27.7979C35.7753 27.7979 36.288 27.6292 36.7027 27.292C37.1174 26.9548 37.3795 26.4945 37.4888 25.9111H39.4986C39.3847 27.0094 38.9358 27.8844 38.1519 28.5361C37.3681 29.1833 36.37 29.5068 35.1578 29.5068Z" fill="#212121"/>
<path d="M49.2092 29.3359H47.1447V25.1797H42.7014V29.3359H40.6369V19.4717H42.7014V23.4775H47.1447V19.4717H49.2092V29.3359Z" fill="#212121"/>
<path d="M51.6805 20.6748C52.5373 19.7588 53.6971 19.3008 55.16 19.3008C56.6229 19.3008 57.7804 19.7588 58.6327 20.6748C59.4894 21.5908 59.9178 22.835 59.9178 24.4072C59.9178 25.9749 59.4894 27.2168 58.6327 28.1328C57.7759 29.0488 56.6183 29.5068 55.16 29.5068C53.6971 29.5068 52.5373 29.0488 51.6805 28.1328C50.8283 27.2168 50.4022 25.9749 50.4022 24.4072C50.4022 22.835 50.8283 21.5908 51.6805 20.6748ZM57.0877 21.9395C56.6092 21.3288 55.9666 21.0234 55.16 21.0234C54.3534 21.0234 53.7085 21.3288 53.2254 21.9395C52.7469 22.5501 52.5077 23.3727 52.5077 24.4072C52.5077 25.4372 52.7469 26.2575 53.2254 26.8682C53.7039 27.4743 54.3488 27.7773 55.16 27.7773C55.9666 27.7773 56.6092 27.4743 57.0877 26.8682C57.5662 26.2575 57.8055 25.4372 57.8055 24.4072C57.8055 23.3727 57.5662 22.5501 57.0877 21.9395Z" fill="#212121"/>
<path d="M61.1108 19.4717H65.1235C66.1398 19.4717 66.9624 19.7816 67.5913 20.4014C68.2248 21.0212 68.5415 21.8369 68.5415 22.8486C68.5415 23.8558 68.2156 24.6715 67.5639 25.2959C66.9123 25.9157 66.0646 26.2256 65.021 26.2256H63.1753V29.3359H61.1108V19.4717ZM63.1753 21.1055V24.6123H64.5698C65.1623 24.6123 65.6225 24.4596 65.9507 24.1543C66.2788 23.849 66.4429 23.416 66.4429 22.8555C66.4429 22.2949 66.2788 21.8643 65.9507 21.5635C65.6271 21.2581 65.1691 21.1055 64.5766 21.1055H63.1753Z" fill="#212121"/>
</svg>
