<svg width="40" height="40" viewBox="0 0 40 40" fill="none" xmlns="http://www.w3.org/2000/svg">
<g clip-path="url(#clip0_592_888)">
<circle cx="20" cy="20" r="20" fill="#29A9EA"/>
<path d="M27.2956 12.1413C27.2956 12.1413 29.1456 11.4487 28.9908 13.1305C28.9399 13.8231 28.4775 16.2473 28.1175 18.869L26.8842 26.6358C26.8842 26.6358 26.7813 27.7737 25.8561 27.9716C24.9313 28.1691 23.5437 27.279 23.2866 27.0811C23.0809 26.9325 19.4324 24.7062 18.1476 23.6182C17.7876 23.3211 17.3762 22.7277 18.1991 22.0352L23.5947 17.088C24.2114 16.4946 24.828 15.1095 22.2585 16.7913L15.0634 21.4907C15.0634 21.4907 14.241 21.9858 12.6996 21.5405L9.35871 20.5508C9.35871 20.5508 8.12539 19.8089 10.2325 19.0669C15.372 16.7419 21.6933 14.3675 27.2946 12.1413H27.2956Z" fill="white"/>
</g>
<defs>
<clipPath id="clip0_592_888">
<rect width="40" height="40" fill="white"/>
</clipPath>
</defs>
</svg>
