<svg width="40" height="40" viewBox="0 0 40 40" fill="none" xmlns="http://www.w3.org/2000/svg">
<g clip-path="url(#clip0_592_885)">
<circle cx="20" cy="20" r="20" fill="#7360F2"/>
<path d="M25.9066 18.9283C25.9259 16.6003 23.9433 14.4664 21.4873 14.1709C21.4343 14.1643 21.3814 14.1563 21.3288 14.1468C21.2053 14.1232 21.0801 14.1097 20.9545 14.1065C20.4505 14.1065 20.3161 14.4607 20.2807 14.6708C20.2461 14.8761 20.2791 15.0492 20.3781 15.1836C20.5447 15.4098 20.8385 15.45 21.0744 15.4822C21.1428 15.4919 21.208 15.5007 21.2628 15.5128C23.47 16.0063 24.2129 16.7814 24.576 18.9701C24.5848 19.0233 24.5889 19.0893 24.5937 19.1593C24.6098 19.4209 24.642 19.9651 25.2272 19.9651C25.2755 19.9651 25.3286 19.961 25.3834 19.953C25.9275 19.8701 25.9106 19.3726 25.9026 19.1335C25.9002 19.0659 25.8977 19.0023 25.9042 18.9597C25.9055 18.949 25.906 18.9382 25.9058 18.9275L25.9066 18.9283Z" fill="white"/>
<path d="M20.8114 13.3169C20.8774 13.3218 20.9386 13.3266 20.9901 13.3338C24.6149 13.8917 26.2819 15.6087 26.7432 19.2616C26.7512 19.3236 26.7528 19.3992 26.7536 19.4789C26.7585 19.7647 26.7681 20.3587 27.4057 20.3708H27.425C27.6254 20.3708 27.784 20.3104 27.8983 20.1913C28.0963 19.9844 28.0834 19.6761 28.0714 19.4282C28.069 19.367 28.0665 19.3099 28.0665 19.2592C28.1132 15.5241 24.8789 12.136 21.1471 12.0105C21.131 12.0105 21.1165 12.0105 21.102 12.0129C21.0873 12.0147 21.0725 12.0155 21.0577 12.0153C21.0199 12.0153 20.9748 12.0121 20.9257 12.0089C20.8678 12.0048 20.8009 12 20.7325 12C20.1385 12 20.0258 12.4226 20.0113 12.6746C19.9783 13.2565 20.5409 13.2976 20.8114 13.3169ZM26.5685 23.9827C26.4907 23.9236 26.4137 23.8635 26.3375 23.8024C25.9414 23.4836 25.5204 23.1906 25.1139 22.9065L24.8604 22.7294C24.3388 22.3631 23.8703 22.1852 23.4275 22.1852C22.8303 22.1852 22.3102 22.5152 21.8804 23.1648C21.6904 23.453 21.4594 23.5931 21.1752 23.5931C20.9779 23.5862 20.7842 23.5376 20.6069 23.4506C18.9246 22.6875 17.722 21.5171 17.0345 19.9724C16.7021 19.2254 16.8099 18.7375 17.3943 18.3399C17.7268 18.1145 18.3442 17.6951 18.3015 16.891C18.2516 15.9789 16.2384 13.2332 15.39 12.9217C15.0273 12.7894 14.6297 12.7882 14.2662 12.9185C13.2914 13.2461 12.5927 13.8224 12.2426 14.5831C11.9045 15.3189 11.9206 16.1826 12.286 17.0809C13.3446 19.6785 14.8321 21.9437 16.7085 23.8128C18.5446 25.6425 20.8017 27.1406 23.4163 28.2667C23.6521 28.3681 23.8992 28.4237 24.0804 28.4639C24.1415 28.4776 24.1947 28.4897 24.2333 28.5001C24.2546 28.5059 24.2765 28.5088 24.2985 28.509H24.3194C25.5494 28.509 27.0265 27.3853 27.4797 26.1046C27.8774 24.9825 27.1513 24.4278 26.5685 23.9827ZM21.3556 16.2848C21.1455 16.2897 20.7068 16.3009 20.553 16.7469C20.4806 16.9562 20.4894 17.1365 20.5788 17.2854C20.7092 17.5027 20.9595 17.5703 21.1865 17.6074C22.0116 17.7394 22.4358 18.195 22.5203 19.0426C22.5598 19.4371 22.8262 19.7132 23.1667 19.7132C23.1926 19.7131 23.2184 19.7115 23.244 19.7083C23.6545 19.66 23.8534 19.3582 23.8357 18.8116C23.8421 18.2417 23.5443 17.5945 23.0363 17.0793C22.5276 16.5625 21.9142 16.2711 21.3556 16.2848Z" fill="white"/>
</g>
<defs>
<clipPath id="clip0_592_885">
<rect width="40" height="40" fill="white"/>
</clipPath>
</defs>
</svg>
