<svg width="40" height="40" viewBox="0 0 40 40" fill="none" xmlns="http://www.w3.org/2000/svg">
<g clip-path="url(#clip0_592_894)">
<circle cx="20" cy="20" r="20" fill="#2787F5"/>
<path fill-rule="evenodd" clip-rule="evenodd" d="M30.4954 14.8803C30.6475 14.3733 30.4954 14 29.7666 14H27.3604C26.7481 14 26.4658 14.3222 26.3127 14.6779C26.3127 14.6779 25.089 17.6456 23.3556 19.5733C22.7946 20.1323 22.5398 20.3096 22.2336 20.3096C22.0806 20.3096 21.8505 20.1323 21.8505 19.6244V14.8803C21.8505 14.2711 21.6818 14 21.1722 14H17.3882C17.006 14 16.7759 14.2823 16.7759 14.5506C16.7759 15.1273 17.6431 15.261 17.732 16.8841V20.4109C17.732 21.1844 17.5917 21.3246 17.2856 21.3246C16.4698 21.3246 14.4852 18.3429 13.3073 14.9314C13.0791 14.2674 12.8481 14 12.233 14H9.82498C9.1375 14 9 14.3222 9 14.6779C9 15.3111 9.81582 18.4571 12.7995 22.6181C14.7886 25.4595 17.589 27 20.14 27C21.6699 27 21.8587 26.6583 21.8587 26.0686V23.9209C21.8587 23.2365 22.0036 23.1 22.4885 23.1C22.846 23.1 23.4574 23.2783 24.8855 24.6479C26.5171 26.272 26.7857 27 27.7042 27H30.1104C30.7979 27 31.1425 26.6583 30.9445 25.9823C30.7264 25.31 29.9472 24.3341 28.9142 23.1761C28.3532 22.5169 27.5117 21.8065 27.256 21.4509C26.8994 20.9949 27.0011 20.7916 27.256 20.3858C27.256 20.3858 30.1892 16.2759 30.4945 14.8803H30.4954Z" fill="white"/>
</g>
<defs>
<clipPath id="clip0_592_894">
<rect width="40" height="40" fill="white"/>
</clipPath>
</defs>
</svg>
