<svg width="40" height="40" viewBox="0 0 40 40" fill="none" xmlns="http://www.w3.org/2000/svg">
<g clip-path="url(#clip0_592_882)">
<circle cx="20" cy="20" r="20" fill="#43D854"/>
<path d="M27.9909 24.6269C27.9528 24.391 27.8049 24.1893 27.5834 24.0695L24.3068 22.1385L24.2798 22.1234C24.1425 22.0546 23.9907 22.0193 23.8371 22.0205C23.5626 22.0205 23.3004 22.1245 23.1185 22.307L22.1514 23.2748C22.11 23.3141 21.9752 23.371 21.9342 23.3731C21.923 23.3722 20.809 23.2919 18.758 21.2401C16.7107 19.1927 16.6238 18.0749 16.6231 18.0749C16.6243 18.0177 16.6805 17.8833 16.7205 17.8417L17.5452 17.017C17.8357 16.7257 17.9228 16.2428 17.7505 15.8688L15.9292 12.4408C15.7968 12.1683 15.5397 12 15.2544 12C15.0526 12 14.8579 12.0837 14.7056 12.2357L12.4576 14.4793C12.2421 14.6938 12.0565 15.0688 12.016 15.3706C11.9964 15.5148 11.5975 18.9586 16.3175 23.6806C20.3246 27.6884 23.4492 27.9998 24.3121 27.9998C24.4172 28.0012 24.5222 27.9957 24.6266 27.9836C24.9274 27.9433 25.3018 27.7581 25.516 27.5434L27.7621 25.2968C27.9455 25.1126 28.0291 24.8691 27.9909 24.6269Z" fill="white"/>
</g>
<defs>
<clipPath id="clip0_592_882">
<rect width="40" height="40" fill="white"/>
</clipPath>
</defs>
</svg>
