<svg width="36" height="36" viewBox="0 0 36 36" fill="none" xmlns="http://www.w3.org/2000/svg">
<path d="M34.6409 7.32593H33.4961V28.4021H34.6409V7.32593Z" fill="#212121"/>
<path d="M3.73906 7.32593H2.59424V28.4021H3.73906V7.32593Z" fill="#212121"/>
<path d="M1.49897 11.4851H0V26.3513H1.49897V11.4851Z" fill="#212121"/>
<path d="M33.2079 8.06714H4.01917V8.63543H33.2079V8.06714Z" fill="#212121"/>
<path d="M33.2079 27.8339H4.01917V28.4022H33.2079V27.8339Z" fill="#212121"/>
<path d="M2.29774 28.4103C1.75888 28.4082 1.2427 28.1931 0.861662 27.8121C0.480623 27.4311 0.265596 26.9149 0.263428 26.376V11.131C0.263428 10.5915 0.477757 10.074 0.859265 9.69252C1.24077 9.31101 1.75821 9.09668 2.29774 9.09668V9.92029C2.14308 9.92029 1.98993 9.95076 1.84703 10.0099C1.70414 10.0691 1.57431 10.1559 1.46494 10.2652C1.35558 10.3746 1.26882 10.5045 1.20963 10.6473C1.15045 10.7902 1.11998 10.9434 1.11998 11.0981V26.376C1.11998 26.6884 1.24407 26.9879 1.46494 27.2088C1.68582 27.4297 1.98538 27.5538 2.29774 27.5538V28.4103Z" fill="#212121"/>
<path d="M36 27.249H35.0199V28.4021H36V27.249Z" fill="#212121"/>
<path d="M30.2017 6.5188H28.5709V7.67185H30.2017V6.5188Z" fill="#212121"/>
<path d="M31.1819 28.748H27.5909V29.4811H31.1819V28.748Z" fill="#212121"/>
<path d="M9.64416 28.748H6.05322V29.4811H9.64416V28.748Z" fill="#212121"/>
<path d="M8.66444 6.5188H7.03369V7.67185H8.66444V6.5188Z" fill="#212121"/>
<path d="M20.582 13.0418C20.582 14.0548 18.1112 16.1056 17.3947 16.8222C16.6781 17.5387 16.9252 14.0548 16.9252 13.0418C16.9252 12.5569 17.1178 12.0918 17.4607 11.7489C17.8036 11.406 18.2687 11.2134 18.7536 11.2134C19.2385 11.2134 19.7036 11.406 20.0465 11.7489C20.3894 12.0918 20.582 12.5569 20.582 13.0418Z" fill="#212121"/>
<path d="M16.6532 23.4356C16.6532 22.4226 19.124 20.3718 19.8406 19.6553C20.5571 18.9387 20.31 22.4226 20.31 23.4356C20.31 23.9206 20.1174 24.3856 19.7745 24.7285C19.4316 25.0714 18.9665 25.264 18.4816 25.264C17.9967 25.264 17.5316 25.0714 17.1887 24.7285C16.8458 24.3856 16.6532 23.9206 16.6532 23.4356Z" fill="#212121"/>
<path d="M23.8104 20.199C22.8056 20.199 20.7466 17.7282 20.0301 17.0117C19.3135 16.2951 22.8056 16.5504 23.8104 16.5504C24.0603 16.5336 24.311 16.5684 24.5469 16.6524C24.7828 16.7365 24.9989 16.8681 25.1819 17.0392C25.3648 17.2102 25.5106 17.417 25.6103 17.6468C25.7101 17.8765 25.7615 18.1243 25.7615 18.3747C25.7615 18.6252 25.7101 18.8729 25.6103 19.1027C25.5106 19.3324 25.3648 19.5392 25.1819 19.7103C24.9989 19.8813 24.7828 20.013 24.5469 20.097C24.311 20.1811 24.0603 20.2158 23.8104 20.199Z" fill="#212121"/>
<path d="M13.4164 16.2456C14.4294 16.2456 16.4885 18.7164 17.1968 19.4329C17.9051 20.1495 14.4294 19.8942 13.4164 19.8942C13.1665 19.911 12.9158 19.8762 12.6799 19.7922C12.444 19.7081 12.2279 19.5765 12.045 19.4054C11.862 19.2344 11.7162 19.0276 11.6165 18.7978C11.5168 18.5681 11.4653 18.3203 11.4653 18.0699C11.4653 17.8194 11.5168 17.5717 11.6165 17.3419C11.7162 17.1122 11.862 16.9054 12.045 16.7343C12.2279 16.5633 12.444 16.4316 12.6799 16.3476C12.9158 16.2635 13.1665 16.2288 13.4164 16.2456Z" fill="#212121"/>
<path d="M18.6134 16.1385C18.198 16.1385 17.792 16.2617 17.4466 16.4925C17.1012 16.7233 16.832 17.0513 16.6731 17.435C16.5141 17.8188 16.4725 18.2411 16.5535 18.6485C16.6346 19.0559 16.8346 19.4301 17.1283 19.7238C17.422 20.0176 17.7963 20.2176 18.2037 20.2986C18.6111 20.3796 19.0333 20.3381 19.4171 20.1791C19.8009 20.0201 20.1289 19.7509 20.3596 19.4056C20.5904 19.0602 20.7136 18.6541 20.7136 18.2388C20.7136 17.6817 20.4923 17.1476 20.0985 16.7537C19.7046 16.3598 19.1704 16.1385 18.6134 16.1385ZM18.6134 18.8153C18.4997 18.8137 18.3891 18.7785 18.2954 18.7141C18.2016 18.6498 18.129 18.5592 18.0867 18.4537C18.0443 18.3483 18.034 18.2326 18.0572 18.1213C18.0804 18.01 18.1359 17.9081 18.2169 17.8283C18.2978 17.7485 18.4005 17.6944 18.5121 17.6728C18.6237 17.6512 18.7392 17.6631 18.8441 17.7069C18.949 17.7508 19.0385 17.8247 19.1015 17.9193C19.1645 18.014 19.1981 18.1251 19.1981 18.2388C19.1982 18.3152 19.183 18.3908 19.1535 18.4613C19.124 18.5318 19.0808 18.5957 19.0264 18.6494C18.972 18.703 18.9074 18.7453 18.8365 18.7738C18.7656 18.8023 18.6898 18.8164 18.6134 18.8153Z" fill="#212121"/>
<path d="M18.6132 10.4804C17.071 10.482 15.5638 10.9408 14.2823 11.7988C13.0007 12.6568 12.0023 13.8755 11.4132 15.3009C10.8242 16.7262 10.6709 18.2942 10.9728 19.8066C11.2747 21.319 12.0181 22.708 13.1093 23.798C14.2004 24.8879 15.5901 25.63 17.1029 25.9302C18.6156 26.2305 20.1834 26.0756 21.6082 25.485C23.0329 24.8945 24.2505 23.8948 25.1072 22.6123C25.9638 21.3298 26.4211 19.8222 26.4211 18.2799C26.4211 17.255 26.2191 16.2401 25.8266 15.2933C25.4341 14.3464 24.8588 13.4862 24.1337 12.7619C23.4086 12.0375 22.5478 11.4632 21.6005 11.0717C20.6533 10.6802 19.6382 10.4793 18.6132 10.4804ZM18.6132 25.503C17.1847 25.503 15.7882 25.0794 14.6003 24.2857C13.4125 23.492 12.4867 22.3639 11.94 21.0441C11.3933 19.7242 11.2503 18.2719 11.529 16.8708C11.8077 15.4697 12.4956 14.1826 13.5058 13.1725C14.5159 12.1623 15.803 11.4744 17.2041 11.1957C18.6052 10.917 20.0575 11.06 21.3774 11.6067C22.6972 12.1534 23.8253 13.0792 24.619 14.267C25.4127 15.4549 25.8363 16.8514 25.8363 18.2799C25.8254 20.1885 25.0596 22.0151 23.7062 23.3608C22.3528 24.7065 20.5218 25.4618 18.6132 25.4618V25.503Z" fill="#212121"/>
</svg>
