<svg width="36" height="36" viewBox="0 0 36 36" fill="none" xmlns="http://www.w3.org/2000/svg">
<path d="M0.372676 21.766C0.372676 21.8298 0.434773 21.8936 0.434773 21.9575C0.434773 22.0213 0.434777 22.0213 0.496889 22.0851V22.1489C0.496889 22.1489 0.496892 22.2128 0.559004 22.2128L0.62112 22.2766H0.683236H0.745333H0.807449H1.11801C1.86335 22.2766 2.60869 22.2766 3.22981 22.2766C3.85093 22.3404 4.90684 22.4043 5.77641 22.4681C6.27331 22.5319 6.70809 22.5319 7.01865 22.5319C7.63977 23.4894 8.69567 24 9.75158 24C10.7454 24 11.7392 23.5532 12.3603 22.7234L17.8261 22.5958C17.9504 22.5958 20.5591 22.5958 23.1678 22.5958C25.2175 22.5958 26.5218 22.5958 27.2672 22.5958H27.3293C27.3914 22.5958 27.5156 22.5958 27.6398 22.5958H27.8883C28.5094 23.4894 29.5032 24 30.6212 24C32.2982 24 33.7889 22.6596 33.9753 20.9362C34.0374 20.8723 34.0995 20.8085 34.2237 20.7447C34.907 20.1702 35.7144 19.5319 35.9629 18.0638C36.025 17.7447 36.025 16.6596 35.8386 16.3404C35.6523 15.8936 35.5281 15.8298 35.466 15.766H35.4039H35.3417C35.2175 15.766 34.9691 15.766 34.8448 15.766C34.4101 15.5745 33.1678 15.1915 31.9877 14.8085C31.2423 14.5532 30.497 14.2979 29.938 14.1064C29.6895 14.0425 29.4411 13.9149 29.1926 13.8511C28.1367 13.4681 26.087 12.8298 24.4721 12.5106C23.1057 12.2553 20.8696 12 19.3168 12C18.6957 12 18.2609 12.0638 17.8883 12.1277L17.0187 12.383C14.7827 13.0213 13.6025 13.7234 11.8634 15.4468C10.9938 15.4468 7.70188 15.5745 5.77641 15.766C3.91305 15.9574 0.745344 16.7234 0 19.8511C0 19.8511 0 20.1064 0.31056 21.2553L0.372676 21.766ZM2.29813 21.5106C1.42857 21.5106 1.0559 21.5106 0.93168 21.5106H0.745333C0.745333 21.4468 0.683236 21.383 0.683236 21.383C0.683236 21.3192 0.62112 21.2553 0.62112 21.1915C1.42858 21.1277 1.86336 21.0638 2.23604 21.0638C2.42237 21.0638 2.6087 21.0638 2.73293 21C2.79504 21 2.79504 21 2.79504 21.0638C2.85715 21.1915 2.60869 21.5106 2.29813 21.5106ZM3.04349 21.766C2.98137 21.766 2.98137 21.766 2.91925 21.766C2.98137 21.6383 3.1056 21.5107 3.16772 21.383C3.1056 21.5107 3.1056 21.6383 3.04349 21.766ZM9.68948 23.4255C8.19879 23.4255 6.95653 22.1489 6.95653 20.617C6.95653 19.0851 8.19879 17.8085 9.68948 17.8085C11.1802 17.8085 12.4224 19.0851 12.4224 20.617C12.4224 22.1489 11.1802 23.4255 9.68948 23.4255ZM30.5591 23.4255C29.0684 23.4255 27.8262 22.1489 27.8262 20.617C27.8262 19.0851 29.0684 17.8085 30.5591 17.8085C32.0498 17.8085 33.292 19.0851 33.292 20.617C33.292 22.1489 32.1119 23.4255 30.5591 23.4255ZM35.466 17.3617C35.5902 18.8298 34.5964 19.9787 33.9132 20.3617C33.8511 19.5958 33.5405 18.8298 32.9815 18.2553C33.1678 18.3191 33.3542 18.3191 33.5405 18.3191C34.2237 18.3191 34.8448 18.0638 35.2175 17.6809C35.3417 17.5532 35.4039 17.4894 35.466 17.3617ZM34.9069 16.3404C35.0933 16.3404 35.2175 16.3404 35.2175 16.4043C35.2796 16.4681 35.0933 16.7872 35.0933 16.7872C34.907 17.6809 33.8511 17.7447 33.5405 17.7447C33.1678 17.7447 32.8573 17.6809 32.6088 17.5532C32.0498 17.2979 31.3045 17.1064 30.7455 17.1064C30.497 17.1064 30.3107 17.1064 30.1243 17.1702C28.4473 17.3617 27.2051 18.8936 27.2051 20.617C27.2051 21.1277 27.3293 21.5745 27.5156 22.0213C25.7144 22.0213 22.3603 22.0851 19.5653 22.0851C18.9442 22.0851 18.323 22.0851 17.764 22.0851L12.733 22.1489C12.9814 21.7021 13.1056 21.1277 13.1056 20.617C13.1056 18.7021 11.6149 17.1702 9.75158 17.1702C7.88822 17.1702 6.39753 18.7021 6.39753 20.617C6.39753 21.1277 6.52175 21.5745 6.70809 22.0213C5.96275 21.9575 4.40995 21.8298 3.72672 21.7021C3.85095 21.1277 4.03727 20.5532 4.22361 20.1702C5.59007 17.8085 7.45343 17.3617 8.26089 17.1702C9.62736 16.8511 13.7889 16.6596 15.6522 16.6596C15.7764 16.6596 15.8386 16.6596 15.9007 16.6596C16.087 16.6596 16.2733 16.6596 16.3976 16.6596C16.5218 16.8511 16.5839 17.0425 16.646 17.2979C16.7702 17.7447 16.8324 18.2553 16.7702 18.8936C16.7702 19.2766 16.7081 19.6596 16.646 20.0426C16.646 20.2341 16.5839 20.3617 16.5839 20.5532C16.4597 21.3192 16.8324 21.7021 17.0187 21.766C17.1429 21.8298 17.3292 21.8936 17.5777 21.8936V21.6383C17.4535 21.6383 17.1429 21.5106 17.0187 21.2553C16.9566 21.0638 16.9566 20.8723 16.9566 20.6809C16.9566 20.617 16.9566 20.5532 16.9566 20.4894C16.9566 20.234 17.0187 19.9787 17.0808 19.7234C17.1429 19.4681 17.205 19.1489 17.205 18.8936V18.8298C17.205 18.5745 17.2671 18.4468 17.205 18.1277C17.205 17.8085 17.1429 17.4894 17.0808 17.2341C17.0808 17.1702 17.0808 17.0425 17.0187 16.9787C17.0187 16.8511 16.9566 16.7234 16.9566 16.5958C18.5715 16.5958 23.5404 16.4681 25.9628 16.4043H26.7082C26.5839 17.2979 26.087 19.4043 24.2237 20.7447C23.7268 21.0638 23.6026 21.1277 23.0436 21.2553C22.4846 21.3192 21.9255 21.383 21.1802 21.4468C20.5591 21.5106 18.323 21.5745 18.323 21.5745V21.8298C18.323 21.8298 19.5032 21.8298 19.8758 21.8298C20.6212 21.8298 22.5467 21.766 23.2299 21.7021C23.6026 21.6383 24.7827 21.4468 25.8386 20.1702C26.2113 19.7234 26.4597 19.2766 26.7082 18.8298C26.9566 18.3192 27.143 17.8085 27.2672 17.2979C27.3293 17.0425 27.3914 16.7872 27.4535 16.5319C27.4535 16.4681 27.4535 16.4681 27.4535 16.4043C27.9504 16.4043 28.82 16.4043 29.7517 16.3404C30.6833 16.3404 32.1119 16.3404 33.2299 16.2766C34.0374 16.4043 34.6585 16.3404 34.9069 16.3404ZM17.4535 15.766C17.4535 15.9574 17.1429 16.1489 16.646 16.2128H16.4597C16.3976 16.2128 16.2734 16.2128 16.2112 16.2128C16.2112 16.2128 16.2112 16.2128 16.1491 16.2128C16.1491 16.1489 16.2112 16.1489 16.2112 16.0851L16.2733 15.9575C16.3976 15.7021 16.5839 15.5745 16.7081 15.4468C16.8324 15.383 16.8945 15.3192 17.0187 15.2553C17.1429 15.1915 17.5156 15.5106 17.4535 15.766ZM17.4535 14.9362C17.764 14.6809 18.1367 14.4894 18.4473 14.234C18.882 13.9787 19.2547 13.7872 19.6274 13.5957C20.0622 13.4043 20.497 13.2128 20.9317 13.0851L21.056 13.0213H21.1181C21.2423 13.0213 21.3044 13.0213 21.4286 13.0213C21.5529 13.0213 21.7392 13.0213 21.8634 13.0851C21.9876 13.0851 22.1119 13.1489 22.2361 13.1489H22.2982C22.6088 13.2128 22.9193 13.2766 23.2299 13.3404C23.7889 13.4681 24.41 13.5957 25.0311 13.7872L25.2796 13.8511C25.7765 13.9787 26.3355 14.1064 26.7703 14.2979C28.261 14.9362 28.3231 15.1915 28.3231 15.2553C28.3231 15.383 27.8262 15.5106 27.3914 15.5745C26.9566 15.5745 24.41 15.5745 22.0498 15.5745C20.7454 15.5745 19.5032 15.5745 18.6957 15.5745C18.3852 15.5745 18.1367 15.5745 18.0125 15.5745C17.8883 15.383 17.6398 15.1277 17.5777 15.0638C17.5156 15 17.4535 14.9362 17.4535 14.9362ZM21.6771 12.5745C24.6585 12.8298 27.4535 13.7872 29.5653 14.5532C29.6274 14.5532 29.6895 14.617 29.8138 14.617L30.1243 14.7447C30.5591 14.8723 30.9939 15.0638 31.5529 15.1915C32.174 15.383 32.8572 15.5745 33.3541 15.766C33.2299 15.766 33.0436 15.766 32.9194 15.766C31.7392 15.766 30.1864 15.766 29.7517 15.8298C29.7517 15.8298 29.7516 15.8298 29.6895 15.8298H29.5653C29.5032 15.8298 29.4411 15.8298 29.379 15.8298C29.3169 15.8298 29.2548 15.8298 29.1926 15.8298C29.1305 15.8298 28.8821 15.8298 28.4473 15.8298C28.7579 15.7021 29.0063 15.5745 29.0684 15.383C29.1305 15 28.7579 14.4894 25.2175 13.4043C24.5343 13.2128 23.7889 13.0213 23.2299 12.8936C22.9193 12.8298 22.6088 12.766 22.2982 12.7021C22.2361 12.7021 21.4908 12.5745 20.6833 12.4468C21.1802 12.5745 21.5529 12.5745 21.6771 12.5745ZM14.7205 13.7872C16.7702 12.8298 17.764 12.5745 18.1367 12.5745C18.1988 12.5745 18.1988 12.5745 18.2609 12.5745C18.4473 12.5745 18.8821 12.7021 19.2547 12.766C19.5032 12.8298 19.6895 12.8298 19.8137 12.8936H19.8758C19.0063 13.3404 16.646 14.6809 16.087 15.3192L15.7764 15.5745C15.7143 15.5745 15.5901 15.5745 15.2174 15.5745C14.969 15.5745 14.5963 15.5745 14.2858 15.5745C13.9131 15.5745 13.4783 15.5745 13.1056 15.5745C12.8572 15.5745 12.6087 15.5745 12.4845 15.5745C12.8572 15.1277 13.6025 14.2979 14.7205 13.7872ZM3.04349 16.9149C4.72051 16.0851 9.50314 16.0213 9.56525 16.0213C9.75158 16.0213 11.3044 15.9575 12.9193 15.9575C14.2236 15.9575 15.2174 15.9574 15.7764 16.0213V16.0851H15.4038C14.969 16.0851 14.41 16.0851 13.7889 16.0851C10.7454 16.0851 8.63357 16.3404 7.45344 16.8511C4.6584 18 3.91305 19.4681 3.60249 20.0426C3.47827 20.2341 3.41615 20.4894 3.29193 20.8085C3.29193 20.617 3.16771 20.5532 3.04349 20.5532C2.36025 20.617 1.92548 20.6809 1.61492 20.6809C1.24224 20.7447 0.993785 20.7447 0.496889 20.7447C0.434777 20.4255 0.372676 20.2979 0.372676 20.1064H0.496889C0.621113 20.1064 0.93168 20.1064 1.24224 20.1702C1.67702 20.234 2.23602 20.234 2.60869 20.234C3.10559 20.234 3.29193 20.1702 3.35405 20.1064C3.54038 19.9787 3.54038 19.7234 3.60249 19.4043C3.6646 19.0851 3.72671 18.7021 3.91305 18.3191C4.03727 18 4.09939 17.7447 3.97517 17.5532C3.91305 17.4255 3.72671 17.3617 3.60249 17.3617H3.41616C2.98138 17.3617 2.17392 17.3617 1.49068 18C1.92547 17.4894 2.42236 17.1702 3.04349 16.9149ZM2.73293 19.5319C2.6087 19.5319 2.60871 19.4681 2.5466 19.4043C2.48448 19.2766 2.42237 19.1489 2.48448 18.9574C2.54659 18.7021 2.73292 18.4468 2.98137 18.5107C3.04348 18.5107 3.1056 18.5745 3.1056 18.5745L3.22981 18.7021C3.1677 18.9575 3.1056 19.2766 3.04349 19.5319H2.73293ZM3.04349 19.5957C3.04349 19.5957 3.04349 19.6596 3.04349 19.5957C3.04349 19.7234 2.98137 19.7872 2.67081 19.7872C2.73292 19.7872 2.73293 19.7872 2.79504 19.7234L3.04349 19.5957ZM1.42857 18.383C1.86335 17.9362 2.54659 17.7447 3.35405 17.8085C3.41616 17.8723 3.35404 18.1915 3.22981 18.4468C3.1677 18.1277 2.91925 17.9362 2.60869 17.8724C2.17391 17.8085 1.80124 18.1277 1.67701 18.6383C1.6149 18.5745 1.55279 18.5745 1.42857 18.5745C1.24223 18.5745 1.05591 18.766 0.993796 19.0851C0.993796 19.2766 0.993785 19.4043 1.11801 19.5319C1.18012 19.5957 1.24223 19.6596 1.36645 19.6596C1.49068 19.6596 1.55279 19.5957 1.67701 19.5319C1.67701 19.5319 1.67703 19.8511 1.61492 19.8511C1.36647 19.8511 1.05589 19.7872 0.745333 19.7872C0.869557 19.2766 1.0559 18.766 1.42857 18.383ZM1.73913 19.2128L1.61492 19.2766C1.61492 19.2766 1.61491 19.2766 1.5528 19.2766C1.5528 19.2766 1.5528 19.2128 1.5528 19.0851C1.5528 19.0213 1.5528 19.0213 1.61492 19.0213C1.67703 19.0213 1.67701 19.0213 1.67701 19.0213L1.73913 19.2128C1.73913 19.2128 1.73913 19.1489 1.73913 19.2128ZM0.869565 18.766C0.621116 19.2766 0.434788 19.9787 0.372676 19.9787V20.0426C0.372676 19.9787 0.372676 19.9787 0.372676 19.9149C0.434788 19.4681 0.621116 19.0851 0.869565 18.766Z" fill="#212121"/>
</svg>
