<svg width="36" height="36" viewBox="0 0 36 36" fill="none" xmlns="http://www.w3.org/2000/svg">
<g clip-path="url(#clip0_592_1021)">
<path d="M18.0084 36C14.4494 36.0017 10.9697 34.9482 8.00929 32.9729C5.04884 30.9975 2.74041 28.1888 1.37578 24.9018C0.0111376 21.6148 -0.348464 17.9971 0.342418 14.5058C1.0333 11.0145 2.74366 7.80638 5.25732 5.28687C7.77099 2.76736 10.9751 1.04956 14.4648 0.350578C17.9545 -0.348408 21.5731 0.00279309 24.8632 1.3598C28.1533 2.7168 30.9674 5.01869 32.9496 7.97455C34.9319 10.9304 35.9934 14.4076 36 17.9666C36.0022 22.7428 34.1087 27.3246 30.7354 30.7058C27.362 34.087 22.7846 35.9912 18.0084 36ZM18.0084 0.869895C14.6206 0.868243 11.3084 1.87165 8.49113 3.75311C5.67383 5.63458 3.47801 8.30954 2.18156 11.4394C0.885112 14.5694 0.54632 18.0135 1.20806 21.3361C1.8698 24.6586 3.50232 27.7101 5.89902 30.1045C8.29572 32.4988 11.3489 34.1284 14.672 34.7869C17.9952 35.4454 21.439 35.1032 24.5677 33.8037C27.6963 32.5042 30.3691 30.3057 32.2478 27.4866C34.1265 24.6675 35.1267 21.3543 35.1217 17.9666C35.1063 13.4356 33.2972 9.09522 30.0902 5.8945C26.8832 2.69378 22.5393 0.893231 18.0084 0.886623V0.869895Z" fill="#212121"/>
<path d="M32.9807 16.5864C32.8839 16.5852 32.7901 16.553 32.713 16.4944C24.3487 9.80297 11.5764 11.1078 3.34592 15.842C3.27364 15.8837 3.19091 15.9036 3.10759 15.8996C3.02426 15.8955 2.94387 15.8676 2.87599 15.8191C2.8081 15.7706 2.75559 15.7036 2.72472 15.6261C2.69385 15.5486 2.68592 15.4639 2.70187 15.382C3.30411 11.8188 4.16563 8.44795 6.29853 7.93773C6.35642 7.9253 6.41629 7.9253 6.47418 7.93773C7.36916 8.07156 8.84964 7.01765 10.4221 5.9052C12.5801 4.38289 15.2651 2.47583 18.0086 2.47583C20.7521 2.47583 22.8515 3.93122 24.9259 5.34479C26.2674 6.40686 27.805 7.19416 29.451 7.66171C32.1777 8.31412 33.1313 13.7844 33.4156 16.1013C33.4293 16.1874 33.4156 16.2756 33.3766 16.3536C33.3376 16.4316 33.2752 16.4955 33.1982 16.5362C33.1319 16.5732 33.0565 16.5906 32.9807 16.5864ZM18.4101 11.0158C23.3965 10.917 28.2891 12.3793 32.4036 15.198C31.9017 12.0613 30.8645 8.92472 29.2669 8.5065C27.5093 8.02782 25.8673 7.19687 24.4407 6.06412C22.4668 4.72583 20.4259 3.34572 18.0086 3.34572C15.5913 3.34572 13.0904 5.0855 10.9324 6.61617C9.17585 7.85409 7.66191 8.92472 6.44072 8.80762C4.86823 9.27602 4.10708 12.5465 3.72232 14.6626C8.25695 12.2921 13.2932 11.0416 18.4101 11.0158Z" fill="#212121"/>
<path d="M14.3199 33.0809H14.2111C11.5006 32.3985 9.02462 30.9969 7.04451 29.0242C5.0644 27.0514 3.65363 24.5806 2.96113 21.8727C2.93986 21.7889 2.94357 21.7006 2.97181 21.6189C3.00005 21.5372 3.05158 21.4655 3.12005 21.4127C3.19288 21.3675 3.27689 21.3435 3.36261 21.3435C3.44833 21.3435 3.53234 21.3675 3.60518 21.4127C4.74391 21.9234 5.97122 22.2075 7.21856 22.2491C9.56057 22.5251 11.9779 22.8011 13.4667 24.7082C14.7632 26.3309 15.1563 28.9907 14.7632 32.6877C14.7575 32.7498 14.738 32.8098 14.7062 32.8633C14.6743 32.9169 14.6309 32.9626 14.5792 32.9972C14.5055 33.0551 14.4135 33.0848 14.3199 33.0809ZM4.07358 22.5418C4.81196 24.8152 6.09616 26.8731 7.81384 28.5354C9.53152 30.1976 11.6304 31.4137 13.9267 32.0772C14.2111 28.8904 13.818 26.5818 12.7641 25.2268C11.5011 23.6041 9.26782 23.3448 7.10983 23.1022C6.08147 23.0181 5.06423 22.8303 4.07358 22.5418Z" fill="#212121"/>
<path d="M17.5987 13.8345C16.4862 13.8345 15.3738 13.9516 14.253 14.0771C13.1321 14.2026 12.0364 14.3782 10.9072 14.5706C8.69906 14.9721 6.51597 15.5325 4.33289 16.1347C6.38552 15.1517 8.53208 14.3783 10.74 13.8262C11.844 13.5418 12.9732 13.3327 14.0857 13.157C15.1981 12.9814 16.3608 12.8977 17.5151 12.8476C18.6621 12.8169 19.81 12.8532 20.9528 12.9563C22.0975 13.0644 23.2326 13.2573 24.3487 13.5334C26.6102 14.0573 28.7508 15.0084 30.6554 16.3355C28.6266 15.3768 26.4811 14.6879 24.2734 14.2862C23.1674 14.0842 22.0501 13.9501 20.9277 13.8847C19.8197 13.8098 18.7085 13.793 17.5987 13.8345Z" fill="#212121"/>
<path d="M21.555 33.1144C21.4623 33.1123 21.3721 33.0832 21.2957 33.0307C21.2448 32.9932 21.2023 32.9456 21.1706 32.891C21.1389 32.8363 21.1189 32.7757 21.1117 32.7129C20.7604 29.1329 21.1953 26.5149 22.4332 24.9341C23.9137 23.0186 26.331 22.7426 28.673 22.475C29.9377 22.4279 31.1803 22.1293 32.3282 21.5967C32.4036 21.5553 32.4894 21.5367 32.5752 21.5433C32.6609 21.5498 32.7429 21.5811 32.8112 21.6334C32.8795 21.6857 32.931 21.7568 32.9596 21.8379C32.9882 21.919 32.9926 22.0066 32.9723 22.0902C32.2428 24.7694 30.808 27.2038 28.8175 29.1399C26.827 31.0759 24.3537 32.4427 21.6554 33.0976L21.555 33.1144ZM31.8598 22.7761C30.8544 23.076 29.8197 23.2667 28.7734 23.3448C26.6154 23.5958 24.3821 23.8467 23.1191 25.4694C22.0903 26.7909 21.6972 29.0326 21.9397 32.1608C24.2306 31.5187 26.3307 30.3288 28.059 28.6938C29.7873 27.0588 31.0917 25.0278 31.8598 22.7761Z" fill="#212121"/>
<path d="M6.18147 21.0028C6.5746 21.0028 7.20192 21.0781 7.64523 21.1199L7.69542 19.9406C7.27441 19.9672 6.85987 20.0575 6.46586 20.2082C6.34536 20.2978 6.25405 20.4211 6.20345 20.5625C6.15284 20.7039 6.1452 20.8571 6.18147 21.0028Z" fill="#212121"/>
<path d="M9.19263 21.3625C9.69226 21.4789 10.1775 21.65 10.6397 21.8728L10.8404 21.9229L11.0495 20.3672L9.25954 19.9824L9.19263 21.3625Z" fill="#212121"/>
<path d="M14.0858 21.7222C13.7219 21.2214 13.1856 20.8729 12.5802 20.7435L12.2039 22.4164C12.9125 22.7229 13.5787 23.1192 14.1862 23.5958C14.311 23.2959 14.3668 22.9718 14.3494 22.6475C14.332 22.3232 14.2419 22.007 14.0858 21.7222Z" fill="#212121"/>
<path d="M29.3171 20.2082C28.92 20.0584 28.5028 19.9682 28.0792 19.9406L28.1461 21.1199C28.5894 21.0781 29.2168 21.0112 29.6183 21.0028C29.6436 20.8555 29.6291 20.7042 29.5761 20.5644C29.5232 20.4247 29.4337 20.3017 29.3171 20.2082Z" fill="#212121"/>
<path d="M26.5233 19.9824L24.725 20.3672L24.9341 21.9229L25.1348 21.8728C25.5969 21.65 26.0822 21.4789 26.5818 21.3625L26.5233 19.9824Z" fill="#212121"/>
<path d="M21.5884 23.5706C22.1959 23.0941 22.8621 22.6977 23.5707 22.3912L23.1943 20.7184C22.589 20.8477 22.0527 21.1963 21.6888 21.697C21.5327 21.9818 21.4426 22.2981 21.4252 22.6224C21.4078 22.9467 21.4636 23.2708 21.5884 23.5706Z" fill="#212121"/>
</g>
<defs>
<clipPath id="clip0_592_1021">
<rect width="36" height="36" fill="white"/>
</clipPath>
</defs>
</svg>
