<svg width="72" height="72" viewBox="0 0 72 72" fill="none" xmlns="http://www.w3.org/2000/svg">
<circle cx="36" cy="36" r="36" fill="#212121"/>
<path d="M56 36.0067C56.0022 32.6797 55.1739 29.4048 53.5901 26.4788C52.0063 23.5527 49.7172 21.068 46.9301 19.2498C44.143 17.4316 40.9461 16.3374 37.6291 16.0664C34.3121 15.7954 30.9799 16.3562 27.9345 17.6979C24.889 19.0396 22.2267 21.1198 20.1887 23.7499C18.1507 26.3801 16.8014 29.4771 16.2632 32.7603C15.7251 36.0434 16.015 39.4089 17.1066 42.5518C18.1983 45.6947 20.0573 48.5155 22.5151 50.7587C22.5825 50.8375 22.6601 50.907 22.7459 50.9653C26.3987 54.2087 31.1148 56.0001 36.0005 56C40.8862 55.9999 45.6022 54.2083 49.2549 50.9647C49.34 50.9067 49.417 50.8378 49.4839 50.7597C51.5376 48.8896 53.178 46.6114 54.3001 44.0709C55.4221 41.5305 56.0011 38.7838 56 36.0067ZM18.3529 36.0067C18.3508 33.1273 19.0536 30.2912 20.4002 27.7459C21.7468 25.2005 23.6961 23.0234 26.0781 21.4045C28.46 19.7856 31.2022 18.7741 34.0651 18.4584C36.9281 18.1427 39.8248 18.5324 42.5025 19.5933C45.1801 20.6543 47.5573 22.3544 49.4265 24.5451C51.2957 26.7358 52.6 29.3506 53.2257 32.1612C53.8513 34.9719 53.7793 37.8928 53.0159 40.6692C52.2524 43.4456 50.8208 45.993 48.8459 48.089C46.9968 45.2158 44.2338 43.0487 41.0022 41.9371C42.6131 40.8638 43.8358 39.3008 44.4897 37.4793C45.1435 35.6577 45.1936 33.6741 44.6328 31.8218C44.0719 29.9695 42.9297 28.3468 41.3751 27.1935C39.8205 26.0402 37.9359 25.4175 36 25.4175C34.0641 25.4175 32.1795 26.0402 30.6249 27.1935C29.0703 28.3468 27.9281 29.9695 27.3672 31.8218C26.8063 33.6741 26.8565 35.6577 27.5103 37.4793C28.1642 39.3008 29.3869 40.8638 30.9978 41.9371C27.7662 43.0487 25.0032 45.2157 23.1541 48.089C20.0678 44.823 18.3498 40.4995 18.3529 36.0067ZM29.3333 34.4386C29.3333 33.1205 29.7243 31.832 30.4569 30.736C31.1894 29.64 32.2306 28.7858 33.4488 28.2814C34.6669 27.777 36.0074 27.645 37.3006 27.9022C38.5938 28.1593 39.7817 28.794 40.714 29.7261C41.6464 30.6581 42.2813 31.8456 42.5386 33.1384C42.7958 34.4312 42.6638 35.7712 42.1592 36.989C41.6546 38.2067 40.8001 39.2476 39.7038 39.9799C38.6075 40.7122 37.3185 41.103 36 41.103C34.2325 41.101 32.538 40.3982 31.2882 39.1488C30.0384 37.8994 29.3354 36.2055 29.3333 34.4386ZM24.9104 49.7184C26.0621 47.8075 27.6883 46.2266 29.6314 45.1292C31.5744 44.0318 33.7682 43.4551 35.9999 43.4551C38.2316 43.4551 40.4254 44.0318 42.3684 45.1292C44.3115 46.2266 45.9377 47.8075 47.0894 49.7184C43.9529 52.2606 40.0377 53.6479 35.9999 53.6479C31.9621 53.6479 28.0469 52.2606 24.9104 49.7184Z" fill="#FFCE1B"/>
</svg>
