<svg width="36" height="36" viewBox="0 0 36 36" fill="none" xmlns="http://www.w3.org/2000/svg">
<path d="M17.7813 4.71545C15.1132 4.71545 12.505 5.50663 10.2866 6.98896C8.06814 8.47128 6.33907 10.5782 5.31803 13.0432C4.29698 15.5082 4.02983 18.2206 4.55035 20.8375C5.07088 23.4543 6.35569 25.858 8.24233 27.7447C10.129 29.6313 12.5327 30.9161 15.1495 31.4367C17.7664 31.9572 20.4788 31.69 22.9438 30.669C25.4088 29.6479 27.5157 27.9189 28.998 25.7004C30.4804 23.482 31.2716 20.8738 31.2716 18.2057C31.2692 14.6285 29.8472 11.1986 27.3178 8.6692C24.7884 6.1398 21.3585 4.71777 17.7813 4.71545ZM17.7813 30.3565C15.3757 30.3582 13.0235 29.6463 11.0226 28.3109C9.02159 26.9754 7.46171 25.0764 6.5403 22.8542C5.61888 20.632 5.37734 18.1864 5.84624 15.8268C6.31514 13.4673 7.47341 11.2999 9.17448 9.5988C10.8756 7.89772 13.043 6.73945 15.4025 6.27055C17.7621 5.80165 20.2077 6.04319 22.4299 6.96461C24.6521 7.88602 26.5511 9.4459 27.8866 11.4469C29.222 13.4478 29.9339 15.8 29.9322 18.2057C29.9275 21.4268 28.6459 24.5148 26.3682 26.7925C24.0904 29.0702 21.0025 30.3518 17.7813 30.3565Z" fill="#212121"/>
<path d="M17.7813 7.0354C16.059 7.04801 14.3589 7.42506 12.7927 8.14175C11.2266 8.85844 9.82984 9.89853 8.69443 11.1936C7.8489 12.1472 7.22386 13.2754 6.86376 14.498C6.50366 15.7205 6.41733 17.0074 6.61093 18.267C6.94359 20.2717 7.78399 20.6044 12.2486 20.6044H15.5752H16.5207H17.7813H18.7442C19.9873 20.6044 21.0729 20.6044 22.0446 20.6044C26.019 20.6044 27.6735 20.6044 28.4526 19.834C28.6373 19.6236 28.7768 19.3775 28.8627 19.111C28.9485 18.8445 28.9788 18.5632 28.9516 18.2845C28.9597 16.8117 28.6768 15.3517 28.1193 13.9884C27.5618 12.625 26.7405 11.3852 25.7027 10.3401C24.6649 9.29493 23.4309 8.46499 22.0715 7.89789C20.7121 7.33079 19.2542 7.03768 17.7813 7.0354ZM27.9799 19.2913C27.3934 19.8778 25.6075 19.8778 22.0446 19.869H19.0857C19.0986 19.7644 19.0986 19.6585 19.0857 19.5539C19.0868 19.3566 19.0489 19.161 18.9742 18.9783C18.8995 18.7957 18.7894 18.6297 18.6503 18.4897C18.5112 18.3498 18.3458 18.2387 18.1636 18.163C17.9814 18.0872 17.786 18.0482 17.5887 18.0482C17.402 18.0496 17.2175 18.0883 17.0459 18.162C16.8971 17.8643 16.7395 17.5404 16.5644 17.2078C16.3894 16.8751 16.1005 16.3324 15.8641 15.9209C15.7416 15.7021 15.6365 15.4744 15.5314 15.2468C15.4335 15.0285 15.3193 14.8179 15.19 14.6165C14.9217 14.2747 14.5994 13.979 14.2358 13.7411C14.0695 13.6361 13.9119 13.5485 13.7631 13.4697L13.3429 13.2947L13.0453 13.2071H12.9315L12.7739 13.3297V13.4435C12.7739 13.5223 12.7739 13.6273 12.7739 13.7499C12.776 13.9001 12.7936 14.0497 12.8264 14.1963C12.8557 14.3768 12.8966 14.5552 12.949 14.7303C13.0721 15.1449 13.2645 15.5355 13.518 15.8859C13.6701 16.0744 13.8434 16.2447 14.0345 16.3936C14.2183 16.56 14.4109 16.7263 14.586 16.9014C14.9362 17.2515 15.2776 17.6105 15.619 17.9256C15.9604 18.2408 16.1617 18.4421 16.4069 18.661C16.2087 18.9103 16.098 19.2179 16.0917 19.5364C16.0928 19.6544 16.1075 19.7719 16.1355 19.8866H15.5314C8.1079 19.9916 7.53887 19.9566 7.23248 18.1357C7.05473 16.9732 7.13598 15.7858 7.47043 14.6584C7.80487 13.531 8.38425 12.4913 9.16715 11.6138C10.2383 10.3898 11.5567 9.40656 13.0354 8.72905C14.5142 8.05154 16.1197 7.6951 17.7463 7.68322C20.5324 7.68322 23.2044 8.78998 25.1744 10.7601C27.1445 12.7301 28.2513 15.4021 28.2513 18.1882C28.2822 18.3795 28.2741 18.5751 28.2275 18.7631C28.1809 18.9512 28.0966 19.1279 27.9799 19.2825V19.2913Z" fill="#212121"/>
<path d="M29.3368 1.97546H6.66343C5.42594 1.97546 4.23912 2.46706 3.36408 3.3421C2.48904 4.21715 1.99745 5.40395 1.99745 6.64145V29.3236C1.99283 29.9392 2.1101 30.5498 2.34252 31.1199C2.57494 31.6901 2.9179 32.2086 3.35164 32.6456C3.78538 33.0825 4.30131 33.4294 4.86971 33.6661C5.43811 33.9027 6.04773 34.0246 6.66343 34.0246H29.3368C30.5743 34.0246 31.7611 33.533 32.6361 32.6579C33.5112 31.7829 34.0028 30.5961 34.0028 29.3586V6.64145C34.0028 5.40395 33.5112 4.21715 32.6361 3.3421C31.7611 2.46706 30.5743 1.97546 29.3368 1.97546ZM32.6721 29.3236C32.6698 30.2066 32.3174 31.0527 31.6921 31.6763C31.0669 32.2999 30.2199 32.6501 29.3368 32.6501H6.66343C5.78036 32.6501 4.93332 32.2999 4.30807 31.6763C3.68283 31.0527 3.3304 30.2066 3.32808 29.3236V6.64145C3.3304 5.75838 3.68283 4.91226 4.30807 4.28865C4.93332 3.66505 5.78036 3.31485 6.66343 3.31485H29.3368C30.2199 3.31485 31.0669 3.66505 31.6921 4.28865C32.3174 4.91226 32.6698 5.75838 32.6721 6.64145V29.3236Z" fill="#212121"/>
<path d="M6.12951 6.53648C6.25372 6.51377 6.36842 6.45476 6.45912 6.36692C6.54983 6.27908 6.61248 6.16632 6.63917 6.0429C6.66585 5.91948 6.65537 5.79093 6.60906 5.67346C6.56275 5.55599 6.48267 5.45486 6.37894 5.38286C6.27521 5.31086 6.15248 5.27121 6.02623 5.26891C5.89998 5.2666 5.77587 5.30173 5.66958 5.36989C5.56328 5.43805 5.47957 5.53618 5.42899 5.65187C5.37841 5.76757 5.36325 5.89566 5.3854 6.01998C5.40017 6.10284 5.43116 6.18197 5.47659 6.25282C5.52202 6.32367 5.58101 6.38484 5.65015 6.43283C5.71929 6.48082 5.79722 6.51469 5.87949 6.53248C5.96175 6.55026 6.04672 6.55163 6.12951 6.53648Z" fill="#212121"/>
<path d="M30.0984 6.53643C30.2569 6.54993 30.4147 6.50387 30.541 6.40727C30.6673 6.31066 30.753 6.17044 30.7815 6.01399C30.8099 5.85754 30.779 5.69611 30.6948 5.56122C30.6106 5.42634 30.4791 5.3277 30.3261 5.28457C30.2404 5.26043 30.1506 5.25445 30.0624 5.26703C29.9743 5.27961 29.8898 5.31045 29.8143 5.3576C29.7388 5.40474 29.6739 5.46715 29.6239 5.54081C29.574 5.61447 29.5399 5.69777 29.524 5.78535C29.5081 5.87294 29.5106 5.9629 29.5315 6.04944C29.5523 6.13598 29.591 6.21721 29.6451 6.28792C29.6992 6.35863 29.7675 6.41727 29.8455 6.46006C29.9236 6.50285 30.0097 6.52886 30.0984 6.53643Z" fill="#212121"/>
<path d="M5.91055 29.6475C5.82778 29.6619 5.74865 29.6924 5.67767 29.7374C5.6067 29.7823 5.54528 29.8408 5.49691 29.9095C5.44854 29.9782 5.41418 30.0557 5.39578 30.1377C5.37738 30.2197 5.37531 30.3045 5.38968 30.3872C5.40405 30.47 5.43458 30.5491 5.47953 30.6201C5.52448 30.6911 5.58297 30.7525 5.65166 30.8009C5.72035 30.8492 5.7979 30.8836 5.87987 30.902C5.96184 30.9204 6.04663 30.9225 6.12941 30.9081C6.29657 30.8791 6.44536 30.7848 6.54305 30.6461C6.64073 30.5074 6.6793 30.3355 6.65028 30.1684C6.62126 30.0012 6.52702 29.8524 6.38829 29.7547C6.24957 29.657 6.07772 29.6185 5.91055 29.6475Z" fill="#212121"/>
<path d="M30.3259 29.6475C30.159 29.6193 29.9877 29.6575 29.8486 29.7541C29.7095 29.8506 29.6138 29.9977 29.5818 30.164C29.5597 30.2883 29.5748 30.4164 29.6254 30.5321C29.676 30.6478 29.7597 30.7459 29.866 30.8141C29.9723 30.8822 30.0964 30.9174 30.2226 30.9151C30.3489 30.9128 30.4716 30.8731 30.5754 30.8011C30.6791 30.7291 30.7592 30.628 30.8055 30.5105C30.8518 30.393 30.8623 30.2645 30.8356 30.1411C30.8089 30.0176 30.7462 29.9049 30.6555 29.817C30.5648 29.7292 30.4501 29.6702 30.3259 29.6475Z" fill="#212121"/>
</svg>
