<svg width="36" height="36" viewBox="0 0 36 36" fill="none" xmlns="http://www.w3.org/2000/svg">
<path d="M33.2584 33.3409C33.1779 33.3431 33.0994 33.3159 33.0375 33.2644L25.8651 28.0805C25.7996 28.0345 25.7506 27.9688 25.7253 27.8929C25.7 27.817 25.6996 27.735 25.7244 27.659C25.7491 27.5829 25.7976 27.5167 25.8627 27.4703C25.9277 27.4238 26.006 27.3994 26.086 27.4006H28.7289L27.7431 24.8512H22.7038C22.6304 24.8526 22.5583 24.8324 22.4963 24.7931C22.4344 24.7539 22.3853 24.6972 22.3553 24.6303C22.3264 24.5629 22.3174 24.4886 22.3294 24.4163C22.3415 24.344 22.3741 24.2767 22.4233 24.2224C22.9803 23.616 23.3699 22.875 23.5536 22.0723C23.5745 21.9892 23.6227 21.9156 23.6906 21.8632C23.7584 21.8108 23.8418 21.7827 23.9275 21.7834H26.6299L25.7801 19.3529H23.732C23.674 19.3523 23.6169 19.3381 23.5652 19.3115C23.5136 19.285 23.4689 19.2468 23.4346 19.2C23.3988 19.1535 23.3748 19.0992 23.3644 19.0415C23.3541 18.9838 23.3577 18.9245 23.3751 18.8685L24.9218 13.6932C24.9393 13.6312 24.9729 13.575 25.0192 13.5303C25.0655 13.4855 25.1227 13.4537 25.1852 13.4382C25.249 13.4217 25.316 13.4216 25.3799 13.438C25.4438 13.4543 25.5025 13.4866 25.5506 13.5317L30.913 18.741C30.9667 18.7943 31.0035 18.8622 31.0186 18.9364C31.0337 19.0105 31.0265 19.0874 30.9979 19.1575C30.9705 19.2276 30.9227 19.2878 30.8605 19.3303C30.7983 19.3727 30.7248 19.3954 30.6495 19.3954H28.9074L30.7175 23.449L31.1424 24.3498L32.6466 27.4601H35.6294C35.6927 27.4615 35.7549 27.4775 35.811 27.507C35.867 27.5365 35.9154 27.5787 35.9523 27.6301C35.9836 27.6859 36 27.7488 36 27.8128C36 27.8768 35.9836 27.9397 35.9523 27.9955L33.5729 33.1624C33.5494 33.2125 33.5152 33.2568 33.4726 33.2921C33.4299 33.3273 33.38 33.3527 33.3264 33.3664L33.2584 33.3409ZM27.2502 28.157L33.1055 32.4061L35.0515 28.157H32.4256C32.3549 28.1565 32.2856 28.1364 32.2256 28.0989C32.1656 28.0614 32.1171 28.0079 32.0857 27.9445L29.8847 23.3556L29.3918 22.2933L27.9896 19.115C27.9605 19.0584 27.9454 18.9958 27.9454 18.9323C27.9454 18.8687 27.9605 18.8061 27.9896 18.7496C28.0242 18.6978 28.0709 18.6552 28.1257 18.6256C28.1805 18.596 28.2417 18.5802 28.304 18.5796H29.6977L25.4486 14.4495L24.2249 18.5456H26.0265C26.104 18.5457 26.1796 18.5693 26.2433 18.6133C26.307 18.6573 26.3559 18.7197 26.3834 18.7921L27.4882 21.9789C27.5087 22.0348 27.5156 22.0948 27.5082 22.154C27.5008 22.2131 27.4794 22.2696 27.4457 22.3188C27.4092 22.368 27.3618 22.4082 27.3073 22.4362C27.2528 22.4642 27.1926 22.4793 27.1313 22.4802H24.1909C24.0267 23.0365 23.7773 23.564 23.4516 24.0439H27.9811C28.0569 24.0414 28.1316 24.0631 28.1942 24.1059C28.2569 24.1487 28.3043 24.2103 28.3295 24.2818L29.6042 27.6131C29.6248 27.6705 29.6317 27.7319 29.6243 27.7924C29.6169 27.8529 29.5955 27.9108 29.5617 27.9615C29.5267 28.0123 29.4797 28.0536 29.4248 28.0818C29.3699 28.1099 29.309 28.1241 29.2473 28.123H27.2247L27.2502 28.157Z" fill="#212121"/>
<path d="M18.0974 33.341C18.0443 33.3408 17.9918 33.3294 17.9434 33.3074C17.8951 33.2854 17.852 33.2534 17.817 33.2135L12.9645 28.0211C12.916 27.9669 12.8839 27.9 12.8721 27.8282C12.8602 27.7565 12.8691 27.6828 12.8976 27.6159C12.9262 27.5489 12.9732 27.4916 13.0332 27.4505C13.0932 27.4093 13.1637 27.3862 13.2365 27.3837H16.0663L16.1173 26.0325C16.1211 25.9784 16.1359 25.9257 16.1607 25.8775C16.1855 25.8292 16.2199 25.7866 16.2618 25.7521C16.3064 25.719 16.3573 25.6952 16.4113 25.6821C16.4653 25.6689 16.5214 25.6667 16.5762 25.6756C17.5032 25.8753 18.4621 25.8753 19.3891 25.6756C19.442 25.6647 19.4966 25.6651 19.5494 25.6768C19.6021 25.6886 19.6517 25.7113 19.695 25.7436C19.7369 25.7781 19.7713 25.8207 19.7961 25.869C19.821 25.9172 19.8357 25.9699 19.8395 26.024L19.933 27.3752H22.7969C22.8688 27.3755 22.9391 27.3965 22.9994 27.4357C23.0597 27.4749 23.1074 27.5306 23.1368 27.5962C23.1658 27.663 23.1757 27.7366 23.1652 27.8086C23.1547 27.8807 23.1242 27.9484 23.0773 28.0041L18.3778 33.1965C18.3422 33.2356 18.2989 33.2671 18.2507 33.289C18.2025 33.3109 18.1503 33.3228 18.0974 33.3239V33.341ZM14.1033 28.1231L18.0889 32.3722L21.947 28.1231H19.5761C19.4804 28.1212 19.3889 28.0835 19.3197 28.0174C19.2504 27.9513 19.2085 27.8617 19.2022 27.7662L19.1172 26.4829C18.368 26.5976 17.6058 26.5976 16.8567 26.4829L16.8057 27.7577C16.8035 27.8554 16.7631 27.9483 16.6932 28.0166C16.6233 28.0849 16.5295 28.1231 16.4318 28.1231H14.1033Z" fill="#212121"/>
<path d="M2.93705 33.5504H2.85207C2.79772 33.5388 2.74663 33.5153 2.70253 33.4814C2.65843 33.4476 2.62243 33.4044 2.59713 33.3549L0.0476931 28.1116C0.0164304 28.0558 0 27.9929 0 27.9289C0 27.8649 0.0164304 27.802 0.0476931 27.7462C0.0820986 27.6916 0.129746 27.6466 0.186208 27.6154C0.24267 27.5842 0.306116 27.5678 0.370626 27.5677H3.31948L5.31652 23.1317L5.77543 22.0609L6.88868 19.3925H5.13807C5.06261 19.3939 4.98851 19.3724 4.92549 19.3309C4.86246 19.2894 4.81348 19.2298 4.78497 19.1599C4.75647 19.09 4.74978 19.0131 4.76578 18.9394C4.78178 18.8656 4.81973 18.7984 4.87463 18.7466L10.1265 13.5543C10.1723 13.5084 10.2295 13.4756 10.2923 13.4592C10.355 13.4428 10.421 13.4433 10.4834 13.4608C10.5458 13.4758 10.6033 13.5062 10.6509 13.5493C10.6984 13.5923 10.7343 13.6467 10.7554 13.7073L12.455 18.9506C12.471 19.0067 12.474 19.0658 12.4637 19.1232C12.4534 19.1807 12.43 19.235 12.3955 19.282C12.3614 19.3311 12.3155 19.3708 12.262 19.3975C12.2086 19.4243 12.1493 19.4371 12.0895 19.435H10.033L9.25116 21.874H12.132C12.2189 21.8737 12.3032 21.903 12.3712 21.9571C12.4391 22.0112 12.4867 22.0867 12.506 22.1714C12.6852 22.9747 13.0687 23.7181 13.6192 24.3299C13.6662 24.3856 13.6966 24.4533 13.7071 24.5254C13.7176 24.5975 13.7078 24.6711 13.6787 24.7378C13.6493 24.8035 13.6016 24.8592 13.5413 24.8984C13.481 24.9376 13.4107 24.9585 13.3388 24.9588H8.23988L7.3221 27.5592H10.0075C10.0863 27.5587 10.1632 27.5831 10.2273 27.6289C10.2914 27.6746 10.3394 27.7395 10.3644 27.8142C10.3887 27.8896 10.3896 27.9706 10.3668 28.0464C10.344 28.1223 10.2988 28.1895 10.2369 28.2391L3.22599 33.4569C3.18704 33.4918 3.14121 33.5182 3.09144 33.5343C3.04167 33.5504 2.98907 33.5559 2.93705 33.5504ZM0.99948 28.307L3.08153 32.5986L8.81778 28.3496H6.72722C6.66712 28.3486 6.60811 28.3334 6.55496 28.3054C6.50181 28.2773 6.45601 28.2371 6.4213 28.1881C6.38754 28.1373 6.36612 28.0794 6.35874 28.0189C6.35136 27.9584 6.35822 27.897 6.37879 27.8397L7.55154 24.4914C7.57803 24.4183 7.62665 24.3553 7.69062 24.3111C7.75459 24.267 7.83074 24.2438 7.90847 24.2449H12.5315C12.2075 23.7602 11.9636 23.2265 11.8091 22.6643H8.69879C8.63978 22.6625 8.58195 22.6474 8.52962 22.62C8.4773 22.5927 8.43184 22.5538 8.39668 22.5064C8.36152 22.4589 8.33755 22.4042 8.32658 22.3461C8.31562 22.2881 8.31795 22.2284 8.33338 22.1714L9.37015 18.9761C9.38978 18.8975 9.43614 18.8283 9.50127 18.7802C9.56641 18.7322 9.64622 18.7083 9.72706 18.7126H11.5372L10.22 14.5571L6.04738 18.6787H7.44956C7.5118 18.6796 7.57287 18.6957 7.62747 18.7256C7.68208 18.7554 7.72857 18.7982 7.7629 18.8501C7.79723 18.902 7.81838 18.9615 7.82449 19.0235C7.83061 19.0854 7.82151 19.1479 7.79799 19.2055L5.85191 23.8285L5.4525 24.7463L3.93135 28.1031C3.90135 28.17 3.85232 28.2267 3.79037 28.266C3.72842 28.3053 3.65627 28.3254 3.58292 28.324H1.03348L0.99948 28.307Z" fill="#212121"/>
<path d="M18.0125 25.4716C16.9069 25.46 15.819 25.1924 14.8342 24.6897C14.1662 24.3063 13.6192 23.7429 13.2556 23.0638C12.892 22.3847 12.7264 21.6172 12.7777 20.8486C12.7907 20.7722 12.8271 20.7017 12.8819 20.6469C12.9367 20.5921 13.0072 20.5557 13.0836 20.5427C13.496 20.4983 13.8934 20.3633 14.2475 20.1473C14.6016 19.9313 14.9035 19.6398 15.1317 19.2934C16.5509 17.0244 14.7323 12.291 13.4321 8.83223C13.2451 8.34783 13.0666 7.88891 12.8967 7.43001C12.4633 6.43573 13.1686 4.09875 14.8512 3.24044C15.8327 2.7196 16.9269 2.44727 18.038 2.44727C19.1492 2.44727 20.2433 2.7196 21.2248 3.24044C22.9245 4.09025 23.6213 6.42724 23.1624 7.48951C23.0094 7.90592 22.831 8.33932 22.644 8.8662V8.92569C21.2673 12.4779 19.5592 16.9054 20.9444 19.1999C21.1724 19.5604 21.4758 19.8671 21.8338 20.0989C22.1918 20.3307 22.5958 20.4821 23.018 20.5427C23.0939 20.5548 23.1638 20.5911 23.2174 20.6463C23.271 20.7014 23.3054 20.7724 23.3154 20.8486C23.3508 21.6114 23.1722 22.369 22.7997 23.0357C22.4273 23.7025 21.876 24.2518 21.2078 24.6218C20.2242 25.1518 19.1296 25.4429 18.0125 25.4716ZM13.5 21.2225C13.5326 21.7898 13.7048 22.3404 14.0013 22.8252C14.2978 23.3099 14.7094 23.714 15.1997 24.0014C16.0779 24.4622 17.0548 24.7029 18.0465 24.7029C19.0383 24.7029 20.0152 24.4622 20.8934 24.0014C21.3902 23.7152 21.8066 23.308 22.1037 22.8177C22.4009 22.3274 22.5692 21.7699 22.593 21.197C22.1206 21.0958 21.6737 20.8998 21.2793 20.6208C20.8849 20.3418 20.5512 19.9856 20.2985 19.5739C18.7264 16.9564 20.511 12.3419 21.9472 8.63676V8.57727L22.4741 7.19207C22.5778 6.54808 22.4819 5.88779 22.1994 5.29988C21.9168 4.71197 21.4611 4.22461 20.8934 3.90329C20.0152 3.44249 19.0383 3.20177 18.0465 3.20177C17.0548 3.20177 16.0779 3.44249 15.1997 3.90329C13.8824 4.58314 13.3216 6.45273 13.6105 7.14108C13.7805 7.60848 13.9589 8.06738 14.1459 8.55177C15.5311 12.155 17.4262 17.0924 15.8455 19.6843C15.5841 20.0907 15.2402 20.4375 14.8361 20.7025C14.4321 20.9675 13.9769 21.1446 13.5 21.2225ZM20.2561 8.47529C19.9246 8.47529 19.5762 8.47531 19.2193 8.40732C18.8624 8.33934 18.4204 8.33081 18.0125 8.33081C17.6046 8.33081 17.2052 8.37333 16.8143 8.40732C15.854 8.4923 14.9447 8.57728 14.3753 8.05889C14.1925 7.86646 14.0525 7.63745 13.9646 7.38696C13.8767 7.13648 13.8429 6.87019 13.8654 6.60569C13.8654 5.14401 16.041 3.52937 18.0125 3.52937C19.9841 3.52937 22.1681 5.14401 22.1681 6.60569C22.1907 6.87019 22.1569 7.13648 22.069 7.38696C21.9811 7.63745 21.8411 7.86646 21.6582 8.05889C21.2595 8.36851 20.7591 8.51712 20.2561 8.47529ZM18.0125 7.583C18.4385 7.58654 18.864 7.61206 19.2873 7.65948C20.0776 7.72747 20.8254 7.79545 21.1484 7.49801C21.3452 7.26079 21.4399 6.95518 21.4118 6.6482C21.4118 5.67941 19.7122 4.3282 18.0125 4.3282C16.3129 4.3282 14.6133 5.67941 14.6133 6.6482C14.5851 6.95518 14.6799 7.26079 14.8767 7.49801C15.1997 7.79545 15.9475 7.72747 16.7378 7.65948C17.161 7.60893 17.5864 7.58056 18.0125 7.57449V7.583Z" fill="#212121"/>
</svg>
