<svg width="36" height="36" viewBox="0 0 36 36" fill="none" xmlns="http://www.w3.org/2000/svg">
<path d="M32.3341 35.2255C32.2844 35.2256 32.2352 35.2159 32.1893 35.197C32.1434 35.1781 32.1017 35.1504 32.0665 35.1153L30.4926 33.5414C30.421 33.4692 30.3809 33.3716 30.3809 33.2699C30.3809 33.1682 30.421 33.0707 30.4926 32.9984L32.5387 30.9524C32.5738 30.9172 32.6155 30.8893 32.6614 30.8702C32.7073 30.8511 32.7565 30.8413 32.8062 30.8413C32.8559 30.8413 32.9052 30.8511 32.9511 30.8702C32.997 30.8893 33.0387 30.9172 33.0738 30.9524L34.6477 32.5263C34.6829 32.5614 34.7108 32.6031 34.7299 32.649C34.749 32.6949 34.7588 32.7441 34.7588 32.7938C34.7588 32.8436 34.749 32.8928 34.7299 32.9387C34.7108 32.9846 34.6829 33.0263 34.6477 33.0614L32.5938 35.1153C32.5234 35.1823 32.4311 35.2214 32.3341 35.2255ZM31.2796 33.2739L32.3105 34.3048L33.845 32.8253L32.8535 31.7629L31.2796 33.2739Z" fill="#212121"/>
<path d="M30.398 35.4851C30.3484 35.4852 30.2992 35.4756 30.2533 35.4567C30.2074 35.4377 30.1656 35.41 30.1305 35.3749L28.0608 33.3053C28.0256 33.2702 27.9977 33.2285 27.9786 33.1826C27.9595 33.1367 27.9497 33.0874 27.9497 33.0377C27.9497 32.988 27.9595 32.9388 27.9786 32.8929C27.9977 32.847 28.0256 32.8053 28.0608 32.7702L32.3024 28.5207C32.3746 28.4491 32.4722 28.4089 32.5739 28.4089C32.6756 28.4089 32.7732 28.4491 32.8454 28.5207L34.915 30.5904C34.9502 30.6254 34.9782 30.6671 34.9973 30.713C35.0163 30.759 35.0261 30.8082 35.0261 30.8579C35.0261 30.9076 35.0163 30.9569 34.9973 31.0028C34.9782 31.0487 34.9502 31.0904 34.915 31.1255L30.6656 35.3749C30.6304 35.41 30.5887 35.4377 30.5428 35.4567C30.4968 35.4756 30.4477 35.4852 30.398 35.4851ZM28.8241 33.0377L30.398 34.6116L34.1045 30.8972L32.5778 29.3627L28.8241 33.0377Z" fill="#212121"/>
<path d="M9.62274 19.9117C9.57302 19.9123 9.52371 19.9028 9.47774 19.8839C9.43177 19.865 9.39008 19.837 9.35518 19.8016L7.50588 17.9523C7.47066 17.9172 7.44272 17.8755 7.42365 17.8296C7.40459 17.7836 7.39478 17.7344 7.39478 17.6847C7.39478 17.635 7.40459 17.5858 7.42365 17.5399C7.44272 17.4939 7.47066 17.4523 7.50588 17.4172L10.5907 14.3402C10.6609 14.2673 10.757 14.2249 10.8582 14.2222C10.9595 14.2249 11.0556 14.2673 11.1258 14.3402L12.9751 16.1895C13.0103 16.2246 13.0382 16.2663 13.0573 16.3122C13.0764 16.3581 13.0862 16.4074 13.0862 16.4571C13.0862 16.5068 13.0764 16.556 13.0573 16.6019C13.0382 16.6478 13.0103 16.6896 12.9751 16.7246L9.89817 19.8016C9.86235 19.838 9.81938 19.8665 9.77198 19.8855C9.72458 19.9045 9.67376 19.9134 9.62274 19.9117ZM8.31642 17.6847L9.62274 18.9989L12.1645 16.4571L10.8582 15.1429L8.31642 17.6847Z" fill="#212121"/>
<path d="M16.0209 26.3094C15.9705 26.31 15.9205 26.2997 15.8744 26.2793C15.8283 26.259 15.787 26.229 15.7534 26.1914L13.9041 24.3421C13.8665 24.3085 13.8365 24.2672 13.8161 24.2211C13.7958 24.1749 13.7855 24.125 13.786 24.0745C13.786 24.0242 13.7965 23.9744 13.8168 23.9283C13.8372 23.8822 13.8669 23.8409 13.9041 23.807L16.981 20.7301C17.0162 20.695 17.0579 20.6672 17.1038 20.6483C17.1497 20.6294 17.1989 20.6198 17.2486 20.6199C17.2982 20.6198 17.3474 20.6294 17.3933 20.6483C17.4392 20.6672 17.4809 20.695 17.5161 20.7301L19.3654 22.5951C19.4006 22.6302 19.4286 22.6719 19.4476 22.7178C19.4667 22.7637 19.4765 22.8129 19.4765 22.8627C19.4765 22.9124 19.4667 22.9616 19.4476 23.0075C19.4286 23.0534 19.4006 23.0951 19.3654 23.1302L16.3278 26.1914C16.2889 26.2329 16.241 26.2651 16.1879 26.2856C16.1348 26.306 16.0777 26.3142 16.0209 26.3094ZM14.7067 24.0745L16.0209 25.3887L18.5627 22.8469L17.2486 21.5327L14.7067 24.0745Z" fill="#212121"/>
<path d="M3.20184 7.1162C3.15219 7.11632 3.103 7.10667 3.05709 7.08777C3.01118 7.06886 2.96945 7.04109 2.93428 7.00604L1.08498 5.15673C1.04976 5.12164 1.02182 5.07995 1.00276 5.03404C0.983691 4.98812 0.973877 4.93889 0.973877 4.88918C0.973877 4.83946 0.983691 4.79023 1.00276 4.74431C1.02182 4.6984 1.04976 4.65671 1.08498 4.62162L4.1619 1.54469C4.197 1.50947 4.23869 1.48153 4.28461 1.46246C4.33052 1.4434 4.37975 1.43359 4.42946 1.43359C4.47918 1.43359 4.5284 1.4434 4.57432 1.46246C4.62023 1.48153 4.66193 1.50947 4.69702 1.54469L6.54633 3.394C6.58154 3.42909 6.60948 3.47078 6.62855 3.51669C6.64761 3.56261 6.65742 3.61184 6.65742 3.66155C6.65742 3.71127 6.64761 3.7605 6.62855 3.80642C6.60948 3.85233 6.58154 3.89402 6.54633 3.92911L3.4694 7.00604C3.43423 7.04109 3.3925 7.06886 3.34659 7.08777C3.30068 7.10667 3.25149 7.11632 3.20184 7.1162ZM1.88765 4.88918L3.20184 6.20337L5.74365 3.66155L4.42946 2.34736L1.88765 4.88918Z" fill="#212121"/>
<path d="M28.7852 32.6995C28.7353 32.7015 28.6855 32.6927 28.6394 32.6737C28.5932 32.6546 28.5517 32.6259 28.5176 32.5893L26.6683 30.74C26.6311 30.7061 26.6014 30.6647 26.581 30.6187C26.5607 30.5726 26.5502 30.5228 26.5502 30.4724C26.5502 30.4221 26.5607 30.3722 26.581 30.3262C26.6014 30.2801 26.6311 30.2388 26.6683 30.2049L29.7453 27.1279C29.7804 27.0927 29.8221 27.0648 29.868 27.0457C29.9139 27.0266 29.9631 27.0168 30.0128 27.0168C30.0625 27.0168 30.1118 27.0266 30.1577 27.0457C30.2036 27.0648 30.2453 27.0927 30.2804 27.1279L32.1297 28.9772C32.1649 29.0123 32.1928 29.054 32.2119 29.0999C32.231 29.1459 32.2408 29.1951 32.2408 29.2448C32.2408 29.2945 32.231 29.3437 32.2119 29.3896C32.1928 29.4356 32.1649 29.4773 32.1297 29.5124L29.0528 32.5893C29.0179 32.6247 28.9762 32.6527 28.9302 32.6716C28.8842 32.6905 28.8349 32.7 28.7852 32.6995ZM27.471 30.4646L28.7852 31.7787L31.327 29.2369L30.0128 27.9227L27.471 30.4646Z" fill="#212121"/>
<path d="M16.0048 19.9273C15.905 19.9252 15.8096 19.8859 15.7372 19.8172L13.8879 17.9679C13.8166 17.894 13.7771 17.7951 13.7777 17.6924C13.7783 17.5923 13.8178 17.4964 13.8879 17.4249L16.9648 14.348C17.0387 14.2767 17.1376 14.2372 17.2402 14.2378C17.3403 14.2384 17.4363 14.2779 17.5078 14.348L19.3571 16.1973C19.4246 16.27 19.4621 16.3656 19.4621 16.4648C19.4621 16.5641 19.4246 16.6596 19.3571 16.7324L16.2723 19.8172C16.2371 19.8522 16.1954 19.88 16.1495 19.8989C16.1036 19.9178 16.0544 19.9275 16.0048 19.9273ZM14.6906 17.6924L16.0048 19.0066L18.5466 16.4648L17.2402 15.1585L14.6906 17.6924Z" fill="#212121"/>
<path d="M22.3952 26.3174C22.2954 26.3153 22.2 26.276 22.1276 26.2073L20.2626 24.3579C20.2274 24.3229 20.1994 24.2812 20.1804 24.2353C20.1613 24.1893 20.1515 24.1401 20.1515 24.0904C20.1515 24.0407 20.1613 23.9914 20.1804 23.9455C20.1994 23.8996 20.2274 23.8579 20.2626 23.8228L23.3474 20.7381C23.4201 20.6706 23.5157 20.6331 23.6149 20.6331C23.7142 20.6331 23.8097 20.6706 23.8825 20.7381L25.7712 22.5952C25.8428 22.6674 25.8829 22.765 25.8829 22.8667C25.8829 22.9684 25.8428 23.066 25.7712 23.1382L22.6942 26.2151C22.6537 26.2512 22.6063 26.2787 22.555 26.2963C22.5036 26.3139 22.4493 26.3211 22.3952 26.3174ZM21.0889 24.0904L22.3952 25.4046L24.937 22.8628L23.6307 21.5486L21.0889 24.0904Z" fill="#212121"/>
<path d="M9.61529 13.5374C9.51407 13.5347 9.41796 13.4923 9.34773 13.4194L7.49843 11.5779C7.46321 11.5428 7.43527 11.5012 7.41621 11.4552C7.39714 11.4093 7.38733 11.3601 7.38733 11.3104C7.38733 11.2607 7.39714 11.2114 7.41621 11.1655C7.43527 11.1196 7.46321 11.0779 7.49843 11.0428L10.5754 7.9659C10.6105 7.93085 10.6523 7.90308 10.6982 7.88417C10.7441 7.86527 10.7933 7.85559 10.8429 7.85571C10.8926 7.85559 10.9418 7.86527 10.9877 7.88417C11.0336 7.90308 11.0753 7.93085 11.1105 7.9659L12.9598 9.81521C12.995 9.8503 13.0229 9.89199 13.042 9.9379C13.0611 9.98381 13.0709 10.033 13.0709 10.0828C13.0709 10.1325 13.0611 10.1817 13.042 10.2276C13.0229 10.2735 12.995 10.3152 12.9598 10.3503L9.88285 13.4272C9.81135 13.4973 9.7154 13.5368 9.61529 13.5374ZM8.3011 11.3025L9.61529 12.6167L12.1571 10.0749L10.8193 8.76071L8.3011 11.3025Z" fill="#212121"/>
<path d="M9.59937 7.15561C9.54972 7.15573 9.50053 7.14606 9.45462 7.12715C9.40871 7.10825 9.36698 7.08047 9.33181 7.04543L7.48251 5.19614C7.4109 5.12393 7.37073 5.02634 7.37073 4.92465C7.37073 4.82295 7.4109 4.72537 7.48251 4.65315L10.5594 1.57622C10.6335 1.5082 10.7304 1.47046 10.8309 1.47046C10.9315 1.47046 11.0284 1.5082 11.1024 1.57622L12.9517 3.42553C12.9869 3.46062 13.0149 3.50231 13.0339 3.54823C13.053 3.59414 13.0628 3.64337 13.0628 3.69309C13.0628 3.7428 13.053 3.79201 13.0339 3.83793C13.0149 3.88384 12.9869 3.92555 12.9517 3.96064L9.86693 7.04543C9.83176 7.08047 9.79003 7.10825 9.74412 7.12715C9.69821 7.14606 9.64902 7.15573 9.59937 7.15561ZM8.29305 4.92071L9.59937 6.23488L12.1412 3.70882L10.8191 2.37889L8.29305 4.92071Z" fill="#212121"/>
<path d="M28.7773 26.3333C28.7268 26.3338 28.6769 26.3235 28.6307 26.3032C28.5846 26.2828 28.5433 26.2528 28.5097 26.2152L26.6604 24.3659C26.6252 24.3308 26.5973 24.2891 26.5782 24.2432C26.5591 24.1973 26.5493 24.1481 26.5493 24.0984C26.5493 24.0487 26.5591 23.9994 26.5782 23.9535C26.5973 23.9076 26.6252 23.8659 26.6604 23.8308L29.7059 20.7539C29.7781 20.6823 29.8757 20.6421 29.9774 20.6421C30.0791 20.6421 30.1766 20.6823 30.2488 20.7539L32.1296 22.5953C32.1648 22.6304 32.1928 22.6721 32.2119 22.718C32.2309 22.7639 32.2407 22.8132 32.2407 22.8629C32.2407 22.9126 32.2309 22.9618 32.2119 23.0077C32.1928 23.0536 32.1648 23.0953 32.1296 23.1304L29.0448 26.2074C29.0119 26.2464 28.971 26.2778 28.9248 26.2996C28.8786 26.3213 28.8283 26.3328 28.7773 26.3333ZM27.471 24.0984L28.7773 25.4125L31.3191 22.8707L30.0049 21.5565L27.471 24.0984Z" fill="#212121"/>
<path d="M7.34076 11.8771C7.28973 11.8788 7.23892 11.8698 7.19152 11.8508C7.14411 11.8319 7.10115 11.8033 7.06533 11.7669L6.56169 11.2554C6.50174 11.199 6.46284 11.1238 6.45139 11.0422C6.43994 10.9607 6.45665 10.8776 6.49874 10.8069L8.01753 8.09195C8.03108 8.05836 8.0527 8.02861 8.08048 8.00537L12.8021 3.28374C12.8762 3.21572 12.9731 3.17798 13.0736 3.17798C13.1742 3.17798 13.271 3.21572 13.3451 3.28374L13.8487 3.79525C13.9093 3.85298 13.9485 3.92956 13.96 4.01247C13.9714 4.09537 13.9544 4.17971 13.9117 4.25168L12.3929 6.93515C12.3736 6.96493 12.3497 6.99149 12.3221 7.01384L7.60045 11.7355C7.56924 11.7757 7.53007 11.809 7.48538 11.8334C7.4407 11.8578 7.39146 11.8726 7.34076 11.8771ZM7.34076 10.9249V10.9643L11.787 6.51807L13.1326 4.10216V4.06283L8.68642 8.50902L7.34076 10.9249Z" fill="#212121"/>
<path d="M7.36459 18.2433C7.31416 18.2438 7.2642 18.2336 7.21806 18.2132C7.17192 18.1929 7.13065 18.1629 7.09703 18.1253L6.58552 17.6216C6.52839 17.5618 6.49155 17.4855 6.48025 17.4036C6.46895 17.3217 6.48376 17.2383 6.52257 17.1652L8.04136 14.4503C8.05971 14.4196 8.08078 14.3906 8.10431 14.3637L12.8259 9.6421C12.861 9.60689 12.9027 9.57894 12.9486 9.55987C12.9946 9.54081 13.0438 9.53101 13.0935 9.53101C13.1432 9.53101 13.1924 9.54081 13.2384 9.55987C13.2843 9.57894 13.326 9.60689 13.3611 9.6421L13.8726 10.1457C13.9332 10.2035 13.9724 10.28 13.9838 10.3629C13.9952 10.4459 13.9782 10.5302 13.9355 10.6022L12.4167 13.3171C12.4004 13.349 12.3791 13.3782 12.3538 13.4037L7.63215 18.1253C7.59853 18.1629 7.55727 18.1929 7.51113 18.2132C7.46498 18.2336 7.41502 18.2438 7.36459 18.2433ZM7.32525 17.2833L7.36459 17.3226L11.8108 12.8764L13.1801 10.4605L13.1407 10.4212L8.69452 14.8674L7.32525 17.2833Z" fill="#212121"/>
<path d="M16.3284 27.2303C16.278 27.2303 16.2282 27.2198 16.1822 27.1995C16.1361 27.1792 16.0948 27.1495 16.0608 27.1123L15.5415 26.6086C15.4702 26.5347 15.4307 26.4359 15.4313 26.3332C15.4319 26.2331 15.4714 26.1372 15.5415 26.0657L20.2631 21.344C20.2863 21.3162 20.3161 21.2946 20.3496 21.2811L23.0646 19.7623C23.1354 19.7202 23.2184 19.7035 23.2999 19.7149C23.3815 19.7264 23.4567 19.7653 23.5131 19.8252L24.0246 20.3289C24.0947 20.4004 24.1342 20.4963 24.1348 20.5964C24.1354 20.6991 24.0959 20.7979 24.0246 20.8719L19.303 25.5935C19.2827 25.621 19.2556 25.6427 19.2243 25.6565L16.5094 27.1752C16.4539 27.2067 16.392 27.2255 16.3284 27.2303ZM16.3284 26.3332L16.3677 26.3726L18.7836 25.019L23.2298 20.5728H23.1905L20.7746 21.9264L16.3284 26.3332Z" fill="#212121"/>
<path d="M22.7099 27.2539C22.6101 27.2517 22.5147 27.2124 22.4423 27.1437L21.9308 26.6322C21.8956 26.5971 21.8676 26.5554 21.8486 26.5095C21.8295 26.4636 21.8197 26.4144 21.8197 26.3647C21.8197 26.3149 21.8295 26.2657 21.8486 26.2198C21.8676 26.1739 21.8956 26.1322 21.9308 26.0971L26.6524 21.3755L26.739 21.3125L29.4539 19.7937C29.5255 19.7543 29.6078 19.7391 29.6887 19.7505C29.7696 19.7618 29.8446 19.7991 29.9025 19.8567L30.414 20.3682C30.4492 20.4033 30.4771 20.445 30.4962 20.4909C30.5153 20.5368 30.5251 20.586 30.5251 20.6357C30.5251 20.6855 30.5153 20.7347 30.4962 20.7806C30.4771 20.8265 30.4492 20.8682 30.414 20.9033L25.6924 25.6249L25.6058 25.6879L22.8909 27.2067C22.8352 27.2367 22.7731 27.2529 22.7099 27.2539ZM22.7099 26.3647H22.7492L25.1651 25.0111L29.6113 20.5649L29.572 20.5256L27.1561 21.8791L22.7099 26.3647Z" fill="#212121"/>
<path d="M4.14608 8.6821C4.04341 8.68272 3.94457 8.64317 3.87065 8.57192L2.76894 7.46234C2.73372 7.42724 2.70578 7.38555 2.68672 7.33964C2.66765 7.29373 2.65784 7.24449 2.65784 7.19478C2.65784 7.14507 2.66765 7.09586 2.68672 7.04994C2.70578 7.00403 2.73372 6.96232 2.76894 6.92722L7.49056 2.2056L7.57713 2.14265L10.3157 0.560899C10.3887 0.522088 10.4721 0.507282 10.5541 0.518583C10.636 0.529885 10.7123 0.56672 10.7721 0.623855L11.2757 1.13536C11.3109 1.17045 11.3389 1.21215 11.358 1.25807C11.377 1.30398 11.3868 1.35321 11.3868 1.40293C11.3868 1.45264 11.377 1.50185 11.358 1.54777C11.3389 1.59368 11.3109 1.63539 11.2757 1.67048L4.41364 8.54046C4.3809 8.5809 4.34032 8.61429 4.29434 8.63864C4.24836 8.66298 4.19792 8.67777 4.14608 8.6821ZM3.57161 7.19478L4.14608 7.76925L10.4416 1.43439V1.39505L8.02568 2.74859L3.57161 7.19478Z" fill="#212121"/>
<path d="M9.96151 20.8402C9.91116 20.8402 9.86135 20.8298 9.81528 20.8094C9.76921 20.7891 9.72789 20.7594 9.69395 20.7222L9.18244 20.2186C9.11119 20.1446 9.07166 20.0458 9.07227 19.9431C9.07287 19.843 9.11238 19.7471 9.18244 19.6756L19.2159 9.64212C19.2891 9.57236 19.3863 9.53345 19.4874 9.53345C19.5885 9.53345 19.6857 9.57236 19.7589 9.64212L20.8606 10.7517C20.8978 10.7856 20.9276 10.8269 20.9479 10.873C20.9683 10.9191 20.9788 10.9689 20.9788 11.0193C20.9788 11.0696 20.9683 11.1194 20.9479 11.1655C20.9276 11.2116 20.8978 11.2529 20.8606 11.2868L12.944 19.2034C12.9237 19.2309 12.8966 19.2526 12.8653 19.2664L10.1504 20.7852C10.0941 20.8214 10.0285 20.8405 9.96151 20.8402ZM9.96151 19.9431L10.0009 19.9825L12.4482 18.6604L20.0579 11.0507L19.4835 10.4841L9.96151 19.9431Z" fill="#212121"/>
<path d="M23.3394 34.2103C23.2898 34.2104 23.2406 34.2007 23.1947 34.1818C23.1488 34.1629 23.107 34.1351 23.0719 34.1001L21.9623 32.9905C21.9271 32.9554 21.8991 32.9137 21.8801 32.8678C21.861 32.8219 21.8512 32.7727 21.8512 32.7229C21.8512 32.6732 21.861 32.624 21.8801 32.5781C21.8991 32.5322 21.9271 32.4905 21.9623 32.4554L31.9958 22.4219C32.0673 22.3519 32.1632 22.3124 32.2633 22.3118C32.313 22.3116 32.3622 22.3213 32.4081 22.3402C32.454 22.3591 32.4957 22.3869 32.5309 22.4219L33.0424 22.9334C33.103 22.9912 33.1422 23.0677 33.1536 23.1507C33.165 23.2336 33.148 23.3179 33.1053 23.3899L31.5865 26.1048C31.57 26.1343 31.5488 26.1609 31.5236 26.1835L23.607 34.1001C23.5718 34.1351 23.5301 34.1629 23.4842 34.1818C23.4383 34.2007 23.3891 34.2104 23.3394 34.2103ZM22.7728 32.7229L23.3394 33.2974L30.9491 25.6877L32.3027 23.264L22.7728 32.7229Z" fill="#212121"/>
<path d="M13.755 24.6333C13.7045 24.6338 13.6546 24.6236 13.6084 24.6032C13.5623 24.5829 13.521 24.5529 13.4874 24.5153L12.9759 24.0116C12.9188 23.9518 12.8819 23.8756 12.8706 23.7936C12.8593 23.7117 12.8741 23.6283 12.9129 23.5552L14.4317 20.8403C14.4481 20.8083 14.4693 20.7791 14.4947 20.7537L22.4113 12.8371C22.4835 12.7655 22.5811 12.7253 22.6828 12.7253C22.7845 12.7253 22.8821 12.7655 22.9543 12.8371L24.056 13.9467C24.0932 13.9806 24.123 14.022 24.1433 14.068C24.1636 14.1141 24.1742 14.1639 24.1742 14.2143C24.1742 14.2646 24.1636 14.3144 24.1433 14.3605C24.123 14.4066 24.0932 14.4479 24.056 14.4818L14.0225 24.5153C13.9889 24.5529 13.9476 24.5829 13.9015 24.6032C13.8554 24.6236 13.8054 24.6338 13.755 24.6333ZM13.7156 23.6733L13.755 23.7126L23.2533 14.2143L22.6788 13.6477L15.0692 21.2574L13.7156 23.6733Z" fill="#212121"/>
</svg>
