<svg width="36" height="36" viewBox="0 0 36 36" fill="none" xmlns="http://www.w3.org/2000/svg">
<path d="M17.2517 35.9676L16.4444 35.9132C16.3425 35.9063 16.2445 35.8712 16.1612 35.812C16.078 35.7528 16.0128 35.6716 15.9728 35.5776H15.6009L15.4014 35.7046C15.2823 35.7784 15.1397 35.8044 15.0023 35.7771L14.2041 35.623C14.1032 35.6056 14.0093 35.5596 13.9338 35.4904C13.8582 35.4213 13.8041 35.3319 13.7778 35.2329L13.415 35.1422L13.1973 35.2329C13.1342 35.2599 13.0663 35.2738 12.9977 35.2738C12.9291 35.2738 12.8613 35.2599 12.7982 35.2329L11.9546 34.9608C11.8578 34.9309 11.7714 34.8741 11.7056 34.7971C11.6397 34.72 11.5972 34.6258 11.5828 34.5255L11.22 34.3894L11.0023 34.4529C10.8739 34.5025 10.7316 34.5025 10.6032 34.4529L9.86848 34.0992C9.77589 34.0568 9.69705 33.9892 9.64093 33.9042C9.5848 33.8193 9.55366 33.7202 9.55102 33.6184L9.21542 33.437L8.98866 33.4824C8.92153 33.4963 8.85225 33.4962 8.78515 33.4822C8.71804 33.4681 8.65455 33.4404 8.59864 33.4007L7.9093 32.9654C7.82358 32.9108 7.75453 32.8337 7.70973 32.7425C7.66493 32.6513 7.64611 32.5495 7.65533 32.4483L7.34694 32.2307H7.12018C7.05142 32.236 6.9823 32.2275 6.91687 32.2057C6.85145 32.1839 6.79105 32.1492 6.73923 32.1037L6.11338 31.5867C6.03467 31.5222 5.97525 31.4374 5.94165 31.3413C5.90804 31.2453 5.90156 31.1419 5.9229 31.0425L5.65079 30.7794H5.41497C5.27716 30.7678 5.14825 30.7065 5.05216 30.6071L4.49887 30.0084C4.42777 29.9356 4.37892 29.844 4.35804 29.7444C4.33715 29.6448 4.3451 29.5413 4.38095 29.4461C4.29932 29.3463 4.21769 29.2556 4.14513 29.1558H3.9093C3.77313 29.1303 3.65254 29.0521 3.5737 28.9382L3.09297 28.2851C3.03712 28.1986 3.00742 28.0978 3.00742 27.9948C3.00742 27.8919 3.03712 27.7911 3.09297 27.7046L2.88435 27.3871L2.66667 27.3146C2.53408 27.2702 2.42157 27.1802 2.34921 27.0606L1.95918 26.344C1.90639 26.2564 1.87849 26.1561 1.87849 26.0538C1.87849 25.9515 1.90639 25.8512 1.95918 25.7635C1.89748 25.6554 1.84294 25.5433 1.79592 25.4279L1.57823 25.3282C1.453 25.2663 1.35579 25.1594 1.30612 25.0289L1.0703 24.2579C1.03441 24.1624 1.02474 24.059 1.04228 23.9586C1.05983 23.8581 1.10395 23.7641 1.17007 23.6864C1.17007 23.5685 1.08844 23.4506 1.05215 23.3236L0.861679 23.2057C0.744201 23.131 0.659806 23.0142 0.625851 22.8792L0.417234 22.0901C0.394022 21.9909 0.39776 21.8872 0.428061 21.79C0.458362 21.6927 0.514124 21.6053 0.58957 21.5368C0.58957 21.4189 0.58957 21.2919 0.517007 21.1649L0.344671 21.0198C0.234906 20.9189 0.169659 20.7787 0.163266 20.6298L0.0634927 19.8225C0.0516011 19.7207 0.0682 19.6177 0.11144 19.5248C0.15468 19.4319 0.222863 19.3528 0.30839 19.2964V18.9155L0.145125 18.7522C0.0543081 18.6493 0.00289107 18.5175 0 18.3803V17.564C0.00012635 17.4616 0.0291316 17.3613 0.0836829 17.2747C0.138234 17.1881 0.216119 17.1186 0.30839 17.0742C0.30839 16.9472 0.30839 16.8202 0.30839 16.6933L0.172336 16.5028C0.0895808 16.3907 0.053787 16.2508 0.0725623 16.1128L0.172336 15.3055C0.185106 15.2035 0.226965 15.1074 0.292911 15.0286C0.358857 14.9498 0.446101 14.8916 0.544218 14.861C0.544218 14.7341 0.589569 14.6071 0.60771 14.4892L0.498866 14.2806C0.435173 14.1578 0.415944 14.0168 0.444445 13.8815L0.653062 13.0923C0.677171 12.9929 0.729289 12.9024 0.803239 12.8317C0.87719 12.761 0.96987 12.7129 1.0703 12.6932L1.17914 12.3304L1.09751 12.1218C1.07031 12.0572 1.05631 11.9878 1.05631 11.9177C1.05631 11.8477 1.07031 11.7783 1.09751 11.7137L1.39683 10.9608C1.43562 10.8669 1.49911 10.7853 1.58056 10.7247C1.662 10.664 1.75837 10.6265 1.85941 10.6162L2.02268 10.2715L1.96825 10.0447C1.93285 9.91071 1.94903 9.76828 2.01361 9.64563L2.40363 8.93815C2.45187 8.84643 2.5253 8.77038 2.61528 8.71896C2.70526 8.66754 2.80805 8.64289 2.91156 8.64789L3.11111 8.33044V8.10368C3.09234 7.96564 3.12813 7.82572 3.21088 7.71365L3.69161 7.05152C3.75063 6.96784 3.83243 6.90285 3.92728 6.86427C4.02214 6.82568 4.12608 6.81511 4.22676 6.83383C4.29932 6.73406 4.38095 6.64336 4.46259 6.54359V6.30777C4.46264 6.16826 4.51811 6.03449 4.61678 5.93588L5.17007 5.33724C5.24173 5.26417 5.33197 5.21204 5.43106 5.18646C5.53016 5.16089 5.63436 5.16284 5.73243 5.19211L6.00454 4.93814V4.70232C6.02466 4.56367 6.09582 4.43752 6.20408 4.34858L6.82993 3.83157C6.90794 3.76574 7.00289 3.72318 7.10393 3.70875C7.20498 3.69431 7.30804 3.70859 7.40136 3.74994L7.70068 3.53224L7.76417 3.30549C7.79813 3.17049 7.88252 3.05363 8 2.97896L8.68934 2.54359C8.77585 2.48774 8.87663 2.45804 8.97959 2.45804C9.08256 2.45804 9.18334 2.48774 9.26984 2.54359L9.59637 2.36218L9.67801 2.14449C9.73178 2.01575 9.83221 1.91208 9.95918 1.85425L10.6939 1.50957C10.7856 1.46575 10.8877 1.44849 10.9887 1.45971C11.0897 1.47093 11.1855 1.5102 11.2653 1.57307L11.619 1.42794L11.737 1.2284C11.8038 1.1077 11.9141 1.01693 12.0454 0.974428L12.8163 0.720461C12.9136 0.690057 13.0173 0.686657 13.1163 0.710621C13.2154 0.734585 13.3061 0.785006 13.3787 0.85651L13.7415 0.756736L13.8776 0.575333C13.9623 0.463489 14.0848 0.386149 14.2222 0.357641L15.0204 0.203448C15.1202 0.184859 15.2232 0.194554 15.3177 0.231419C15.4123 0.268283 15.4947 0.330858 15.5556 0.412074L15.9365 0.36672L16.0907 0.194382C16.1891 0.0929268 16.3216 0.0315265 16.4626 0.0220445H17.2698C17.3718 0.0130731 17.4742 0.0340415 17.5644 0.0823738C17.6546 0.130706 17.7288 0.204306 17.7778 0.294156H18.1587L18.3401 0.139963C18.4492 0.0569059 18.5842 0.0151304 18.7211 0.0220445H19.5374C19.6384 0.0285485 19.7354 0.0635277 19.8173 0.122925C19.8991 0.182323 19.9625 0.263703 20 0.357641L20.381 0.412074L20.5805 0.285091C20.6971 0.213439 20.835 0.184568 20.9705 0.203448L21.7687 0.357641C21.8695 0.378757 21.9625 0.427148 22.0377 0.497524C22.1129 0.567899 22.1673 0.657559 22.195 0.756736L22.5669 0.847445L22.7755 0.747671C22.8386 0.720725 22.9065 0.706829 22.9751 0.706829C23.0436 0.706829 23.1115 0.720725 23.1746 0.747671L23.9456 1.00164C24.0424 1.03154 24.1288 1.08833 24.1946 1.16541C24.2605 1.24249 24.3031 1.33667 24.3175 1.43701L24.6803 1.58214L24.898 1.50957C24.961 1.48263 25.0289 1.46873 25.0975 1.46873C25.1661 1.46873 25.234 1.48263 25.2971 1.50957L26.0317 1.85425C26.1237 1.8975 26.202 1.96523 26.258 2.05003C26.314 2.13483 26.3455 2.23342 26.3492 2.33497L26.6848 2.51638H26.9116C27.0471 2.4975 27.185 2.52635 27.3016 2.59801L27.9909 3.03339C28.0759 3.08866 28.1444 3.1659 28.1891 3.25691C28.2338 3.34792 28.2531 3.44932 28.2449 3.55039L28.5533 3.77715H28.78C28.9186 3.76937 29.0548 3.81479 29.161 3.90413L29.7868 4.42114C29.8663 4.48701 29.9261 4.57346 29.9597 4.67106C29.9933 4.76865 29.9994 4.87361 29.9773 4.97443L30.2494 5.2284H30.4853C30.5543 5.23095 30.622 5.24754 30.6844 5.27717C30.7468 5.3068 30.8025 5.34886 30.8481 5.40074L31.3742 5.95403C31.432 6.00498 31.4782 6.06782 31.5095 6.13827C31.5408 6.20871 31.5565 6.2851 31.5556 6.36219C31.5693 6.428 31.5693 6.49592 31.5556 6.56173L31.7914 6.84291L32.0272 6.88827C32.162 6.91724 32.2814 6.9947 32.3628 7.10594L32.8163 7.72273C32.9019 7.82452 32.9499 7.95259 32.9524 8.08554C32.9496 8.17665 32.9279 8.26621 32.8889 8.34858L33.0884 8.65697L33.3152 8.72953C33.4463 8.77731 33.5557 8.87068 33.6236 8.99257L33.9864 9.65469C34.0502 9.74497 34.085 9.85255 34.0862 9.96309C34.0863 10.0766 34.0514 10.1875 33.9864 10.2805C34.0408 10.3985 34.0952 10.5073 34.1406 10.6252L34.3583 10.725C34.4829 10.7832 34.5804 10.8871 34.6304 11.0152L34.9116 11.7227C34.9505 11.7987 34.9722 11.8823 34.9751 11.9676C34.9755 12.1055 34.9237 12.2384 34.8299 12.3395L34.9478 12.7023L35.1383 12.8202C35.257 12.8978 35.3414 13.0179 35.3741 13.1558L35.5646 13.8815C35.5776 13.9443 35.5776 14.0091 35.5646 14.0719C35.5643 14.1466 35.5489 14.2205 35.5193 14.2891C35.4897 14.3577 35.4465 14.4196 35.3923 14.471C35.3923 14.598 35.4467 14.725 35.4649 14.8429L35.6372 14.988C35.7455 15.077 35.8166 15.2031 35.8367 15.3418L35.9274 16.0946C35.9571 16.2038 35.9501 16.3198 35.9075 16.4247C35.8649 16.5295 35.789 16.6175 35.6916 16.6751C35.7005 16.8019 35.7005 16.9292 35.6916 17.0561L35.8549 17.2193C35.947 17.325 35.9985 17.4601 36 17.6003V18.4166C35.9999 18.519 35.9709 18.6193 35.9163 18.7059C35.8618 18.7925 35.7839 18.862 35.6916 18.9064C35.6916 19.0334 35.6916 19.1513 35.6916 19.2783L35.8277 19.4688C35.9087 19.5816 35.9443 19.7209 35.9274 19.8588L35.8277 20.666C35.8134 20.7685 35.7711 20.8651 35.7055 20.9451C35.6399 21.0251 35.5535 21.0855 35.4558 21.1195C35.4558 21.2375 35.4104 21.3645 35.3923 21.4824L35.5011 21.691C35.5369 21.7503 35.5602 21.8163 35.5696 21.8849C35.579 21.9535 35.5742 22.0234 35.5556 22.0901L35.3469 22.8792C35.3228 22.9786 35.2707 23.0691 35.1968 23.1398C35.1228 23.2106 35.0301 23.2586 34.9297 23.2783L34.8209 23.6411L34.9025 23.8588C34.9294 23.9219 34.9433 23.9897 34.9433 24.0583C34.9433 24.1269 34.9294 24.1948 34.9025 24.2579L34.6032 25.0107C34.569 25.1076 34.5068 25.1922 34.4244 25.2536C34.342 25.315 34.2432 25.3504 34.1406 25.3554L33.9773 25.7091L34.0317 25.9268C34.0672 26.0608 34.051 26.2032 33.9864 26.3259L33.5964 27.0425C33.5453 27.1311 33.471 27.2041 33.3815 27.2537C33.292 27.3032 33.1907 27.3274 33.0884 27.3236C33.0249 27.4325 32.9615 27.5413 32.8889 27.6502V27.8769C32.9072 28.0121 32.8713 28.149 32.7891 28.2579L32.3084 28.92C32.2494 29.0037 32.1676 29.0687 32.0727 29.1073C31.9779 29.1458 31.8739 29.1564 31.7732 29.1377C31.6997 29.2384 31.621 29.3353 31.5374 29.4279V29.6638C31.5374 29.8033 31.4819 29.937 31.3832 30.0356L30.8299 30.6343C30.7595 30.7091 30.6693 30.7625 30.5697 30.7881C30.4702 30.8138 30.3654 30.8108 30.2676 30.7794L29.9955 31.0425V31.2692C29.9771 31.4085 29.9056 31.5352 29.7959 31.6229L29.1701 32.14C29.0921 32.2058 28.9971 32.2483 28.8961 32.2628C28.795 32.2772 28.692 32.2629 28.5986 32.2216L28.2812 32.4211L28.2177 32.657C28.1813 32.7908 28.0975 32.9069 27.9819 32.9835L27.2925 33.4098C27.206 33.4656 27.1052 33.4954 27.0023 33.4954C26.8993 33.4954 26.7985 33.4656 26.712 33.4098L26.3855 33.5912L26.3039 33.8089C26.2501 33.9376 26.1496 34.0413 26.0227 34.0992L25.288 34.4529C25.195 34.4934 25.0929 34.5081 24.9923 34.4953C24.8917 34.4826 24.7964 34.4428 24.7166 34.3803L24.3628 34.5255L24.254 34.725C24.1886 34.8469 24.0778 34.9382 23.9456 34.979L23.1655 35.2329C23.0683 35.2633 22.9646 35.2667 22.8655 35.2428C22.7665 35.2188 22.6758 35.1684 22.6032 35.0969L22.2404 35.1966L22.1043 35.3781C22.022 35.4925 21.8984 35.5706 21.7596 35.5957L20.9615 35.7499C20.8617 35.7685 20.7587 35.7588 20.6641 35.722C20.5696 35.6851 20.4872 35.6225 20.4263 35.5413L20.0454 35.5867L19.8912 35.759C19.7951 35.8585 19.6662 35.9197 19.5283 35.9313L18.712 35.9767C18.6098 35.9881 18.5064 35.9682 18.4157 35.9196C18.325 35.8711 18.2512 35.7961 18.2041 35.7046C18.0773 35.7137 17.95 35.7137 17.8231 35.7046L17.6417 35.8588C17.531 35.9447 17.3909 35.9838 17.2517 35.9676ZM16.7166 35.1694H17.1791L17.4059 34.988C17.4725 34.9268 17.5604 34.8943 17.6508 34.8973H18.5125C18.5892 34.8918 18.6656 34.9108 18.7309 34.9515C18.7961 34.9923 18.8466 35.0527 18.8753 35.1241C18.8796 35.1389 18.8796 35.1546 18.8753 35.1694H19.3379L19.5283 34.9608C19.5945 34.8953 19.6807 34.8538 19.7732 34.8429C20.0514 34.8429 20.3326 34.8066 20.6168 34.7341C20.6925 34.7215 20.7703 34.7321 20.8398 34.7645C20.9094 34.7968 20.9676 34.8495 21.0068 34.9155L21.4603 34.8248L21.6327 34.598C21.6864 34.5242 21.7629 34.47 21.8503 34.4438C22.1315 34.3803 22.4036 34.3078 22.6757 34.2261C22.7495 34.2037 22.8284 34.2048 22.9015 34.2291C22.9746 34.2535 23.0384 34.3 23.0839 34.3622L23.5193 34.2171L23.6644 33.9722C23.6834 33.9308 23.711 33.894 23.7454 33.8643C23.7799 33.8346 23.8203 33.8126 23.8639 33.7998L24.6531 33.4733C24.7242 33.4431 24.8027 33.4348 24.8786 33.4493C24.9545 33.4639 25.0244 33.5006 25.0794 33.5549L25.5057 33.3554L25.6054 33.0923C25.6427 33.008 25.7064 32.9379 25.7868 32.8928C26.0408 32.7658 26.2857 32.6207 26.5306 32.4756C26.593 32.4361 26.6654 32.4151 26.7392 32.4151C26.8131 32.4151 26.8854 32.4361 26.9478 32.4756L27.3379 32.2216L27.4104 31.9404C27.4323 31.8533 27.4836 31.7764 27.5556 31.7227C27.7914 31.5595 28.0181 31.3871 28.2449 31.2148C28.3097 31.1683 28.3874 31.1433 28.4671 31.1433C28.5469 31.1433 28.6246 31.1683 28.6893 31.2148L29.0431 30.9155V30.6343C29.0523 30.5439 29.0942 30.46 29.161 30.3985C29.3696 30.208 29.5782 30.0084 29.7778 29.7998C29.8345 29.7452 29.9065 29.709 29.9842 29.696C30.0619 29.6831 30.1417 29.694 30.2132 29.7273L30.5306 29.3917V29.1014C30.5289 29.0085 30.5611 28.9182 30.6213 28.8474C30.8027 28.6388 30.9841 28.4121 31.1565 28.1853C31.2062 28.1259 31.2721 28.0823 31.3462 28.0598C31.4203 28.0372 31.4993 28.0367 31.5737 28.0583L31.8458 27.6864V27.4053C31.8397 27.3132 31.8619 27.2214 31.9093 27.1422C32.0726 26.9064 32.2177 26.6615 32.3628 26.4166C32.401 26.3497 32.4591 26.2963 32.5289 26.2638C32.5988 26.2313 32.677 26.2213 32.7528 26.2352L32.9796 25.827L32.907 25.5549C32.8893 25.5133 32.8802 25.4686 32.8802 25.4234C32.8802 25.3782 32.8893 25.3335 32.907 25.2919C33.034 25.0379 33.1519 24.7749 33.2608 24.5118C33.2902 24.4404 33.3406 24.3795 33.4054 24.3374C33.4702 24.2953 33.5463 24.2739 33.6236 24.276L33.7959 23.8497L33.6961 23.5867C33.6643 23.4988 33.6643 23.4025 33.6961 23.3146C33.7868 23.0515 33.8685 22.7794 33.9501 22.4982C33.974 22.4255 34.0184 22.3611 34.0779 22.3128C34.1374 22.2646 34.2096 22.2345 34.2857 22.2261L34.4036 21.7726L34.2585 21.5186C34.2315 21.4361 34.2315 21.3472 34.2585 21.2647C34.322 20.9835 34.3673 20.7023 34.4127 20.4211C34.4246 20.3456 34.4585 20.2752 34.5101 20.2188C34.5617 20.1623 34.6288 20.1223 34.7029 20.1037H34.7483L34.8027 19.6502L34.6304 19.4143C34.5819 19.339 34.5596 19.2497 34.5669 19.1604C34.5669 18.8792 34.5669 18.5889 34.5669 18.3078C34.5679 18.2273 34.5949 18.1493 34.644 18.0855C34.6931 18.0217 34.7615 17.9756 34.839 17.954V17.4914L34.6395 17.2828C34.5758 17.2172 34.54 17.1294 34.5397 17.0379C34.5397 16.7567 34.5397 16.4756 34.4762 16.1853C34.4699 16.1096 34.4864 16.0337 34.5236 15.9674C34.5608 15.9012 34.6169 15.8475 34.6848 15.8134L34.6213 15.3508L34.4036 15.1694C34.3341 15.1127 34.2887 15.0316 34.2766 14.9427C34.2222 14.6615 34.1678 14.3803 34.1043 14.0991C34.0883 14.0248 34.0944 13.9475 34.1218 13.8766C34.1492 13.8057 34.1967 13.7443 34.2585 13.7001L34.1406 13.2465L33.9048 13.1014C33.826 13.0508 33.768 12.9735 33.7415 12.8837C33.6599 12.6116 33.5692 12.3395 33.4694 12.0765C33.4433 12.0041 33.4397 11.9254 33.4591 11.851C33.4785 11.7765 33.5201 11.7096 33.5782 11.6592L33.4059 11.2329L33.1519 11.1059C33.0658 11.0701 32.9973 11.0016 32.9615 10.9155C32.8435 10.6615 32.7166 10.4075 32.5896 10.1445C32.5502 10.0707 32.5369 9.98585 32.5517 9.90357C32.5665 9.82128 32.6086 9.7464 32.6712 9.69098L32.4444 9.28282L32.1723 9.19211C32.0851 9.16514 32.0109 9.10704 31.9637 9.02886C31.8186 8.79303 31.6644 8.54812 31.5011 8.31229C31.4546 8.24753 31.4296 8.16981 31.4296 8.09008C31.4296 8.01034 31.4546 7.93261 31.5011 7.86784L31.229 7.49597L30.9388 7.44155C30.8499 7.42329 30.7699 7.37529 30.712 7.30549C30.5397 7.07873 30.3492 6.87012 30.1678 6.65243C30.1157 6.59574 30.0825 6.5243 30.0728 6.44794C30.063 6.37158 30.0772 6.29408 30.1134 6.22612L29.7959 5.89053H29.5057C29.4167 5.88299 29.3333 5.84447 29.2698 5.78169L28.6349 5.20119C28.5783 5.14971 28.5385 5.08237 28.5207 5.00795C28.5029 4.93353 28.508 4.85547 28.5351 4.78395L28.1814 4.49371H27.8912C27.8023 4.49744 27.7151 4.46838 27.6463 4.41206C27.4195 4.2488 27.1837 4.07647 26.9478 3.92227C26.8818 3.87945 26.8306 3.8172 26.8014 3.74411C26.7722 3.67102 26.7663 3.59068 26.7846 3.51411L26.3946 3.26921L26.1134 3.32363C26.026 3.34102 25.9353 3.32483 25.8594 3.27828L25.0975 2.87012C25.0296 2.83668 24.9739 2.78286 24.9381 2.71617C24.9023 2.64949 24.8883 2.57329 24.898 2.49823L24.4807 2.29868L24.2086 2.38033C24.1672 2.39857 24.1224 2.40798 24.0771 2.40798C24.0318 2.40798 23.987 2.39857 23.9456 2.38033C23.6825 2.27148 23.4104 2.17171 23.1474 2.08101C23.074 2.05506 23.0103 2.00725 22.9649 1.944C22.9195 1.88076 22.8945 1.80511 22.8934 1.72726L22.449 1.58214L22.1859 1.70912C22.1012 1.74116 22.0077 1.74116 21.9229 1.70912C21.6508 1.63656 21.3787 1.56399 21.0975 1.50957C21.0222 1.49142 20.9538 1.45174 20.9006 1.39536C20.8475 1.33899 20.8119 1.26838 20.7982 1.19212L20.3447 1.10141L20.0998 1.25561C20.0213 1.30432 19.9281 1.3236 19.8367 1.31002L19.2925 1.23746H19.102H18.9841C18.9065 1.22956 18.833 1.19854 18.7732 1.14841C18.7133 1.09829 18.6699 1.03135 18.6485 0.956284H18.1859L17.9683 1.14677C17.894 1.19934 17.8053 1.22783 17.7143 1.2284H17.3968C17.3214 1.23328 17.2463 1.21507 17.1814 1.17618C17.1166 1.13729 17.0652 1.07956 17.034 1.0107V0.965363H16.5714L16.381 1.17398C16.3184 1.23947 16.235 1.28114 16.1451 1.29188C15.8549 1.29188 15.5737 1.36445 15.2925 1.4098C15.2161 1.41907 15.1386 1.40602 15.0693 1.37222C15.0001 1.33842 14.9422 1.28533 14.9025 1.21933L14.449 1.30096L14.2766 1.53678C14.2241 1.60993 14.1467 1.6615 14.059 1.68191C13.7778 1.7454 13.5057 1.81797 13.2336 1.8996C13.1598 1.92202 13.0809 1.92096 13.0078 1.89659C12.9347 1.87221 12.8709 1.82572 12.8254 1.76354L12.381 1.90867L12.2449 2.15357C12.2017 2.23346 12.1307 2.29476 12.0454 2.32591L11.2472 2.65242C11.1762 2.68383 11.0974 2.69285 11.0213 2.67826C10.9451 2.66368 10.8752 2.62618 10.8209 2.5708L10.3946 2.77034L10.2948 3.03339C10.26 3.11936 10.1957 3.19011 10.1134 3.23294L9.36961 3.65016C9.30665 3.69267 9.23243 3.71538 9.15646 3.71538C9.0805 3.71538 9.00627 3.69267 8.94331 3.65016L8.55329 3.89506L8.48073 4.17624C8.46111 4.26433 8.40937 4.34195 8.3356 4.39393C8.09977 4.5572 7.87302 4.72953 7.64626 4.90187C7.5833 4.94437 7.50907 4.96708 7.43311 4.96708C7.35714 4.96708 7.28292 4.94437 7.21996 4.90187L6.86621 5.19211V5.48237C6.85419 5.57133 6.8088 5.65239 6.73923 5.70912C6.53061 5.8996 6.322 6.09915 6.12245 6.30777C6.06825 6.36028 5.99999 6.39593 5.92593 6.41042C5.85187 6.42491 5.77521 6.41761 5.70522 6.3894H5.65986L5.35147 6.72499V7.00617C5.34988 7.10008 5.31445 7.19026 5.2517 7.26014C5.07029 7.47782 4.88889 7.69552 4.71655 7.92228C4.66984 7.98285 4.60558 8.02755 4.53254 8.05027C4.4595 8.073 4.38122 8.07265 4.30839 8.04926L4.03628 8.43021V8.71139C4.04746 8.801 4.02482 8.89155 3.97279 8.96536C3.81859 9.20118 3.6644 9.44608 3.51927 9.69098C3.48011 9.75699 3.42191 9.80962 3.35232 9.84199C3.28272 9.87436 3.20497 9.88496 3.12925 9.87239L2.91156 10.2896L2.97506 10.5617C2.99277 10.6033 3.0019 10.648 3.0019 10.6932C3.0019 10.7384 2.99277 10.7832 2.97506 10.8248C2.84807 11.0787 2.73016 11.3327 2.62132 11.6048C2.58952 11.6739 2.53823 11.7321 2.47378 11.7724C2.40932 11.8127 2.3345 11.8332 2.2585 11.8316L2.08617 12.2669L2.18594 12.53C2.21798 12.6147 2.21798 12.7083 2.18594 12.793C2.09524 13.0561 2.01361 13.3372 1.93197 13.6093C1.91017 13.6833 1.86641 13.749 1.80648 13.7976C1.74655 13.8462 1.67329 13.8754 1.59637 13.8815L1.47846 14.335L1.62358 14.5889C1.6507 14.6745 1.6507 14.7664 1.62358 14.852C1.56916 15.1241 1.51474 15.4053 1.46939 15.6955C1.46075 15.7714 1.42782 15.8424 1.37551 15.8979C1.3232 15.9535 1.25431 15.9907 1.17914 16.0039H1.13379L1.07937 16.4574L1.2517 16.6933C1.30275 16.7678 1.32822 16.8569 1.32426 16.9472C1.32426 17.2284 1.27891 17.5187 1.27891 17.7998C1.27353 17.8778 1.24588 17.9526 1.19925 18.0153C1.15263 18.078 1.08898 18.126 1.01587 18.1536V18.6161L1.21542 18.8248C1.27909 18.8904 1.31485 18.9782 1.31519 19.0697C1.31519 19.3508 1.31519 19.6411 1.37869 19.9223C1.38686 19.9995 1.37127 20.0773 1.33399 20.1454C1.2967 20.2135 1.23951 20.2685 1.17007 20.3032L1.23356 20.7658L1.45125 20.9472C1.52081 21.004 1.56621 21.085 1.57823 21.174C1.63265 21.4552 1.68708 21.7363 1.75057 22.0175C1.76778 22.0918 1.76228 22.1696 1.73479 22.2408C1.7073 22.3119 1.65908 22.3732 1.59637 22.4166L1.71429 22.8701L1.95011 23.0243C1.98974 23.0466 2.02457 23.0765 2.05259 23.1123C2.08061 23.1481 2.10127 23.1891 2.11338 23.2329C2.19501 23.505 2.28571 23.7771 2.38549 24.0402C2.41162 24.1126 2.41521 24.1912 2.39578 24.2657C2.37635 24.3402 2.33481 24.407 2.27664 24.4574L2.44898 24.8928L2.71202 25.0107C2.79367 25.05 2.85818 25.1177 2.89342 25.2012C3.01134 25.4551 3.13832 25.7182 3.26531 25.9722C3.30703 26.0337 3.32933 26.1064 3.32933 26.1808C3.32933 26.2551 3.30703 26.3278 3.26531 26.3894L3.49206 26.7976L3.76417 26.8883C3.808 26.9004 3.84899 26.921 3.88479 26.9491C3.9206 26.9771 3.9505 27.0119 3.97279 27.0515C4.11791 27.2964 4.28118 27.5322 4.43537 27.7681C4.47985 27.832 4.5037 27.9079 4.5037 27.9858C4.5037 28.0636 4.47985 28.1396 4.43537 28.2035L4.69841 28.5753L4.98866 28.6298C5.07751 28.648 5.15749 28.696 5.21542 28.7658C5.38776 28.9926 5.57823 29.2103 5.76871 29.4189C5.81786 29.4791 5.84834 29.5524 5.8564 29.6298C5.86445 29.7071 5.84974 29.7851 5.81406 29.8542L6.13152 30.1898H6.42177C6.5107 30.1974 6.59416 30.2359 6.6576 30.2987L7.29252 30.8792C7.35135 30.9291 7.39274 30.9964 7.41068 31.0715C7.42862 31.1465 7.42218 31.2253 7.39229 31.2964L7.74603 31.5867H8.03628C8.12705 31.5781 8.21772 31.604 8.29025 31.6592L8.97959 32.1581C9.04591 32.1984 9.09756 32.2589 9.12695 32.3308C9.15633 32.4026 9.16191 32.482 9.14286 32.5572L9.53288 32.8021L9.81406 32.7477C9.89973 32.7211 9.99143 32.7211 10.0771 32.7477C10.322 32.8928 10.576 33.0289 10.8299 33.1558C10.8978 33.1924 10.9536 33.2478 10.9906 33.3155C11.0276 33.3831 11.0443 33.4599 11.0385 33.5368L11.4558 33.7273L11.7279 33.6456C11.8126 33.6136 11.9062 33.6136 11.9909 33.6456L12.7982 33.954C12.8692 33.9798 12.9306 34.0266 12.9744 34.0882C13.0181 34.1497 13.0421 34.2232 13.0431 34.2987L13.4875 34.4438L13.7506 34.3259C13.8362 34.2988 13.928 34.2988 14.0136 34.3259L14.8481 34.5345C14.9215 34.5514 14.9883 34.5898 15.04 34.6447C15.0917 34.6996 15.1259 34.7686 15.1383 34.8429C15.134 34.8577 15.134 34.8735 15.1383 34.8883L15.5828 34.9699L15.8367 34.8157C15.9132 34.7704 16.0024 34.7513 16.0907 34.7613L16.6349 34.8338H16.8345H16.9433C17.0194 34.8391 17.092 34.8682 17.1506 34.9171C17.2092 34.9659 17.2509 35.032 17.2698 35.106C17.2747 35.1793 17.2501 35.2516 17.2016 35.3069C17.1532 35.3622 17.0847 35.3959 17.0113 35.4007C16.938 35.4055 16.8657 35.381 16.8104 35.3325C16.7551 35.2841 16.7214 35.2156 16.7166 35.1422V35.1694Z" fill="#212121"/>
<path d="M17.9412 29.6183C15.636 29.6183 13.3826 28.9347 11.4659 27.654C9.54916 26.3733 8.05527 24.553 7.1731 22.4233C6.29094 20.2935 6.06012 17.95 6.50985 15.6891C6.95957 13.4282 8.06963 11.3514 9.69966 9.72139C11.3297 8.09136 13.4065 6.9813 15.6674 6.53158C17.9283 6.08185 20.2718 6.31266 22.4015 7.19483C24.5313 8.07699 26.3516 9.5709 27.6323 11.4876C28.913 13.4043 29.5966 15.6577 29.5966 17.963C29.5918 21.0527 28.3622 24.0145 26.1775 26.1992C23.9927 28.384 21.0309 29.6135 17.9412 29.6183ZM17.9412 7.06953C15.7885 7.06953 13.6841 7.70788 11.8942 8.90387C10.1043 10.0999 8.7092 11.7998 7.88539 13.7886C7.06158 15.7775 6.84603 17.966 7.26601 20.0773C7.68598 22.1887 8.72262 24.1281 10.2448 25.6503C11.767 27.1725 13.7064 28.2091 15.8178 28.6291C17.9291 29.0491 20.1176 28.8335 22.1065 28.0097C24.0953 27.1859 25.7952 25.7908 26.9912 24.0009C28.1872 22.211 28.8256 20.1066 28.8256 17.9539C28.8256 15.0672 27.6788 12.2987 25.6376 10.2575C23.5964 8.21626 20.8279 7.06953 17.9412 7.06953Z" fill="#212121"/>
<path d="M17.0615 29.1376H16.8528C14.8642 28.9404 12.9643 28.216 11.3491 27.0393C9.73387 25.8626 8.46197 24.2762 7.66463 22.4437L7.57392 22.2533C7.55166 22.2033 7.54016 22.1492 7.54016 22.0945C7.54016 22.0398 7.55166 21.9858 7.57392 21.9358C7.59612 21.8888 7.62768 21.8469 7.66668 21.8126C7.70567 21.7783 7.75128 21.7523 7.80068 21.7363L12.2361 20.3485C12.694 20.204 13.1708 20.1276 13.651 20.1217C14.1622 20.117 14.6688 20.2176 15.1393 20.4174C15.6098 20.6172 16.0341 20.9119 16.3856 21.283C16.7371 21.6541 17.0083 22.0937 17.1824 22.5743C17.3564 23.0549 17.4295 23.5663 17.3971 24.0764C17.3971 26.2895 17.4424 28.1308 17.4515 28.539V28.7929C17.4554 28.8458 17.4468 28.8988 17.4263 28.9477C17.4058 28.9966 17.374 29.0399 17.3336 29.0741C17.2949 29.1026 17.2508 29.123 17.204 29.1339C17.1573 29.1448 17.1087 29.1461 17.0615 29.1376ZM8.45374 22.3258C9.19889 23.9453 10.346 25.3473 11.786 26.3983C13.226 27.4493 14.9109 28.1144 16.6805 28.3304C16.6805 27.6773 16.6805 26.0265 16.6261 24.0855C16.6559 23.6772 16.6015 23.2671 16.4661 22.8808C16.3307 22.4945 16.1173 22.1401 15.8391 21.8398C15.5609 21.5395 15.2239 21.2996 14.849 21.1351C14.4742 20.9707 14.0695 20.885 13.6601 20.8836C13.2567 20.887 12.8561 20.9512 12.4719 21.0741L8.45374 22.3258Z" fill="#212121"/>
<path d="M16.6801 28.7203H16.6256C14.7934 28.4916 13.0494 27.8004 11.5579 26.7119C10.0663 25.6234 8.87624 24.1733 8.09956 22.4981C8.0773 22.4482 8.0658 22.3941 8.0658 22.3394C8.0658 22.2847 8.0773 22.2306 8.09956 22.1807C8.12067 22.1304 8.15283 22.0855 8.19366 22.0494C8.23449 22.0133 8.28293 21.9869 8.33539 21.972L12.3626 20.7113C12.7825 20.58 13.2197 20.5127 13.6596 20.5117C15.637 20.5117 16.9794 21.9448 17.0066 24.0945L17.061 28.3394C17.061 28.4413 17.0212 28.5391 16.95 28.612C16.8788 28.6849 16.7819 28.727 16.6801 28.7294V28.7203ZM8.98845 22.5616C9.71327 23.9515 10.7493 25.1551 12.0159 26.0786C13.2824 27.0022 14.7451 27.6207 16.29 27.8859L16.2447 24.0854C16.2833 23.7251 16.2449 23.3607 16.132 23.0163C16.0191 22.6719 15.8344 22.3555 15.5899 22.0879C15.3455 21.8203 15.047 21.6077 14.7143 21.4642C14.3815 21.3207 14.022 21.2496 13.6596 21.2555C13.2961 21.2566 12.9349 21.3147 12.5894 21.4278L8.98845 22.5616Z" fill="#212121"/>
<path d="M18.8209 29.1377C18.7726 29.1399 18.7243 29.1322 18.679 29.1151C18.6338 29.0979 18.5925 29.0716 18.5579 29.0379C18.4829 28.9635 18.4405 28.8624 18.4399 28.7567L18.4944 24.0764C18.4607 23.5671 18.5323 23.0563 18.7047 22.5758C18.877 22.0954 19.1464 21.6555 19.4962 21.2837C19.8459 20.9119 20.2684 20.616 20.7374 20.4146C21.2064 20.2131 21.7118 20.1104 22.2223 20.1127C22.7025 20.1185 23.1792 20.1949 23.6372 20.3395L28.0726 21.7272C28.1232 21.7432 28.1701 21.769 28.2106 21.8033C28.2511 21.8375 28.2843 21.8795 28.3084 21.9268C28.3307 21.9767 28.3422 22.0308 28.3422 22.0855C28.3422 22.1402 28.3307 22.1943 28.3084 22.2442L28.2177 22.4347C27.4228 24.2592 26.1574 25.8397 24.5508 27.0143C22.9443 28.1889 21.0545 28.9154 19.0749 29.1195H18.8572L18.8209 29.1377ZM22.2223 20.8837C21.8129 20.8851 21.4082 20.9707 21.0333 21.1352C20.6585 21.2997 20.3215 21.5396 20.0433 21.8399C19.7651 22.1402 19.5516 22.4945 19.4163 22.8809C19.2809 23.2672 19.2264 23.6772 19.2563 24.0855L19.2109 28.3304C20.9797 28.112 22.6635 27.4459 24.1031 26.3952C25.5427 25.3445 26.6904 23.9439 27.4377 22.3259L23.4105 21.0742C23.0262 20.9513 22.6257 20.887 22.2223 20.8837Z" fill="#212121"/>
<path d="M19.2108 28.7204C19.1074 28.7204 19.0082 28.6793 18.935 28.6061C18.8619 28.533 18.8208 28.4338 18.8208 28.3304L18.8752 24.0854C18.8752 21.9358 20.2448 20.5027 22.2222 20.5027C22.6621 20.5037 23.0993 20.571 23.5192 20.7022L27.5464 21.963C27.5989 21.9778 27.6473 22.0043 27.6881 22.0404C27.729 22.0765 27.7611 22.1214 27.7823 22.1716C27.8045 22.2216 27.816 22.2757 27.816 22.3303C27.816 22.385 27.8045 22.4391 27.7823 22.4891C27.0056 24.1643 25.8155 25.6144 24.3239 26.7029C22.8324 27.7914 21.0884 28.4825 19.2562 28.7113L19.2108 28.7204ZM22.2222 21.2646C20.6711 21.2646 19.6643 22.3712 19.6371 24.0945V27.895C21.1747 27.6223 22.629 26.9994 23.8873 26.0746C25.1456 25.1498 26.1741 23.9478 26.8934 22.5616L23.2652 21.4369C22.9284 21.3266 22.5766 21.2685 22.2222 21.2646Z" fill="#212121"/>
<path d="M7.4197 20.802C7.35218 20.8034 7.28579 20.7845 7.22922 20.7476C7.18144 20.721 7.13979 20.6846 7.10698 20.6408C7.07416 20.5971 7.05091 20.5469 7.03875 20.4936L6.9934 20.285C6.83819 19.5207 6.75919 18.7429 6.75757 17.963C6.75921 16.3797 7.09538 14.8146 7.74408 13.3703C8.39277 11.926 9.33933 10.635 10.5217 9.58205L10.685 9.43692C10.7255 9.40201 10.773 9.37603 10.8242 9.36066C10.8754 9.3453 10.9293 9.34089 10.9824 9.34774C11.0354 9.35458 11.0864 9.37253 11.1321 9.4004C11.1777 9.42826 11.217 9.46543 11.2474 9.50949L13.8959 13.2464C14.3015 13.7326 14.5777 14.3134 14.6986 14.9348C14.8196 15.5563 14.7815 16.1982 14.5878 16.801C14.3941 17.4038 14.0511 17.9478 13.5908 18.3825C13.1305 18.8172 12.5677 19.1284 11.9548 19.2873L7.55575 20.7748C7.51339 20.7951 7.46661 20.8044 7.4197 20.802ZM10.8755 10.2986C9.81778 11.2756 8.97363 12.4609 8.39608 13.7799C7.81853 15.0989 7.52008 16.5231 7.51947 17.963C7.52122 18.6172 7.58193 19.2698 7.70088 19.9131L11.6918 18.5707C12.1899 18.4468 12.6481 18.198 13.0233 17.8477C13.3986 17.4975 13.6783 17.0575 13.8363 16.5691C13.9942 16.0808 14.0251 15.5603 13.926 15.0567C13.827 14.5531 13.6012 14.083 13.27 13.6909L10.8755 10.2986Z" fill="#212121"/>
<path d="M7.67356 20.2942C7.61078 20.3077 7.54585 20.3077 7.48308 20.2942C7.4356 20.2661 7.39479 20.228 7.36346 20.1826C7.33214 20.1372 7.31106 20.0855 7.30167 20.0312C6.95759 18.2261 7.07844 16.3632 7.65285 14.6178C8.22726 12.8724 9.23634 11.3018 10.5851 10.0538C10.6256 10.0177 10.673 9.99028 10.7245 9.97312C10.776 9.95597 10.8304 9.94948 10.8844 9.95406C10.9378 9.96012 10.9895 9.97691 11.0362 10.0034C11.083 10.0299 11.1239 10.0656 11.1565 10.1083L13.5602 13.5006C13.9204 13.9446 14.1629 14.4723 14.2652 15.0348C14.3676 15.5974 14.3264 16.1767 14.1456 16.7191C13.9648 17.2616 13.6501 17.7497 13.2307 18.1383C12.8113 18.527 12.3007 18.8036 11.7461 18.9427L7.76426 20.2851C7.73464 20.2926 7.70407 20.2957 7.67356 20.2942ZM10.7937 10.8792C8.92874 12.7661 7.87982 15.3102 7.8731 17.9631C7.87326 18.4459 7.90964 18.928 7.98195 19.4053L11.5375 18.208C11.9805 18.105 12.3893 17.8893 12.7244 17.5817C13.0594 17.2742 13.3093 16.8853 13.4499 16.4528C13.5904 16.0202 13.6168 15.5587 13.5264 15.113C13.4361 14.6673 13.2322 14.2524 12.9343 13.9087L10.7937 10.8792Z" fill="#212121"/>
<path d="M28.4989 20.8021C28.4571 20.8115 28.4137 20.8115 28.3719 20.8021L23.9819 19.3146C23.3682 19.1571 22.8043 18.8472 22.3422 18.4137C21.8802 17.9803 21.535 17.4372 21.3388 16.8348C21.1425 16.2324 21.1014 15.5902 21.2194 14.9677C21.3374 14.3452 21.6106 13.7626 22.0136 13.2738L24.6531 9.50963C24.6841 9.46446 24.7244 9.42649 24.7713 9.39831C24.8183 9.37014 24.8708 9.35241 24.9252 9.34636C24.9786 9.34106 25.0325 9.34634 25.0839 9.3619C25.1353 9.37746 25.183 9.40301 25.2245 9.43707L25.3787 9.58219C26.5694 10.631 27.5245 11.9201 28.1811 13.3647C28.8377 14.8092 29.1809 16.3764 29.1882 17.9631C29.1885 18.7436 29.1064 19.5219 28.9433 20.2851L28.898 20.4938C28.8858 20.5471 28.8626 20.5972 28.8298 20.641C28.797 20.6847 28.7553 20.7211 28.7075 20.7477C28.6461 20.789 28.5726 20.8081 28.4989 20.8021ZM25.0431 10.2987L22.6395 13.691C22.3058 14.0829 22.0782 14.5537 21.9782 15.0585C21.8783 15.5634 21.9094 16.0854 22.0686 16.5748C22.2278 17.0642 22.5098 17.5046 22.8876 17.8541C23.2654 18.2035 23.7265 18.4503 24.2268 18.5708L28.2087 19.9133C28.3276 19.27 28.3883 18.6173 28.3901 17.9631C28.389 16.5242 28.0912 15.1009 27.5153 13.7821C26.9395 12.4634 26.0979 11.2776 25.0431 10.2987Z" fill="#212121"/>
<path d="M28.2084 20.2941C28.1665 20.3029 28.1233 20.3029 28.0814 20.2941L24.0995 18.9517C23.5449 18.8126 23.0343 18.536 22.6149 18.1473C22.1955 17.7587 21.8809 17.2705 21.7001 16.7281C21.5192 16.1856 21.4781 15.6064 21.5804 15.0438C21.6827 14.4813 21.9252 13.9536 22.2855 13.5095L24.6891 10.1172C24.7217 10.0745 24.7627 10.0389 24.8094 10.0124C24.8562 9.98588 24.9078 9.96911 24.9612 9.96305C25.0153 9.95791 25.0699 9.96414 25.1214 9.98132C25.173 9.9985 25.2203 10.0263 25.2605 10.0628C26.6093 11.3107 27.6184 12.8813 28.1928 14.6268C28.7672 16.3722 28.8881 18.2351 28.544 20.0401C28.5346 20.0945 28.5135 20.1462 28.4822 20.1916C28.4509 20.237 28.4101 20.2751 28.3626 20.3032C28.311 20.309 28.2589 20.3059 28.2084 20.2941ZM25.0973 10.8791L22.9476 13.9086C22.6498 14.2523 22.4458 14.6672 22.3555 15.1129C22.2652 15.5586 22.2916 16.0202 22.4321 16.4527C22.5726 16.8852 22.8225 17.2741 23.1576 17.5816C23.4926 17.8892 23.9015 18.1049 24.3444 18.2079L27.9091 19.4052C27.9739 18.9272 28.0072 18.4454 28.0088 17.963C28.0007 15.3121 26.9557 12.7696 25.0973 10.8791Z" fill="#212121"/>
<path d="M17.941 20.5753C17.4243 20.5753 16.9193 20.4221 16.4897 20.1351C16.0601 19.848 15.7253 19.4401 15.5276 18.9627C15.3299 18.4854 15.2781 17.9602 15.3789 17.4535C15.4797 16.9467 15.7285 16.4813 16.0938 16.1159C16.4592 15.7506 16.9246 15.5018 17.4314 15.401C17.9381 15.3002 18.4633 15.352 18.9406 15.5497C19.418 15.7474 19.8259 16.0822 20.113 16.5118C20.4 16.9414 20.5532 17.4464 20.5532 17.9631C20.5508 18.6551 20.2749 19.3182 19.7855 19.8076C19.2961 20.2969 18.6331 20.5729 17.941 20.5753ZM17.941 16.1127C17.5822 16.1127 17.2315 16.2191 16.9331 16.4185C16.6348 16.6178 16.4023 16.9011 16.265 17.2326C16.1277 17.5641 16.0918 17.9288 16.1618 18.2807C16.2318 18.6326 16.4045 18.9558 16.6582 19.2095C16.9119 19.4632 17.2352 19.636 17.5871 19.706C17.939 19.776 18.3037 19.7401 18.6352 19.6028C18.9667 19.4655 19.25 19.2329 19.4493 18.9346C19.6486 18.6363 19.755 18.2856 19.755 17.9268C19.7574 17.6871 19.7123 17.4492 19.6222 17.227C19.5321 17.0048 19.3989 16.8027 19.2302 16.6323C19.0615 16.4619 18.8607 16.3267 18.6394 16.2344C18.4181 16.1421 18.1807 16.0946 17.941 16.0946V16.1127Z" fill="#212121"/>
<path d="M17.9409 20.1854C17.4992 20.1854 17.0674 20.0543 16.7003 19.8087C16.3332 19.5631 16.0472 19.2141 15.8786 18.8058C15.71 18.3976 15.6663 17.9485 15.7531 17.5154C15.84 17.0823 16.0534 16.6848 16.3663 16.3731C16.6793 16.0614 17.0777 15.8496 17.5112 15.7646C17.9446 15.6795 18.3935 15.725 18.8011 15.8952C19.2086 16.0655 19.5565 16.3529 19.8005 16.721C20.0446 17.0892 20.174 17.5214 20.1722 17.9631C20.1698 18.5533 19.9336 19.1185 19.5154 19.535C19.0972 19.9515 18.5311 20.1854 17.9409 20.1854ZM17.9409 16.4938C17.6503 16.4938 17.3662 16.5799 17.1245 16.7414C16.8829 16.9028 16.6945 17.1323 16.5833 17.4008C16.4721 17.6693 16.443 17.9648 16.4997 18.2498C16.5564 18.5348 16.6964 18.7966 16.9019 19.0021C17.1074 19.2076 17.3692 19.3476 17.6542 19.4043C17.9392 19.461 18.2347 19.4319 18.5032 19.3207C18.7717 19.2095 19.0012 19.0211 19.1626 18.7795C19.3241 18.5378 19.4103 18.2538 19.4103 17.9631C19.4079 17.5742 19.2523 17.2018 18.9773 16.9268C18.7022 16.6517 18.3298 16.4961 17.9409 16.4938Z" fill="#212121"/>
<path d="M17.9409 14.3349C17.3113 14.3183 16.6948 14.1517 16.1426 13.8488C15.5904 13.5459 15.1186 13.1155 14.7663 12.5934L12.0452 8.96524C12.0134 8.92289 11.9906 8.87451 11.9781 8.82305C11.9657 8.77159 11.9638 8.71812 11.9727 8.66592C11.9848 8.6126 12.0081 8.56244 12.0409 8.51869C12.0737 8.47493 12.1154 8.43856 12.1631 8.41195L12.3445 8.30311C14.0494 7.3113 15.9866 6.78882 17.9591 6.78882C19.9315 6.78882 21.8687 7.3113 23.5736 8.30311L23.755 8.41195C23.8028 8.43856 23.8444 8.47493 23.8772 8.51869C23.91 8.56244 23.9333 8.6126 23.9454 8.66592C23.9543 8.71812 23.9524 8.77159 23.94 8.82305C23.9275 8.87451 23.9047 8.92289 23.8729 8.96524L21.1518 12.5934C20.796 13.1204 20.3184 13.5539 19.7595 13.857C19.2005 14.1602 18.5767 14.3241 17.9409 14.3349ZM12.8615 8.83826L15.3377 12.1671C15.607 12.6061 15.9844 12.9687 16.4338 13.2202C16.8832 13.4718 17.3896 13.6038 17.9046 13.6038C18.4196 13.6038 18.9261 13.4718 19.3755 13.2202C19.8249 12.9687 20.2022 12.6061 20.4715 12.1671L22.984 8.83826C21.4369 7.97481 19.6945 7.52153 17.9228 7.52153C16.151 7.52153 14.4087 7.97481 12.8615 8.83826Z" fill="#212121"/>
<path d="M17.9411 13.9541C17.3708 13.9343 16.8132 13.7802 16.3136 13.5044C15.814 13.2286 15.3865 12.8388 15.0658 12.3668L12.5896 9.03797C12.5571 8.99434 12.5346 8.94411 12.5236 8.89082C12.5127 8.83754 12.5135 8.7825 12.5261 8.72958C12.5362 8.67664 12.5576 8.62649 12.5889 8.58264C12.6202 8.53879 12.6607 8.50228 12.7075 8.47562C14.3095 7.58941 16.1103 7.12451 17.9411 7.12451C19.7719 7.12451 21.5727 7.58941 23.1747 8.47562C23.2211 8.50321 23.2613 8.54014 23.2927 8.58408C23.3241 8.62803 23.3461 8.67802 23.3572 8.73089C23.3683 8.78375 23.3682 8.83835 23.3571 8.89121C23.346 8.94407 23.324 8.99405 23.2926 9.03797L20.8164 12.3668C20.4957 12.8388 20.0682 13.2286 19.5686 13.5044C19.069 13.7802 18.5114 13.9343 17.9411 13.9541ZM13.4694 8.9382L15.6826 11.9133C15.9148 12.3083 16.2462 12.6358 16.6439 12.8633C17.0417 13.0909 17.4919 13.2106 17.9502 13.2106C18.4084 13.2106 18.8587 13.0909 19.2564 12.8633C19.6541 12.6358 19.9855 12.3083 20.2177 11.9133L22.4309 8.9382C21.036 8.25495 19.5034 7.89974 17.9502 7.89974C16.397 7.89974 14.8643 8.25495 13.4694 8.9382Z" fill="#212121"/>
<path d="M16.2901 28.2759H16.2266C14.6204 28.0043 13.0993 27.363 11.7834 26.4028C10.4674 25.4427 9.39264 24.1898 8.64382 22.7431C8.62134 22.6916 8.60974 22.636 8.60974 22.5798C8.60974 22.5236 8.62134 22.468 8.64382 22.4165C8.69107 22.316 8.77568 22.2379 8.87965 22.1989L11.1926 21.4823C11.2752 21.4562 11.3643 21.459 11.4451 21.4904C11.5259 21.5217 11.5936 21.5796 11.637 21.6546C12.1435 22.5239 12.8237 23.2793 13.6352 23.8739C14.4468 24.4685 15.3721 24.8894 16.3536 25.1104C16.4361 25.1301 16.5101 25.1762 16.5641 25.2416C16.6181 25.3071 16.6493 25.3884 16.6529 25.4732V27.895C16.6547 27.952 16.6433 28.0086 16.6197 28.0605C16.5961 28.1124 16.5609 28.1582 16.5168 28.1943C16.4518 28.2448 16.3724 28.2734 16.2901 28.2759ZM9.54178 22.7884C10.2204 23.9603 11.1353 24.9783 12.2283 25.7778C13.3213 26.5772 14.5686 27.1407 15.891 27.4324V25.7726C13.925 25.2458 12.2267 24.0036 11.1291 22.2896L9.54178 22.7884Z" fill="#212121"/>
<path d="M14.9115 11.2601C14.8516 11.2604 14.7924 11.2467 14.7388 11.2199C14.6852 11.1931 14.6387 11.154 14.6031 11.1059L13.1609 9.1739C13.1287 9.12836 13.1065 9.07659 13.0955 9.02191C13.0846 8.96723 13.0852 8.91087 13.0974 8.85645C13.11 8.80209 13.1345 8.75115 13.1689 8.70727C13.2034 8.66338 13.2471 8.62761 13.297 8.60248C14.7387 7.88093 16.3287 7.50525 17.9409 7.50525C19.5532 7.50525 21.1432 7.88093 22.5849 8.60248C22.6348 8.62761 22.6785 8.66338 22.713 8.70727C22.7474 8.75115 22.7719 8.80209 22.7845 8.85645C22.7967 8.91087 22.7973 8.96723 22.7864 9.02191C22.7754 9.07659 22.7532 9.12836 22.721 9.1739L21.2788 11.1059C21.2259 11.1743 21.1522 11.2237 21.0687 11.2466C20.9853 11.2695 20.8967 11.2647 20.8162 11.2329C19.9083 10.841 18.9298 10.6389 17.9409 10.6389C16.9521 10.6389 15.9736 10.841 15.0657 11.2329C15.0162 11.2506 14.964 11.2598 14.9115 11.2601ZM14.0589 9.09227L15.0385 10.4165C16.9071 9.7002 18.9747 9.7002 20.8434 10.4165L21.823 9.09227C20.5973 8.56263 19.2762 8.28941 17.9409 8.28941C16.6057 8.28941 15.2846 8.56263 14.0589 9.09227Z" fill="#212121"/>
<path d="M7.9819 19.7952C7.91068 19.7936 7.84141 19.7715 7.78235 19.7317C7.73404 19.7046 7.69258 19.6668 7.66113 19.6212C7.62969 19.5756 7.6091 19.5234 7.60095 19.4687C7.37371 17.8734 7.51916 16.2471 8.02589 14.7175C8.53262 13.1879 9.38685 11.7964 10.5216 10.6523C10.5595 10.6115 10.606 10.5797 10.6578 10.5593C10.7096 10.5389 10.7654 10.5304 10.8209 10.5344C10.8766 10.5404 10.9304 10.558 10.9789 10.5861C11.0273 10.6142 11.0693 10.6523 11.1021 10.6977L12.4989 12.6659C12.5511 12.7352 12.5794 12.8196 12.5794 12.9063C12.5794 12.993 12.5511 13.0774 12.4989 13.1467C11.3177 14.4859 10.6718 16.2136 10.6848 17.9993C10.6848 18.226 10.6848 18.4528 10.6848 18.6342C10.69 18.7202 10.6671 18.8055 10.6197 18.8775C10.5723 18.9494 10.5029 19.0041 10.4218 19.0333L8.12702 19.8043C8.07869 19.814 8.02864 19.8109 7.9819 19.7952ZM10.7483 11.4868C9.15227 13.2675 8.26477 15.5717 8.25401 17.963C8.25401 18.2714 8.25401 18.5888 8.25401 18.87L9.82317 18.3349C9.82317 18.2079 9.82317 18.0718 9.82317 17.9358C9.81658 16.0663 10.4576 14.2523 11.6372 12.802L10.7483 11.4868Z" fill="#212121"/>
<path d="M19.5917 28.276C19.5023 28.2734 19.4163 28.2415 19.3468 28.1853C19.3027 28.1492 19.2675 28.1034 19.2439 28.0515C19.2203 27.9996 19.209 27.943 19.2108 27.886V25.4642C19.2144 25.3794 19.2455 25.2981 19.2996 25.2326C19.3536 25.1671 19.4275 25.1211 19.5101 25.1014C20.4915 24.8804 21.4169 24.4595 22.2284 23.8649C23.0399 23.2703 23.7201 22.5148 24.2266 21.6456C24.2701 21.5706 24.3378 21.5127 24.4186 21.4813C24.4994 21.45 24.5884 21.4472 24.6711 21.4733L26.984 22.1898C27.0362 22.2078 27.0842 22.2365 27.1248 22.2739C27.1654 22.3114 27.1977 22.3569 27.2198 22.4075C27.2423 22.459 27.2539 22.5146 27.2539 22.5708C27.2539 22.627 27.2423 22.6826 27.2198 22.7341C26.471 24.1808 25.3962 25.4336 24.0803 26.3938C22.7643 27.354 21.2433 27.9952 19.6371 28.2669L19.5917 28.276ZM19.9999 25.7726V27.4325C21.3223 27.1407 22.5696 26.5773 23.6626 25.7778C24.7556 24.9783 25.6705 23.9604 26.3491 22.7885L24.7708 22.2896C23.6711 24.0055 21.9692 25.2479 19.9999 25.7726Z" fill="#212121"/>
<path d="M27.9095 19.7952C27.8677 19.8046 27.8244 19.8046 27.7825 19.7952L25.4878 19.0243C25.4066 18.9961 25.3374 18.9414 25.2913 18.8689C25.2452 18.7965 25.225 18.7106 25.2338 18.6252C25.2338 18.3712 25.2338 18.1717 25.2338 17.9902C25.2468 16.2046 24.6009 14.4769 23.4197 13.1376C23.3675 13.0684 23.3392 12.984 23.3392 12.8973C23.3392 12.8105 23.3675 12.7262 23.4197 12.6569L24.7803 10.6524C24.8131 10.607 24.855 10.5689 24.9035 10.5408C24.9519 10.5127 25.0058 10.4951 25.0615 10.4891C25.117 10.4851 25.1727 10.4936 25.2245 10.514C25.2763 10.5344 25.3229 10.5662 25.3608 10.607C26.5021 11.756 27.3603 13.155 27.8672 14.6931C28.3741 16.2312 28.5159 17.8663 28.2814 19.4687C28.2731 19.5223 28.2534 19.5735 28.2237 19.6188C28.1939 19.6642 28.1549 19.7027 28.1091 19.7317C28.0489 19.7692 27.9803 19.791 27.9095 19.7952ZM26.0138 18.3621L27.583 18.8973C27.583 18.5889 27.6284 18.2714 27.6284 17.9902C27.6176 15.599 26.7301 13.2947 25.134 11.5141L24.1816 12.8565C25.3613 14.3067 26.0023 16.1208 25.9957 17.9902C26.0229 18.09 26.0229 18.217 26.0138 18.3621Z" fill="#212121"/>
<path d="M17.9411 20.9562C17.3491 20.9562 16.7704 20.7807 16.2781 20.4518C15.7859 20.1229 15.4023 19.6554 15.1757 19.1085C14.9492 18.5616 14.8899 17.9597 15.0054 17.3791C15.1209 16.7985 15.406 16.2651 15.8246 15.8465C16.2432 15.4279 16.7765 15.1429 17.3571 15.0274C17.9378 14.9119 18.5396 14.9711 19.0865 15.1977C19.6335 15.4242 20.1009 15.8079 20.4298 16.3001C20.7587 16.7923 20.9343 17.371 20.9343 17.963C20.9343 18.7569 20.6189 19.5182 20.0576 20.0796C19.4963 20.6409 18.7349 20.9562 17.9411 20.9562ZM17.9411 15.7318C17.4998 15.7318 17.0684 15.8626 16.7014 16.1078C16.3345 16.353 16.0485 16.7014 15.8796 17.1092C15.7107 17.5169 15.6666 17.9655 15.7527 18.3983C15.8387 18.8312 16.0513 19.2288 16.3633 19.5408C16.6754 19.8529 17.0729 20.0654 17.5058 20.1515C17.9386 20.2376 18.3872 20.1934 18.795 20.0245C19.2027 19.8556 19.5511 19.5696 19.7963 19.2027C20.0415 18.8357 20.1724 18.4044 20.1724 17.963C20.1724 17.67 20.1147 17.3799 20.0025 17.1092C19.8904 16.8384 19.726 16.5925 19.5188 16.3853C19.3116 16.1781 19.0657 16.0137 18.795 15.9016C18.5242 15.7895 18.2341 15.7318 17.9411 15.7318ZM17.9411 19.8043C17.5823 19.8043 17.2316 19.6979 16.9332 19.4986C16.6349 19.2993 16.4024 19.0159 16.2651 18.6845C16.1278 18.353 16.0919 17.9882 16.1619 17.6363C16.2319 17.2845 16.4046 16.9612 16.6583 16.7075C16.912 16.4538 17.2353 16.2811 17.5872 16.2111C17.9391 16.1411 18.3038 16.177 18.6353 16.3143C18.9668 16.4516 19.2501 16.6841 19.4494 16.9824C19.6487 17.2807 19.7551 17.6315 19.7551 17.9903C19.7551 18.4714 19.564 18.9328 19.2238 19.273C18.8836 19.6132 18.4222 19.8043 17.9411 19.8043ZM17.9411 16.8746C17.7254 16.8728 17.5141 16.9351 17.3339 17.0536C17.1537 17.1721 17.0128 17.3415 16.929 17.5402C16.8453 17.7389 16.8224 17.958 16.8634 18.1698C16.9044 18.3815 17.0073 18.5763 17.1592 18.7294C17.311 18.8825 17.5049 18.9871 17.7163 19.0299C17.9277 19.0726 18.147 19.0516 18.3464 18.9695C18.5458 18.8874 18.7164 18.7479 18.8364 18.5687C18.9564 18.3895 19.0204 18.1787 19.0204 17.963C19.0216 17.8205 18.9946 17.6792 18.9409 17.5472C18.8872 17.4152 18.8079 17.2951 18.7075 17.1939C18.6072 17.0928 18.4878 17.0124 18.3562 16.9576C18.2247 16.9028 18.0836 16.8746 17.9411 16.8746Z" fill="#212121"/>
</svg>
