<svg width="72" height="72" viewBox="0 0 72 72" fill="none" xmlns="http://www.w3.org/2000/svg">
<circle cx="36" cy="36" r="36" fill="#212121"/>
<path d="M55.9124 35.5951C55.854 35.4657 54.4436 32.3896 51.2955 29.2934C48.3763 26.4225 43.3526 23 36 23C28.6475 23 23.6239 26.4224 20.7046 29.2935C17.5564 32.3896 16.1461 35.4657 16.0876 35.5952C16.0298 35.7231 16 35.8614 16 36.0013C16 36.1412 16.0298 36.2796 16.0876 36.4074C16.1461 36.5368 17.5566 39.6124 20.7046 42.7078C23.6242 45.5783 28.6475 49 36 49C43.3526 49 48.376 45.5783 51.2953 42.7078C54.4435 39.6124 55.854 36.5368 55.9123 36.4074C55.9701 36.2796 56 36.1412 56 36.0013C56 35.8613 55.9702 35.723 55.9124 35.5951ZM36 47C30.6817 47 26.0373 45.0973 22.1952 41.3449C20.5843 39.7715 19.2212 37.9704 18.1508 36.0013C19.2212 34.0317 20.5844 32.2302 22.1954 30.6562C26.0373 26.9029 30.6819 24.9997 36 24.9997C41.3182 24.9997 45.9628 26.9027 49.8046 30.6559C51.4157 32.2297 52.7788 34.0312 53.849 36.0007C52.7697 38.0341 47.3626 46.9998 36 46.9998V47ZM36 28.3345C34.458 28.3345 32.9506 28.7842 31.6684 29.6266C30.3863 30.469 29.387 31.6664 28.7969 33.0673C28.2068 34.4682 28.0524 36.0098 28.3532 37.497C28.654 38.9841 29.3966 40.3502 30.487 41.4224C31.5774 42.4946 32.9666 43.2248 34.479 43.5207C35.9914 43.8165 37.559 43.6646 38.9837 43.0844C40.4083 42.5041 41.626 41.5214 42.4827 40.2606C43.3394 38.9999 43.7966 37.5176 43.7966 36.0013C43.7943 33.9686 42.9721 32.0199 41.5105 30.5826C40.0488 29.1453 38.0671 28.3368 36 28.3345ZM36 41.668C34.8603 41.668 33.7461 41.3356 32.7984 40.7129C31.8507 40.0903 31.1121 39.2053 30.676 38.1698C30.2398 37.1343 30.1257 35.995 30.348 34.8957C30.5704 33.7965 31.1192 32.7868 31.9252 31.9943C32.7311 31.2018 33.7579 30.6621 34.8758 30.4434C35.9936 30.2248 37.1523 30.337 38.2053 30.7659C39.2583 31.1948 40.1583 31.9211 40.7916 32.853C41.4248 33.7849 41.7627 34.8805 41.7627 36.0013C41.761 37.5036 41.1534 38.944 40.073 40.0064C38.9926 41.0687 37.5279 41.6663 36 41.668Z" fill="#FFCE1B"/>
</svg>
