<svg width="36" height="36" viewBox="0 0 36 36" fill="none" xmlns="http://www.w3.org/2000/svg">
<path d="M18.733 28.6888C17.0966 28.6887 15.4854 28.285 14.0423 27.5135C12.5992 26.742 11.3686 25.6265 10.4595 24.2659C9.55044 22.9052 8.99095 21.3413 8.83061 19.7128C8.67026 18.0843 8.914 16.4413 9.54025 14.9295C10.1665 13.4177 11.1559 12.0836 12.4209 11.0455C13.6858 10.0073 15.1873 9.29716 16.7922 8.97788C18.3972 8.65859 20.0561 8.74003 21.6221 9.21499C23.188 9.68995 24.6127 10.5438 25.7699 11.7008C27.1617 13.0925 28.1096 14.8657 28.4936 16.7961C28.8777 18.7266 28.6806 20.7275 27.9274 22.5459C27.1741 24.3644 25.8985 25.9186 24.2619 27.012C22.6253 28.1054 20.7012 28.689 18.733 28.6888ZM12.7332 25.7917C14.1837 27.022 15.9809 27.7708 17.8759 27.9345C17.8676 27.8576 17.8676 27.78 17.8759 27.7031C17.8753 27.5909 17.8987 27.4799 17.9444 27.3774C16.1634 27.2292 14.4732 26.528 13.1103 25.3718C13.0669 25.4756 13.006 25.5713 12.9303 25.6546C12.893 25.7052 12.8498 25.7512 12.8017 25.7917H12.7332ZM19.4358 27.3774C19.4816 27.4799 19.5049 27.5909 19.5044 27.7031C19.5168 27.7798 19.5168 27.8579 19.5044 27.9345C21.3997 27.7725 23.1974 27.0235 24.6471 25.7917C24.5762 25.754 24.51 25.708 24.4499 25.6546C24.3728 25.5757 24.3117 25.4825 24.2699 25.3804C22.9247 26.5204 21.2605 27.2178 19.5044 27.3774H19.4358ZM18.6901 27.6089C18.6806 27.6048 18.6704 27.6028 18.6601 27.6028C18.6498 27.6028 18.6396 27.6048 18.6301 27.6089C18.6248 27.6195 18.6221 27.6312 18.6221 27.6431C18.6221 27.655 18.6248 27.6668 18.6301 27.6774C18.6301 27.7717 18.8187 27.7717 18.8187 27.6774C18.8133 27.6585 18.8022 27.6417 18.7868 27.6294C18.7715 27.6171 18.7526 27.6099 18.733 27.6089H18.6901ZM13.0674 24.3604C14.1786 25.4715 15.5944 26.2282 17.1356 26.5348C18.6769 26.8413 20.2745 26.684 21.7263 26.0826C23.1781 25.4812 24.419 24.4628 25.292 23.1562C26.1651 21.8496 26.6311 20.3135 26.6311 18.742C26.6311 17.1706 26.1651 15.6344 25.292 14.3278C24.419 13.0212 23.1781 12.0028 21.7263 11.4014C20.2745 10.8 18.6769 10.6426 17.1356 10.9492C15.5944 11.2558 14.1786 12.0124 13.0674 13.1236C12.3234 13.8579 11.7327 14.7327 11.3295 15.6972C10.9263 16.6617 10.7186 17.6966 10.7186 18.742C10.7186 19.7874 10.9263 20.8223 11.3295 21.7868C11.7327 22.7513 12.3234 23.6261 13.0674 24.3604ZM25.067 24.9861C25.0476 24.9796 25.0265 24.9796 25.007 24.9861C25.0018 24.9952 24.999 25.0055 24.999 25.0161C24.999 25.0266 25.0018 25.0369 25.007 25.0461C25.0023 25.0569 24.9999 25.0686 24.9999 25.0804C24.9999 25.0922 25.0023 25.1038 25.007 25.1146C25.0141 25.1253 25.0236 25.1339 25.0348 25.14C25.0461 25.146 25.0586 25.1492 25.0713 25.1492C25.0841 25.1492 25.0966 25.146 25.1078 25.14C25.119 25.1339 25.1286 25.1253 25.1356 25.1146C25.1414 25.0922 25.1414 25.0686 25.1356 25.0461C25.1421 25.0266 25.1421 25.0056 25.1356 24.9861C25.1215 24.9828 25.1068 24.9828 25.0928 24.9861H25.067ZM12.3989 24.9861C12.3768 24.9775 12.3524 24.9775 12.3303 24.9861C12.3238 25.0056 12.3238 25.0266 12.3303 25.0461C12.3245 25.0686 12.3245 25.0922 12.3303 25.1146C12.3818 25.1146 12.416 25.1146 12.4589 25.1146C12.4667 25.0925 12.4667 25.0683 12.4589 25.0461C12.4629 25.0366 12.465 25.0264 12.465 25.0161C12.465 25.0058 12.4629 24.9956 12.4589 24.9861C12.4476 24.9835 12.4359 24.9835 12.4246 24.9861H12.3989ZM25.367 24.3175C25.4692 24.3593 25.5623 24.4204 25.6413 24.4975C25.7 24.5551 25.7491 24.6217 25.787 24.6946C27.0202 23.2459 27.7695 21.4477 27.9298 19.552C27.7467 19.616 27.5472 19.616 27.3641 19.552C27.2118 21.3052 26.5235 22.9691 25.3927 24.3175H25.367ZM9.56185 19.4834C9.72611 21.3782 10.4749 23.1752 11.7046 24.6261C11.7425 24.5531 11.7917 24.4866 11.8503 24.4289C11.9293 24.3518 12.0225 24.2907 12.1246 24.249C10.9998 22.8977 10.3149 21.2349 10.1618 19.4834C9.96837 19.5557 9.75531 19.5557 9.56185 19.4834ZM27.7155 18.6263C27.6928 18.6263 27.671 18.6353 27.6549 18.6514C27.6388 18.6675 27.6298 18.6893 27.6298 18.712C27.6298 18.8149 27.8098 18.8149 27.8098 18.712C27.8099 18.7 27.8074 18.6881 27.8026 18.6771C27.7977 18.6661 27.7906 18.6562 27.7817 18.6482C27.7729 18.6401 27.7624 18.634 27.751 18.6302C27.7395 18.6264 27.7275 18.6251 27.7155 18.6263ZM9.80184 18.6263C9.80184 18.6263 9.74184 18.6263 9.73327 18.6263C9.72674 18.6458 9.72674 18.6668 9.73327 18.6863C9.73327 18.7892 9.91326 18.7892 9.91326 18.6863C9.91184 18.674 9.90745 18.6621 9.90048 18.6518C9.89351 18.6416 9.88415 18.6331 9.8732 18.6272C9.86226 18.6213 9.85006 18.6182 9.83764 18.618C9.82521 18.6178 9.81293 18.6207 9.80184 18.6263ZM9.80184 17.8977C9.91385 17.8991 10.0245 17.9224 10.1275 17.9663C10.2767 16.187 10.9745 14.4979 12.1246 13.1322C12.0207 13.0938 11.9269 13.0323 11.8503 12.9522C11.7897 12.8963 11.7403 12.8294 11.7046 12.7551C10.4778 14.2077 9.72943 16.0037 9.56185 17.8977C9.64256 17.8973 9.72306 17.9059 9.80184 17.9235V17.8977ZM25.3927 13.1322C26.5458 14.4961 27.244 16.1862 27.3898 17.9663C27.5736 17.9061 27.7718 17.9061 27.9555 17.9663C27.7918 16.0714 27.043 14.2742 25.8127 12.8236C25.7771 12.898 25.7276 12.9649 25.667 13.0208C25.5864 13.0854 25.4929 13.1322 25.3927 13.1579V13.1322ZM25.0928 12.2751C25.0733 12.2685 25.0522 12.2685 25.0328 12.2751C25.0159 12.2939 25.0066 12.3184 25.0066 12.3437C25.0066 12.369 25.0159 12.3934 25.0328 12.4122C25.0398 12.4228 25.0493 12.4315 25.0606 12.4375C25.0718 12.4436 25.0843 12.4467 25.097 12.4467C25.1098 12.4467 25.1223 12.4436 25.1335 12.4375C25.1447 12.4315 25.1543 12.4228 25.1613 12.4122C25.1671 12.3897 25.1671 12.3661 25.1613 12.3437C25.1679 12.3242 25.1679 12.3031 25.1613 12.2837L25.0928 12.2751ZM12.4246 12.2751C12.414 12.2698 12.4022 12.267 12.3903 12.267C12.3784 12.267 12.3667 12.2698 12.356 12.2751C12.3495 12.2945 12.3495 12.3156 12.356 12.3351C12.3502 12.3576 12.3502 12.3811 12.356 12.4036C12.4075 12.4465 12.4418 12.4465 12.4846 12.4036C12.4953 12.3957 12.5039 12.3853 12.5098 12.3734C12.5158 12.3615 12.5189 12.3484 12.5189 12.3351C12.5189 12.3218 12.5158 12.3086 12.5098 12.2967C12.5039 12.2848 12.4953 12.2745 12.4846 12.2665C12.4718 12.2681 12.4596 12.2728 12.4492 12.2803C12.4387 12.2878 12.4302 12.2978 12.4246 12.3094V12.2751ZM12.8017 11.6494C12.8747 11.6872 12.9413 11.7364 12.9989 11.7951C13.076 11.8741 13.1371 11.9672 13.1789 12.0694C14.5446 10.9192 16.2337 10.2214 18.013 10.0723C17.9691 9.96924 17.9458 9.85861 17.9444 9.74661C17.9355 9.66686 17.9355 9.58634 17.9444 9.50659C16.0475 9.68774 14.2522 10.4478 12.8017 11.6837V11.6494ZM19.5044 10.0723C21.2837 10.2214 22.9728 10.9192 24.3385 12.0694C24.3803 11.9672 24.4414 11.8741 24.5185 11.7951C24.5761 11.7364 24.6426 11.6872 24.7156 11.6494C23.2609 10.4259 21.466 9.67798 19.5729 9.50659C19.5861 9.58605 19.5861 9.66715 19.5729 9.74661C19.5763 9.87014 19.5529 9.99293 19.5044 10.1066V10.0723ZM18.7587 9.65231C18.7337 9.65231 18.7097 9.66225 18.692 9.67993C18.6743 9.69761 18.6644 9.7216 18.6644 9.74661C18.6644 9.82375 18.793 9.84087 18.8272 9.80658C18.8313 9.79709 18.8333 9.78689 18.8333 9.77658C18.8333 9.76628 18.8313 9.7561 18.8272 9.74661C18.8286 9.73389 18.8271 9.72102 18.8228 9.70897C18.8186 9.69691 18.8117 9.68596 18.8026 9.67692C18.7936 9.66788 18.7826 9.66099 18.7706 9.65673C18.7585 9.65247 18.7457 9.65096 18.733 9.65231H18.7587Z" fill="#212121"/>
<path d="M18.7334 26.8202C17.1344 26.8219 15.5709 26.3493 14.2406 25.4622C12.9103 24.5751 11.873 23.3134 11.2599 21.8366C10.6469 20.3599 10.4856 18.7345 10.7965 17.1661C11.1074 15.5976 11.8765 14.1566 13.0065 13.0254C14.1365 11.8942 15.5767 11.1235 17.1448 10.811C18.7129 10.4984 20.3385 10.658 21.8159 11.2695C23.2933 11.881 24.5561 12.9169 25.4446 14.2463C26.3331 15.5756 26.8074 17.1387 26.8074 18.7376C26.8074 20.8798 25.957 22.9343 24.4431 24.4498C22.9292 25.9654 20.8755 26.8179 18.7334 26.8202ZM18.7334 11.3921C17.2789 11.3921 15.8571 11.8234 14.6477 12.6315C13.4383 13.4396 12.4957 14.5881 11.9391 15.9319C11.3825 17.2757 11.2369 18.7543 11.5206 20.1809C11.8044 21.6074 12.5048 22.9178 13.5333 23.9463C14.5618 24.9747 15.8721 25.6752 17.2987 25.9589C18.7252 26.2427 20.2039 26.097 21.5476 25.5404C22.8914 24.9838 24.04 24.0412 24.848 22.8319C25.6561 21.6225 26.0874 20.2007 26.0874 18.7462C26.0874 16.795 25.3129 14.9236 23.934 13.5431C22.5551 12.1626 20.6846 11.3858 18.7334 11.3836V11.3921ZM18.7334 25.226C18.403 25.2237 18.0869 25.0909 17.854 24.8564C17.6212 24.622 17.4906 24.305 17.4906 23.9746C17.4889 23.7263 17.561 23.4832 17.6979 23.2762C17.8347 23.0691 18.0301 22.9073 18.2591 22.8116C18.4881 22.7158 18.7404 22.6903 18.9839 22.7383C19.2275 22.7863 19.4513 22.9057 19.6268 23.0812C19.8023 23.2567 19.9217 23.4804 19.9697 23.724C20.0177 23.9675 19.9922 24.2199 19.8964 24.4489C19.8006 24.6779 19.6389 24.8732 19.4318 25.0101C19.2247 25.1469 18.9816 25.2191 18.7334 25.2174V25.226ZM18.7334 23.4517C18.5947 23.4517 18.4617 23.5068 18.3637 23.6049C18.2656 23.7029 18.2105 23.8359 18.2105 23.9746C18.2105 24.078 18.2412 24.1791 18.2986 24.265C18.3561 24.351 18.4378 24.418 18.5333 24.4576C18.6288 24.4972 18.7339 24.5076 18.8354 24.4874C18.9368 24.4672 19.03 24.4174 19.1031 24.3443C19.1762 24.2712 19.226 24.178 19.2462 24.0766C19.2663 23.9752 19.256 23.87 19.2164 23.7745C19.1768 23.679 19.1098 23.5973 19.0238 23.5399C18.9379 23.4824 18.8368 23.4517 18.7334 23.4517ZM18.7334 22.0546C18.0824 22.0546 17.4461 21.8616 16.9048 21.5C16.3636 21.1383 15.9417 20.6243 15.6926 20.0229C15.4435 19.4215 15.3783 18.7597 15.5053 18.1212C15.6323 17.4828 15.9458 16.8963 16.4061 16.436C16.8664 15.9757 17.4528 15.6623 18.0913 15.5353C18.7297 15.4083 19.3915 15.4734 19.9929 15.7225C20.5943 15.9717 21.1083 16.3935 21.47 16.9348C21.8317 17.476 22.0247 18.1124 22.0247 18.7633C22.0247 19.6362 21.6779 20.4734 21.0607 21.0907C20.4434 21.7079 19.6063 22.0546 18.7334 22.0546ZM18.7334 16.192C18.2248 16.192 17.7277 16.3428 17.3048 16.6253C16.882 16.9079 16.5524 17.3095 16.3578 17.7793C16.1631 18.2492 16.1122 18.7662 16.2114 19.265C16.3107 19.7638 16.5555 20.2219 16.9152 20.5815C17.2748 20.9411 17.7329 21.186 18.2317 21.2853C18.7305 21.3845 19.2475 21.3336 19.7174 21.1389C20.1872 20.9443 20.5888 20.6148 20.8714 20.1919C21.1539 19.769 21.3047 19.2719 21.3047 18.7633C21.3081 18.4235 21.2441 18.0864 21.1164 17.7714C20.9887 17.4565 20.7998 17.17 20.5607 16.9285C20.3216 16.687 20.037 16.4953 19.7234 16.3644C19.4097 16.2336 19.0732 16.1663 18.7334 16.1663V16.192ZM23.9618 20.0147C23.7139 20.0164 23.4711 19.9445 23.2642 19.808C23.0573 19.6715 22.8956 19.4767 22.7995 19.2482C22.7035 19.0197 22.6775 18.7678 22.7248 18.5245C22.7721 18.2812 22.8906 18.0574 23.0653 17.8816C23.24 17.7057 23.4629 17.5856 23.7059 17.5366C23.9489 17.4877 24.2009 17.5119 24.4301 17.6064C24.6592 17.7009 24.8552 17.8612 24.9931 18.0672C25.131 18.2732 25.2046 18.5155 25.2046 18.7633C25.1981 19.0849 25.068 19.3916 24.8414 19.6198C24.6148 19.8481 24.309 19.9803 23.9875 19.989L23.9618 20.0147ZM23.9618 18.2405C23.8231 18.2405 23.6901 18.2956 23.5921 18.3936C23.494 18.4917 23.4389 18.6247 23.4389 18.7633C23.4389 18.902 23.494 19.035 23.5921 19.133C23.6901 19.2311 23.8231 19.2862 23.9618 19.2862C24.1004 19.2862 24.2334 19.2311 24.3315 19.133C24.4295 19.035 24.4846 18.902 24.4846 18.7633C24.4881 18.6947 24.4779 18.626 24.4548 18.5612C24.4317 18.4964 24.396 18.4369 24.3498 18.3859C24.3037 18.335 24.2479 18.2936 24.1857 18.2643C24.1235 18.2349 24.0562 18.2181 23.9875 18.2148L23.9618 18.2405ZM13.505 20.0147C13.2575 20.0147 13.0155 19.9413 12.8097 19.8038C12.604 19.6663 12.4436 19.4709 12.3488 19.2422C12.2541 19.0136 12.2294 18.762 12.2776 18.5192C12.3259 18.2765 12.4451 18.0535 12.6201 17.8785C12.7951 17.7035 13.0181 17.5843 13.2608 17.536C13.5036 17.4877 13.7552 17.5125 13.9839 17.6072C14.2125 17.7019 14.408 17.8623 14.5455 18.0681C14.683 18.2739 14.7564 18.5158 14.7564 18.7633C14.7498 19.0863 14.6185 19.3943 14.3901 19.6227C14.1616 19.8512 13.8537 19.9824 13.5307 19.989L13.505 20.0147ZM13.505 18.2405C13.3663 18.2405 13.2333 18.2956 13.1353 18.3936C13.0372 18.4917 12.9821 18.6247 12.9821 18.7633C12.9821 18.902 13.0372 19.035 13.1353 19.133C13.2333 19.2311 13.3663 19.2862 13.505 19.2862C13.6436 19.2862 13.7766 19.2311 13.8747 19.133C13.9727 19.035 14.0278 18.902 14.0278 18.7633C14.0313 18.6947 14.0212 18.626 13.998 18.5612C13.9749 18.4964 13.9392 18.4369 13.8931 18.3859C13.8469 18.335 13.7911 18.2936 13.7289 18.2643C13.6667 18.2349 13.5994 18.2181 13.5307 18.2148L13.505 18.2405ZM18.7334 14.812C18.4904 14.8066 18.2543 14.7305 18.0539 14.5931C17.8535 14.4557 17.6974 14.2629 17.6047 14.0383C17.512 13.8136 17.4867 13.5669 17.532 13.3281C17.5772 13.0893 17.6909 12.8689 17.8593 12.6937C18.0277 12.5185 18.2435 12.3962 18.4803 12.3416C18.7171 12.287 18.9647 12.3025 19.1928 12.3862C19.4209 12.47 19.6197 12.6184 19.7649 12.8132C19.9101 13.0081 19.9954 13.241 20.0105 13.4835C20.0152 13.6525 19.9854 13.8207 19.9229 13.9778C19.8604 14.1349 19.7665 14.2775 19.6469 14.3971C19.5274 14.5166 19.3847 14.6105 19.2276 14.673C19.0706 14.7355 18.9024 14.7653 18.7334 14.7606V14.812ZM18.7334 13.0378C18.5947 13.0378 18.4617 13.0929 18.3637 13.1909C18.2656 13.289 18.2105 13.422 18.2105 13.5606C18.2105 13.6993 18.2656 13.8323 18.3637 13.9303C18.4617 14.0284 18.5947 14.0835 18.7334 14.0835C18.872 14.0835 19.005 14.0284 19.1031 13.9303C19.2011 13.8323 19.2562 13.6993 19.2562 13.5606C19.2634 13.4878 19.2552 13.4142 19.2322 13.3447C19.2092 13.2752 19.1718 13.2114 19.1225 13.1572C19.0732 13.1031 19.0131 13.0599 18.9461 13.0305C18.8791 13.0011 18.8066 12.986 18.7334 12.9864V13.0378Z" fill="#212121"/>
<path d="M5.34565 15.3177H5.29423C5.23961 15.3085 5.18761 15.2877 5.14176 15.2567C5.09591 15.2256 5.05729 15.185 5.02852 15.1377C4.82274 14.7819 4.52719 14.4864 4.17141 14.2806C4.09612 14.2374 4.0385 14.169 4.00871 14.0874C3.97892 14.0059 3.97886 13.9165 4.00856 13.8349C4.54966 12.3879 5.28493 11.0211 6.1942 9.77219C6.24367 9.70932 6.31185 9.66379 6.38889 9.64222C6.46593 9.62065 6.54783 9.62414 6.62275 9.65218C7.04687 9.81687 7.50958 9.8553 7.95505 9.76283C8.40052 9.67035 8.80971 9.4509 9.13323 9.131C9.45675 8.81111 9.68077 8.40443 9.77826 7.96003C9.87575 7.51563 9.84255 7.05252 9.68265 6.62657C9.65461 6.55164 9.65112 6.46974 9.67269 6.3927C9.69426 6.31566 9.73978 6.24749 9.80265 6.19801C11.0499 5.28827 12.4171 4.55562 13.8654 4.02094C13.9458 3.98872 14.0351 3.98658 14.117 4.01492C14.1989 4.04326 14.2678 4.10019 14.3111 4.17524C14.5145 4.53279 14.8106 4.82888 15.1682 5.03235C15.2155 5.06017 15.2557 5.09868 15.2855 5.14483C15.3152 5.19097 15.3338 5.24345 15.3396 5.29806C15.3494 5.35268 15.3452 5.4089 15.3272 5.46141C15.3091 5.51391 15.278 5.56093 15.2367 5.59802L5.59421 15.1977C5.56336 15.2338 5.52533 15.2632 5.48254 15.2838C5.43975 15.3045 5.39314 15.316 5.34565 15.3177ZM4.77996 13.8263C5.00849 13.9852 5.21338 14.1757 5.38851 14.392L14.4482 5.36661C14.234 5.19246 14.0438 4.9907 13.8825 4.76662C12.6676 5.22889 11.5157 5.84227 10.454 6.59228C10.6168 7.12471 10.6316 7.6914 10.4968 8.23159C10.3621 8.77179 10.083 9.26515 9.6893 9.65883C9.29562 10.0525 8.80225 10.3317 8.26206 10.4664C7.72186 10.6011 7.15519 10.5863 6.62275 10.4236C5.87389 11.4796 5.25515 12.6221 4.77996 13.8263Z" fill="#212121"/>
<path d="M1.96852 21.0775C1.85433 21.0785 1.74096 21.0581 1.63424 21.0175C1.41856 20.8978 1.24368 20.7163 1.13216 20.4963C1.02063 20.2763 0.977579 20.028 1.00855 19.7833C0.993809 17.3144 1.46851 14.867 2.40522 12.5826C3.34192 10.2983 4.72206 8.22225 6.46588 6.47445C8.20969 4.72666 10.2826 3.34176 12.5648 2.39984C14.847 1.45792 17.2933 0.977656 19.7622 0.986761C20.0078 0.956574 20.2568 1.00089 20.4769 1.11399C20.697 1.22709 20.878 1.40375 20.9964 1.62102C21.0631 1.86637 21.0555 2.12597 20.9747 2.36702C20.8938 2.60806 20.7433 2.81973 20.5422 2.97524L2.99705 20.5632C2.73498 20.863 2.36556 21.0477 1.96852 21.0775ZM1.72852 19.7833C1.72852 20.1175 1.82281 20.3147 1.90852 20.349C1.99423 20.3832 2.22565 20.349 2.48279 20.0575L20.0793 2.461C20.3365 2.20386 20.4136 1.98958 20.3708 1.8953C20.3279 1.80102 20.1393 1.70673 19.8051 1.70673C18.8002 1.705 17.7969 1.78526 16.8052 1.94672C16.9389 1.99916 17.0591 2.08121 17.1566 2.18671C17.3132 2.34558 17.4193 2.5472 17.4617 2.76622C17.504 2.98525 17.4807 3.21189 17.3946 3.41769C17.3085 3.62349 17.1635 3.79923 16.9778 3.92284C16.7921 4.04644 16.574 4.1124 16.3509 4.1124C16.1278 4.1124 15.9097 4.04644 15.724 3.92284C15.5383 3.79923 15.3933 3.62349 15.3072 3.41769C15.2211 3.21189 15.1977 2.98525 15.2401 2.76622C15.2824 2.5472 15.3886 2.34558 15.5452 2.18671C12.5967 2.87964 9.8738 4.31337 7.63404 6.35227C7.88842 6.37827 8.12533 6.49369 8.30259 6.67798C8.513 6.88992 8.63107 7.17645 8.63107 7.47509C8.63107 7.77374 8.513 8.06029 8.30259 8.27223C8.1988 8.37849 8.07482 8.46291 7.93793 8.52056C7.80104 8.57821 7.65401 8.6079 7.50547 8.6079C7.35694 8.6079 7.2099 8.57821 7.07301 8.52056C6.93612 8.46291 6.81214 8.37849 6.70836 8.27223C6.52407 8.09496 6.40865 7.85806 6.38265 7.60368C4.34375 9.84344 2.91001 12.5664 2.21708 15.5148C2.37674 15.3596 2.57864 15.255 2.79748 15.2141C3.01633 15.1731 3.2424 15.1976 3.44737 15.2846C3.65235 15.3715 3.82712 15.517 3.94979 15.7028C4.07247 15.8886 4.13759 16.1064 4.13702 16.3291C4.13672 16.4775 4.10703 16.6243 4.04965 16.7611C3.99228 16.8979 3.90836 17.022 3.80274 17.1262C3.58725 17.3331 3.30008 17.4487 3.00134 17.4487C2.7026 17.4487 2.41543 17.3331 2.19994 17.1262C2.10256 17.0237 2.0242 16.9047 1.96852 16.7748C1.80671 17.7665 1.72645 18.7698 1.72852 19.7747V19.7833ZM3.00563 15.9262C2.9516 15.9262 2.8981 15.9369 2.84818 15.9576C2.79827 15.9782 2.75291 16.0085 2.71471 16.0468C2.67651 16.085 2.6462 16.1303 2.62553 16.1802C2.60485 16.2301 2.59421 16.2836 2.59421 16.3376C2.59527 16.4441 2.63841 16.5458 2.71421 16.6205C2.79103 16.6954 2.89406 16.7373 3.00134 16.7373C3.10861 16.7373 3.21164 16.6954 3.28847 16.6205C3.36427 16.5458 3.40741 16.4441 3.40847 16.3376C3.41114 16.2338 3.37439 16.1327 3.30561 16.0548C3.26735 16.0136 3.22089 15.9809 3.16922 15.9588C3.11756 15.9366 3.06183 15.9256 3.00563 15.9262ZM7.21405 7.77509C7.29088 7.84996 7.39391 7.89185 7.50119 7.89185C7.60846 7.89185 7.71149 7.84996 7.78832 7.77509C7.82668 7.73687 7.85711 7.69146 7.87787 7.64145C7.89864 7.59144 7.90932 7.53782 7.90932 7.48367C7.90932 7.42952 7.89864 7.3759 7.87787 7.32589C7.85711 7.27588 7.82668 7.23048 7.78832 7.19226C7.75191 7.15394 7.70802 7.12352 7.65936 7.10288C7.6107 7.08224 7.55832 7.0718 7.50547 7.07225C7.42396 7.07205 7.34422 7.09608 7.27637 7.14128C7.20853 7.18647 7.15564 7.2508 7.12442 7.3261C7.0932 7.4014 7.08505 7.48427 7.10101 7.56421C7.11696 7.64415 7.15631 7.71755 7.21405 7.77509ZM16.3595 2.5724C16.2779 2.5722 16.1982 2.59624 16.1304 2.64143C16.0625 2.68662 16.0096 2.75095 15.9784 2.82625C15.9472 2.90156 15.939 2.98442 15.955 3.06436C15.971 3.1443 16.0103 3.2177 16.068 3.27524C16.1449 3.35011 16.2479 3.392 16.3552 3.392C16.4624 3.392 16.5655 3.35011 16.6423 3.27524C16.6807 3.23702 16.7111 3.19161 16.7319 3.1416C16.7526 3.0916 16.7633 3.03797 16.7633 2.98382C16.7633 2.92968 16.7526 2.87605 16.7319 2.82605C16.7111 2.77604 16.6807 2.73063 16.6423 2.69241C16.5676 2.61661 16.4659 2.57346 16.3595 2.5724ZM5.2684 15.772H5.21698C5.16052 15.765 5.10668 15.7442 5.06029 15.7113C5.01391 15.6783 4.97644 15.6344 4.95127 15.5834L4.86556 15.412C4.66431 15.015 4.34352 14.6912 3.94845 14.4863L3.83702 14.4349C3.7602 14.393 3.70077 14.3252 3.66937 14.2435C3.63796 14.1619 3.63663 14.0717 3.6656 13.9892V13.8777C4.2262 12.3274 5.0086 10.8666 5.98838 9.54074L6.05695 9.45502C6.10515 9.38811 6.17536 9.34029 6.25527 9.31992C6.33519 9.29955 6.41972 9.30795 6.49408 9.34362H6.59693C6.98044 9.52622 7.41062 9.58718 7.82977 9.51835C8.24893 9.44952 8.63701 9.25419 8.94199 8.95854C9.24697 8.66288 9.45427 8.28104 9.53608 7.86423C9.61788 7.44742 9.5703 7.01556 9.39969 6.62656L9.34827 6.52371C9.31514 6.44813 9.30898 6.36345 9.33082 6.28387C9.35267 6.2043 9.40119 6.13464 9.46826 6.08657L9.55397 6.01801C10.8797 5.03803 12.3405 4.2556 13.891 3.69522L14.0024 3.65237C14.0859 3.62408 14.1768 3.6267 14.2586 3.65972C14.3404 3.69275 14.4076 3.75399 14.4481 3.83236L14.4995 3.93521C14.702 4.33205 15.0265 4.6535 15.4252 4.85233L15.5881 4.93804C15.6402 4.96211 15.6856 4.9986 15.7204 5.04429C15.7552 5.08999 15.7782 5.1435 15.7875 5.20016C15.7968 5.25683 15.7921 5.3149 15.7738 5.36932C15.7554 5.42374 15.724 5.47285 15.6823 5.51232L5.52554 15.6691C5.45552 15.734 5.36389 15.7707 5.2684 15.772ZM4.45415 13.9377C4.81656 14.1529 5.12684 14.4456 5.36269 14.7949L14.8338 5.34089C14.4851 5.10439 14.1925 4.79425 13.9767 4.43235C12.6156 4.94267 11.3297 5.63462 10.154 6.48942C10.3425 6.99446 10.3818 7.54307 10.2673 8.06985C10.1528 8.59663 9.88927 9.07938 9.50807 9.46057C9.12688 9.84176 8.64413 10.1053 8.11735 10.2198C7.59057 10.3343 7.04197 10.295 6.53693 10.1064C5.66804 11.2806 4.96703 12.5701 4.45415 13.9377Z" fill="#212121"/>
<path d="M7.5054 8.16084C7.32576 8.16054 7.15341 8.08974 7.02541 7.96369L6.98256 7.91227C6.92814 7.84743 6.89832 7.7655 6.89832 7.68086C6.89832 7.59621 6.92814 7.51426 6.98256 7.44942L7.20541 7.21801L7.43683 6.99515C7.47644 6.95776 7.52402 6.92987 7.57598 6.91354C7.62795 6.89721 7.68294 6.89287 7.73682 6.90088C7.80304 6.90855 7.86559 6.93535 7.91681 6.97802C8.04245 7.10619 8.11282 7.27852 8.11282 7.458C8.11282 7.63748 8.04245 7.8098 7.91681 7.93798C7.80915 8.05707 7.66396 8.13572 7.5054 8.16084Z" fill="#212121"/>
<path d="M3.00516 17.0147H2.92802C2.88069 17.0097 2.83491 16.995 2.79359 16.9714C2.75227 16.9478 2.71632 16.9158 2.68803 16.8776C2.65695 16.8413 2.63398 16.7989 2.62068 16.7531C2.60737 16.7072 2.60403 16.6591 2.61089 16.6119C2.61089 16.3976 2.67089 16.1833 2.70517 15.969C2.71277 15.9216 2.73048 15.8764 2.7571 15.8365C2.78372 15.7966 2.81863 15.7628 2.85945 15.7376C2.89859 15.7093 2.94315 15.6893 2.99034 15.679C3.03753 15.6687 3.08634 15.6682 3.13373 15.6776C3.26581 15.7074 3.3873 15.7726 3.48514 15.8662C3.60878 15.9954 3.67779 16.1673 3.67779 16.3461C3.67779 16.525 3.60878 16.6969 3.48514 16.8261C3.35628 16.9498 3.18377 17.0176 3.00516 17.0147ZM3.00516 16.3033V16.3633V16.3204V16.3033Z" fill="#212121"/>
<path d="M18.7331 35.0228C14.7659 35.0248 10.9344 33.5786 7.95793 30.9557C4.9815 28.3328 3.06489 24.7136 2.56794 20.7776C2.56228 20.7231 2.56854 20.6681 2.5863 20.6162C2.60407 20.5644 2.6329 20.5171 2.67079 20.4776L9.52771 13.6207C9.5879 13.5546 9.67054 13.5132 9.75954 13.5047C9.84853 13.4962 9.93751 13.5211 10.0092 13.5746C10.0808 13.628 10.13 13.7063 10.1472 13.794C10.1643 13.8817 10.1482 13.9727 10.102 14.0492C8.97178 16.1235 8.62692 18.5355 9.13059 20.8433C9.63426 23.1511 10.9527 25.2002 12.8443 26.6149C14.736 28.0296 17.0741 28.7153 19.4302 28.5463C21.7862 28.3772 24.0025 27.3648 25.6728 25.6945C27.3431 24.0242 28.3555 21.8079 28.5246 19.4518C28.6936 17.0958 28.0079 14.7577 26.5932 12.866C25.1785 10.9744 23.1295 9.65594 20.8216 9.15227C18.5138 8.64861 16.1018 8.99345 14.0276 10.1236C13.951 10.1699 13.86 10.186 13.7723 10.1688C13.6846 10.1517 13.6064 10.1025 13.5529 10.0308C13.4994 9.95919 13.4745 9.87021 13.483 9.78122C13.4916 9.69222 13.5329 9.60959 13.599 9.54939L20.4559 2.69248C20.493 2.65119 20.54 2.62008 20.5925 2.60208C20.645 2.58408 20.7013 2.57979 20.7559 2.58963C24.3461 3.02937 27.6846 4.66237 30.2356 7.22662C32.5108 9.50359 34.0603 12.4037 34.6882 15.5608C35.3162 18.7179 34.9944 21.9903 33.7636 24.9646C32.5328 27.9389 30.4481 30.4818 27.7729 32.272C25.0977 34.0622 21.952 35.0194 18.7331 35.0228ZM3.30506 20.8633C3.64202 23.3099 4.55633 25.6412 5.97245 27.6646C7.38856 29.688 9.26582 31.3454 11.4491 32.4998C13.6324 33.6542 16.0591 34.2725 18.5286 34.3036C20.9981 34.3347 23.4396 33.7777 25.6513 32.6787C27.863 31.5796 29.7814 29.9701 31.248 27.983C32.7147 25.996 33.6874 23.6885 34.0859 21.2511C34.4844 18.8138 34.2972 16.3166 33.5398 13.9659C32.7823 11.6152 31.4764 9.47849 29.7299 7.73231C27.3364 5.32387 24.2152 3.77232 20.8502 3.31818L15.4418 8.72657C17.6943 7.98711 20.1303 8.02846 22.3564 8.84396C24.5825 9.65946 26.4688 11.2015 27.7106 13.2211C28.9524 15.2406 29.4773 17.6198 29.2004 19.9743C28.9235 22.3289 27.8611 24.5214 26.1847 26.1978C24.5083 27.8742 22.3158 28.9366 19.9612 29.2135C17.6067 29.4904 15.2275 28.9655 13.2079 27.7237C11.1884 26.4819 9.64636 24.5957 8.83086 22.3696C8.01535 20.1434 7.97399 17.7074 8.71345 15.4549L3.30506 20.8633Z" fill="#212121"/>
</svg>
