<svg width="72" height="72" viewBox="0 0 72 72" fill="none" xmlns="http://www.w3.org/2000/svg">
<circle cx="36" cy="36" r="36" fill="#212121"/>
<path d="M42.2823 15C39.94 15.0017 37.6318 15.562 35.5495 16.6345C33.4671 17.7071 31.6706 19.2609 30.3091 21.1669C28.9476 23.073 28.0604 25.2763 27.7211 27.594C27.3818 29.9117 27.6002 32.2769 28.3582 34.4932L17.3317 45.5204C17.2265 45.6255 17.1431 45.7502 17.0862 45.8876C17.0293 46.0249 17 46.1721 17 46.3208V53.8679C17 54.1682 17.1193 54.4561 17.3316 54.6684C17.5439 54.8807 17.8318 55 18.132 55H25.679C25.9792 55 26.2672 54.8807 26.4795 54.6684C26.6918 54.4561 26.811 54.1682 26.811 53.8679V50.4717H30.2072C30.5074 50.4717 30.7954 50.3524 31.0077 50.1401C31.2199 49.9278 31.3392 49.6399 31.3392 49.3396V45.9434H34.7353C34.884 45.9434 35.0313 45.9141 35.1686 45.8572C35.306 45.8003 35.4308 45.7169 35.5359 45.6117L37.5062 43.6415C39.5282 44.3351 41.677 44.5799 43.8032 44.3589C45.9294 44.1379 47.9819 43.4564 49.8181 42.3617C51.6542 41.2671 53.2299 39.7857 54.4356 38.0205C55.6412 36.2552 56.4479 34.2485 56.7995 32.1399C57.1511 30.0314 57.0392 27.8715 56.4716 25.8105C55.904 23.7495 54.8943 21.837 53.5127 20.2058C52.1311 18.5745 50.4108 17.2639 48.4713 16.3649C46.5319 15.4659 44.4199 15.0001 42.2823 15ZM42.2823 42.1698C40.704 42.1725 39.1396 41.8737 37.6734 41.2894C37.4648 41.1983 37.2335 41.1721 37.0098 41.2144C36.7861 41.2567 36.5804 41.3654 36.4195 41.5264L34.2667 43.6792H30.207C29.9067 43.6792 29.6188 43.7985 29.4065 44.0108C29.1942 44.2231 29.0749 44.5111 29.0749 44.8113V48.2075H25.6788C25.3786 48.2075 25.0906 48.3268 24.8783 48.5391C24.666 48.7514 24.5468 49.0394 24.5468 49.3396V52.7359H19.2639V46.7896L30.473 35.5802C30.634 35.4193 30.7428 35.2136 30.7851 34.9899C30.8274 34.7662 30.8013 34.535 30.7102 34.3264C29.7235 31.851 29.5568 29.1244 30.2345 26.5472C30.9121 23.97 32.3985 21.6781 34.4752 20.0083C36.5519 18.3384 39.1093 17.3786 41.7718 17.27C44.4344 17.1613 47.0615 17.9095 49.2674 19.4046C51.4732 20.8996 53.1414 23.0628 54.0268 25.5762C54.9122 28.0896 54.9682 30.8207 54.1865 33.3683C53.4049 35.9159 51.8267 38.1456 49.684 39.7298C47.5413 41.314 44.947 42.1693 42.2823 42.1698ZM47.9421 25.9434C47.9421 26.3166 47.8315 26.6814 47.6242 26.9916C47.4169 27.3019 47.1222 27.5438 46.7774 27.6866C46.4327 27.8294 46.0533 27.8667 45.6873 27.7939C45.3213 27.7211 44.9851 27.5414 44.7213 27.2776C44.4574 27.0137 44.2777 26.6775 44.2049 26.3115C44.1321 25.9455 44.1695 25.5661 44.3123 25.2214C44.4551 24.8766 44.6969 24.5819 45.0072 24.3746C45.3175 24.1673 45.6822 24.0566 46.0554 24.0566C46.5556 24.0572 47.0352 24.2562 47.3889 24.6099C47.7426 24.9636 47.9415 25.4432 47.9421 25.9434Z" fill="#FFCE1B"/>
</svg>
